<?xml version="1.0" encoding="utf-8"?>
<!-- Generator: Adobe Illustrator 21.0.0, SVG Export Plug-In . SVG Version: 6.00 Build 0)  -->
<!DOCTYPE svg PUBLIC "-//W3C//DTD SVG 1.1//EN" "http://www.w3.org/Graphics/SVG/1.1/DTD/svg11.dtd">
<svg version="1.1" id="Layer_1" xmlns="http://www.w3.org/2000/svg" xmlns:xlink="http://www.w3.org/1999/xlink" x="0px" y="0px"
	 viewBox="0 0 535.5 783" style="enable-background:new 0 0 535.5 783;" xml:space="preserve">
<style type="text/css">
	.st0{fill:#F2F2F2;}
	.st1{fill:#E6E6E6;}
</style>
<g>
	<path class="st0" d="M526.7,427.9c-2.6-6.3-6.5-11-11-13.5c-2.3-8.3-9.5-14.4-19.9-16.5c-6.3-1.3-13.5-0.7-18.9,2
		c-10.1-10.1-21.9-20.3-35.3-30.4c0.5-2.5-0.3-5.2-2.4-7.1c-23-20.5-49.3-40.9-86.4-54.3c2.3-0.7,4.4-1.5,6.5-2.2
		c2.9,2.9,6.9,4.5,11,4.5c4.5,0,8.8-2.1,11.7-5.5c4.7-5.7,10.8-14,15.4-23.9c2.9,2.1,6.5,3.1,10.2,2.8c6.8-0.5,12.2-5.1,13.8-11.7
		c4.1-16.9,5.2-33.5,3.1-49.5c1.5-0.1,2.9-0.4,4.3-0.9c5.3-1.9,9.1-6.3,10.2-11.9c3.3-18.1,4.4-43.4-7.2-66.3c1.1-0.5,2.2-1.2,3.2-2
		c4.6-3.7,6.7-9.5,5.5-15.3c-4.6-21.3-15.8-40.6-25.3-52c1.7-1.4,3-3.2,4-5.4c2.8-6.1,1.5-13-3.4-17.5c-19.3-18.3-45.9-26.9-62.6-30
		c0.2-2.5-0.3-5-1.4-7.4c-2.8-6.1-8.9-9.7-15.6-9c-14.1,1.3-27.1,5.2-38.6,11.6c-2.1,1.1-4.5,1.4-6.7,0.6
		c-25.6-8.8-53.4-11.9-74.2-8.3c-7.1,1.2-12.3,6.9-12.9,14.2c-0.2,1.8,0,3.6,0.4,5.3c-34.3,10.2-60.4,34.9-74.1,56.1
		c-3.6,5.5-3.3,12.5,0.6,17.7c0.9,1.2,1.9,2.2,3.1,3.1c-14.2,17.7-23.4,36.6-27.4,56.2c-1.3,6.2,1.4,12.5,6.7,16
		c0.6,0.4,1.2,0.7,1.8,1c-5.6,15.2-4.7,30.9-2.5,42.5c1.1,5.9,5.4,10.5,11.1,12.1c1.2,0.3,2.5,0.5,3.7,0.5
		c0.2,16.9,6.2,35.1,11.8,48.4c2.4,5.7,7.9,9.4,14.2,9.4c0.1,0,0.1,0,0.2,0c3.5,0,6.8-1.2,9.4-3.3c1.7,4.2,3.8,8.6,6.2,13.1
		c2.7,4.9,7.8,8,13.3,8.1c5,0,9.5-2.2,12.5-6.1c3.5,1.3,7,2.5,10.8,3.7c-37.2,11.8-70.2,30.1-96.6,53.7c-1.6,1.4-2.4,3.3-2.5,5.2
		c-16.2,11.5-29,21.7-36.5,28.3c-11.2-7.8-20.7-10.3-28.5-7.3c-6.3,2.4-10.5,7.9-12.7,16.4c-6.1,2.5-11,7.2-14.4,13.9
		c-3.7,7.5-5.1,17.3-3.6,24.3c-5,8.9-5.3,20.7-0.3,29.1c3,5.1,7.5,8.4,13,9.6c0.8,5.9,4.1,11.7,9.6,15.3c5.4,3.5,24.3,12,53-18
		c-0.4,11.4,4.9,20.6,14.9,25.2c12.5,5.7,28.6,2.3,36.7-7.8c3.7-4.6,10.5-16.9-1.5-35.7c5.6-7.4,14.3-18.3,23.2-29.4
		c5.7,2.2,12.2,1.4,17.1-2.2c-4.8,28.3-4.6,52-4.6,64.9c0,3.1,0,5.9,0,7.4c-34.1,103.6-43.5,172.8-45.7,194.9
		c-32.9,9-54.1,25.3-54.4,42.3c-0.1,6.8,3.1,19.1,26.2,25.6c47.2,10.9,111.8,5.7,132.7-19.6c5.3-6.4,10.2-16.8,4.7-31.3
		c7.8-46.7,16.2-99.3,20.2-140.1c3.6-1.2,13.8,0.4,17.6,2.8c2.1,53.7,22.8,119,30.8,143.5c-6.8,21.9,2.6,36.9,30.6,48.4
		c21.6,7.7,52.2,12.5,78,12.5c4,0,7.8-0.1,11.5-0.3c12.5-0.5,50.5-2.1,51.7-24.3c1.2-21.6-38.5-44.4-68.2-51.1
		c-5.4-78.9-27-147.3-44.4-202.5l-0.7-2.3c1.2-24-0.3-50.9-3.8-73.8c5.1,3,11.6,3.3,17.1,0.3c0.6-0.3,1.3-0.7,1.9-1
		c12.9,14.1,22.4,24.9,28.2,32.2c-7.5,23.5-1.1,34.4,3.5,38.9c5.3,5.1,12.9,6.5,20.1,3.7c7.1-2.8,12.4-9.1,14.8-17.1
		c2.6,0.2,4.9,0.3,7,0.3c6.6,15,18.5,15.4,22.4,15.1c8.9-0.7,17.7-6.9,22.1-14.7c14.5,3.5,22.3-0.8,26.5-5.4
		c6.2-7,6.3-17.3,4.2-24.5C530.9,444.6,529.5,434.8,526.7,427.9z"/>
	<path class="st1" d="M513.5,435.7c-1.6-5.2-4.3-7.9-5.2-8.2c-3.9-0.3-6.9-3.5-6.9-7.4c0-1.1,0-4.3-5.3-6.5
		c-5.5-2.3-11.5-1.2-12.9-0.1c-1,2.2-3.1,3.7-5.4,4.2c-2.5,0.4-5.1-0.4-6.8-2.2c-11.7-12.5-26.5-25.3-43.9-38
		c-1.7-1.2-2.8-3.1-3-5.1c-0.1-1,0-2,0.2-3c-25.9-22.6-56.7-44.2-103.1-54.7c-3.5-0.8-6-4-5.8-7.6c0.1-3.6,2.8-6.6,6.4-7.2
		c12.8-2,24.1-4.8,33.4-8.4c5.2-2,11.1-0.5,14.7,3.7l0.4,0.2c5.4-6.2,12.2-15.7,16.1-26.7c1.5-4.2,5.3-6.9,9.7-7
		c4.4-0.2,8.4,2.5,10.1,6.6l0.4,0.6c0.2,0.1,0.4,0,0.5-0.1c4.5-18.2,5-35.7,1.5-52.3c-0.8-3.9,1-7.9,4.4-10c3.4-2,7.7-1.6,10.7,1
		c0.2,0.1,0.3,0.2,0.5,0.2c0.3-0.1,0.3-0.3,0.3-0.4c3.2-17.6,4.1-43-10-63.8c-0.3-0.4-0.5-0.8-0.7-1.2c-0.7-1.6-1.1-2.2-1.2-2.2
		c-2.5-2.5-2.9-6.4-0.9-9.4c2-3,5.9-4.1,9.2-2.7c1.7,0.7,3.3,1.4,4.7,2.1l0.4-0.1c-5-23.7-19.4-44.8-27.6-51.6
		c-2.9-2.5-3.9-6.5-2.4-10c1.5-3.6,5.1-5.7,8.9-5.3l0.5,0.1c0.4-0.2,0.5-0.4,0.4-0.5c-18.7-17.7-47.3-25.9-62.1-27.2
		c-2.9-0.2-5.4-2.2-6.4-4.9l-0.7-1.8c-1-2.8-0.3-6,1.9-8c0,0-0.1-0.3-0.3-0.5c0,0-0.1-0.1-0.4-0.1c-12,1.1-23,4.4-32.7,9.8
		c-5.8,3.2-12.6,3.8-18.8,1.7c-23.4-8-48.3-10.9-66.8-7.7c-0.3,0-0.5,0.1-0.5,0.6c-0.1,0.7,0.3,0.8,0.5,0.9c3.5,1.2,5.6,4.5,5.4,8.1
		c-0.3,3.5-2.9,6.5-6.4,7.1c-35.2,6.7-62.7,32.3-75.5,52.2c-0.1,0.2-0.2,0.3,0,0.6c0.2,0.2,0.2,0.2,0.5,0.1c3.8-1.2,7.8,0.3,9.8,3.5
		c2,3.2,1.7,7.5-0.9,10.3c-16.5,18.1-26.9,37.4-30.9,57.4c0,0.2-0.1,0.3,0.2,0.4c0.3,0.2,0.4,0.1,0.5,0l1.2-0.9
		c2.7-1.9,6.3-1.8,8.9,0.2c2.6,2,3.6,5.5,2.4,8.6l-0.2,0.6c-0.2,0.5-0.4,0.9-0.7,1.4c-9.2,14.2-8.5,31.5-6.2,43.4
		c0,0.1,0.1,0.3,0.3,0.4c0.3,0.1,0.4,0,0.5-0.1c2.7-3,6.7-3.9,10.1-2.3c3.4,1.6,5.4,5.2,4.7,9c-2.6,16.1,4.1,36.6,10.1,51
		c0.6,0.2,0.6,0.1,0.7-0.1c1.3-3.4,2.9-6.8,4.5-10.1c1.5-2.9,4.6-4.5,7.7-4c3.2,0.4,5.7,2.9,6.3,6c1.5,7.8,4.9,16.8,10,26.1
		c0.1,0.1,0.1,0.2,0.3,0.2c0.1,0,0.4-0.1,0.4-0.2c3.2-5.6,9.7-7.8,15.6-5.5c9.5,3.8,20.3,6.7,33.7,9.9c1.6,0.2,3.2,0.8,5.4,1.9
		c2.8,1.5,4.4,4.5,3.9,7.6c-0.4,3.1-2.7,5.6-5.8,6.3c-43.6,9.7-82.3,28.2-112.5,53.8c0,0.5,0,1-0.1,1.6c-0.3,2-1.4,3.8-3.1,5
		c-23.7,16.6-39.5,29.8-44.3,34.6c-2.7,2.7-7.1,2.9-10,0.5c-9.9-8.1-16.3-9.8-18.8-8.9c-1.9,0.7-3.4,4.2-4.2,9.4
		c-0.5,3.2-2.9,5.7-6,6.3c-3.7,0.7-6.5,2.9-8.5,6.8c-3.3,6.3-3.2,14.2-2.3,16c1.3,2.6,1,5.7-0.9,8c-3.2,4-3.9,11.4-1.4,15.6
		c1,1.6,2.7,3.4,7.2,2.6c2.8-0.5,5.6,0.6,7.3,2.9c1.7,2.3,2,5.3,0.7,7.9c-0.9,1.7,0,4.9,2.7,6.7c6.6,4.4,21.3-0.7,39.2-21.7
		c1.3-1.5,3.2-2.5,5.2-2.6c2-0.1,4,0.5,5.5,1.9l7.9,7c2,1.8,2.9,4.4,2.4,7c-1.4,7.3,0.6,12.2,5.8,14.6c6.2,2.8,14.9,1.2,18.7-3.5
		c5.2-6.5-0.9-16.5-5-21.9c-2-2.6-2-6.3-0.1-9c6-8.2,18.6-24,31-39.5c1.3-1.6,3.1-2.6,5.2-2.8c2-0.2,4,0.5,5.6,1.8
		c0.5,0.4,0.9,0.8,1.4,1.2c1.2,0.9,2.8,0.9,3.9-0.1c5.8-5.5,11-10.5,15.7-15.3c2.4-2.4,6.1-2.9,9-1.2c2.9,1.7,4.4,5.1,3.5,8.4
		c-9.5,36.7-9.3,69.4-9.2,85.2c0,4.6,0,7.6-0.2,9.7c-0.1,0.5-0.2,1.1-0.3,1.6c-37.4,113.2-44.7,184.5-45.8,197.6
		c-0.3,3.2-2.6,5.9-5.7,6.7c-33,8-48,21.9-48.1,29.3c-0.1,4.1,5.5,8.1,14.9,10.7c45.2,10.5,102.4,3.4,117.4-14.6
		c4.2-5.1,4.7-10.7,1.6-17.8c-0.6-1.3-0.8-2.8-0.5-4.3c7.9-47.4,16.5-101.4,20.5-142.1c0.3-6.1,5.4-13,18.7-13c0.1,0,0.1,0,0.2,0
		c9.1,0,28,3.9,28.5,15.5c1.7,53.9,23.7,121.6,30.9,143.9c0.5,1.6,0.5,3.3-0.1,4.9c-4.1,11.4-5.2,21,21,31.8
		c22.5,8,57.7,12.8,83.4,11.1c30.4-1.3,37.4-7.7,37.5-10.1c0.5-9.3-31.9-32-61.5-36.6c-3.5-0.5-6.1-3.5-6.3-7
		c-4.6-79.5-25.6-146-44.1-204.7l-1.1-3.6c-0.3-0.9-0.4-1.8-0.3-2.7c1.7-31.7-1.4-68.5-7.8-93.9c-0.8-3.2,0.5-6.5,3.3-8.2
		c2.8-1.7,6.3-1.5,8.8,0.6c5.3,4.4,9.8,8.9,14,13.6c0.8,0.9,2,1.1,3,0.6c2.1-1.1,4.3-2.4,6.6-3.8c3.1-1.8,7-1.3,9.4,1.4
		c17.5,19,29.4,32.7,35.6,40.8c1.5,2,2,4.7,1.1,7.1c-5.6,15.5-4.3,24.2-1.5,27c1.3,1.2,2.9,1,4.1,0.5c2.9-1.1,6.3-5,6.7-12.1
		c0.1-2.2,1.2-4.3,2.9-5.6c1.8-1.3,4-1.9,6.2-1.4c8.2,1.8,15.7,1,15.8,1c3.7-0.4,7.2,1.9,8.1,5.4c1.9,6.9,4.8,10.2,8.8,9.9
		c5.2-0.4,10.7-5.9,11.2-9.9c0.3-2.3,1.6-4.3,3.5-5.5c2-1.2,4.4-1.4,6.5-0.6c8.5,3.1,15,3.5,17.2,0.9c2.5-2.8,1.7-9.5,0.4-12.1
		c-1.4-2.8-1-6.1,1.1-8.4C514.6,444.6,514.8,440.2,513.5,435.7z"/>
</g>
</svg>
