<?xml version="1.0" encoding="utf-8"?>
<!-- Generator: Adobe Illustrator 21.0.0, SVG Export Plug-In . SVG Version: 6.00 Build 0)  -->
<!DOCTYPE svg PUBLIC "-//W3C//DTD SVG 1.1//EN" "http://www.w3.org/Graphics/SVG/1.1/DTD/svg11.dtd">
<svg version="1.1" id="Layer_1" xmlns="http://www.w3.org/2000/svg" xmlns:xlink="http://www.w3.org/1999/xlink" x="0px" y="0px"
	 viewBox="0 0 588.3 319.1" style="enable-background:new 0 0 588.3 319.1;" xml:space="preserve">
<style type="text/css">
	.st0{fill:#414042;}
	.st1{fill:#BCBEC0;}
	.st2{fill:#E6E7E8;}
	.st3{fill:#818181;}
</style>
<g>
	<g>
		<path class="st0" d="M8.7,8.5V15h7.7v2.1H8.7v8H6.1V6.4h11.5v2.1H8.7z"/>
		<path class="st0" d="M34.5,25.1h-2c-0.2,0-0.4-0.1-0.5-0.2c-0.1-0.1-0.2-0.3-0.3-0.4L29.9,20h-8.4l-1.7,4.5
			c-0.1,0.2-0.2,0.3-0.3,0.4c-0.1,0.1-0.3,0.2-0.5,0.2h-2l7.5-18.6H27L34.5,25.1z M29.2,18.2l-2.9-7.6c-0.1-0.2-0.2-0.5-0.3-0.8
			c-0.1-0.3-0.2-0.6-0.3-1c-0.2,0.7-0.4,1.3-0.6,1.8l-2.9,7.6H29.2z"/>
		<path class="st0" d="M49.6,21.2c0.1,0,0.3,0.1,0.4,0.2l1,1.1c-0.8,0.9-1.7,1.6-2.8,2.1c-1.1,0.5-2.4,0.7-3.9,0.7
			c-1.3,0-2.6-0.2-3.6-0.7s-2-1.1-2.8-2c-0.8-0.8-1.4-1.8-1.8-3c-0.4-1.2-0.6-2.5-0.6-3.9c0-1.4,0.2-2.7,0.7-3.9
			c0.4-1.2,1.1-2.2,1.9-3c0.8-0.8,1.8-1.5,2.9-2c1.1-0.5,2.4-0.7,3.7-0.7c1.3,0,2.5,0.2,3.5,0.6c1,0.4,1.9,1,2.7,1.7l-0.8,1.2
			c-0.1,0.1-0.1,0.2-0.2,0.2c-0.1,0.1-0.2,0.1-0.3,0.1c-0.2,0-0.3-0.1-0.6-0.3c-0.2-0.2-0.5-0.4-0.9-0.6C47.5,9,47,8.9,46.5,8.7
			c-0.5-0.2-1.2-0.3-2-0.3c-1,0-1.8,0.2-2.6,0.5c-0.8,0.3-1.5,0.8-2.1,1.5c-0.6,0.6-1,1.4-1.3,2.3c-0.3,0.9-0.5,1.9-0.5,3.1
			c0,1.2,0.2,2.2,0.5,3.1c0.3,0.9,0.8,1.7,1.4,2.3c0.6,0.6,1.3,1.1,2,1.4c0.8,0.3,1.6,0.5,2.5,0.5c0.6,0,1.1,0,1.5-0.1
			c0.4-0.1,0.9-0.2,1.2-0.3c0.4-0.1,0.7-0.3,1.1-0.5c0.3-0.2,0.6-0.5,1-0.8C49.3,21.3,49.4,21.2,49.6,21.2z"/>
		<path class="st0" d="M56.4,25.1h-2.5V6.4h2.5V25.1z"/>
		<path class="st0" d="M71.7,23v2.1H61.1V6.4h2.5V23H71.7z"/>
		<path class="st0" d="M77,25.1h-2.5V6.4H77V25.1z"/>
		<path class="st0" d="M94.4,8.6h-6v16.5h-2.5V8.6h-6.1V6.4h14.6V8.6z"/>
		<path class="st0" d="M110.5,25.1h-2c-0.2,0-0.4-0.1-0.5-0.2c-0.1-0.1-0.2-0.3-0.3-0.4l-1.7-4.5h-8.4l-1.7,4.5
			c-0.1,0.2-0.2,0.3-0.3,0.4c-0.1,0.1-0.3,0.2-0.5,0.2h-2l7.5-18.6h2.5L110.5,25.1z M105.2,18.2l-2.9-7.6c-0.1-0.2-0.2-0.5-0.3-0.8
			c-0.1-0.3-0.2-0.6-0.3-1c-0.2,0.7-0.4,1.3-0.6,1.8l-2.9,7.6H105.2z"/>
		<path class="st0" d="M123.7,8.6h-6v16.5h-2.5V8.6h-6.1V6.4h14.6V8.6z"/>
		<path class="st0" d="M138,23l0,2.1h-11.5V6.4H138v2.1h-9v6.2h7.3v2H129V23H138z"/>
		<path class="st0" d="M151,9.4c-0.1,0.1-0.2,0.2-0.3,0.3c-0.1,0.1-0.2,0.1-0.3,0.1c-0.1,0-0.3-0.1-0.5-0.2
			c-0.2-0.1-0.4-0.3-0.7-0.5s-0.7-0.3-1.1-0.5s-0.9-0.2-1.5-0.2c-0.6,0-1.1,0.1-1.5,0.2c-0.4,0.2-0.8,0.4-1.1,0.6
			c-0.3,0.3-0.5,0.6-0.7,0.9c-0.1,0.4-0.2,0.7-0.2,1.1c0,0.5,0.1,1,0.4,1.3c0.3,0.3,0.6,0.6,1,0.9c0.4,0.2,0.9,0.5,1.4,0.6
			c0.5,0.2,1.1,0.4,1.6,0.6c0.6,0.2,1.1,0.4,1.6,0.6c0.5,0.2,1,0.5,1.4,0.9s0.8,0.8,1,1.3c0.3,0.5,0.4,1.2,0.4,2
			c0,0.8-0.1,1.6-0.4,2.3c-0.3,0.7-0.7,1.3-1.2,1.9c-0.5,0.5-1.2,0.9-2,1.2s-1.7,0.5-2.6,0.5c-1.2,0-2.3-0.2-3.3-0.7
			c-1-0.4-1.8-1-2.5-1.8l0.7-1.2c0.1-0.1,0.2-0.2,0.3-0.2c0.1-0.1,0.2-0.1,0.3-0.1c0.1,0,0.2,0,0.4,0.1c0.1,0.1,0.3,0.2,0.5,0.3
			c0.2,0.1,0.4,0.3,0.6,0.5c0.2,0.2,0.5,0.3,0.8,0.5c0.3,0.1,0.6,0.3,1,0.3c0.4,0.1,0.8,0.1,1.3,0.1c0.6,0,1.1-0.1,1.6-0.2
			c0.5-0.2,0.9-0.4,1.2-0.7c0.3-0.3,0.6-0.7,0.7-1.1c0.2-0.4,0.3-0.9,0.3-1.4c0-0.6-0.1-1-0.4-1.4c-0.3-0.4-0.6-0.7-1-0.9
			c-0.4-0.2-0.9-0.4-1.4-0.6c-0.5-0.2-1.1-0.3-1.6-0.5c-0.6-0.2-1.1-0.4-1.6-0.6c-0.5-0.2-1-0.5-1.4-0.9c-0.4-0.4-0.8-0.8-1-1.4
			c-0.3-0.6-0.4-1.3-0.4-2.1c0-0.7,0.1-1.3,0.4-1.9c0.3-0.6,0.6-1.2,1.1-1.6c0.5-0.5,1.1-0.9,1.8-1.1c0.7-0.3,1.5-0.4,2.5-0.4
			c1,0,2,0.2,2.8,0.5c0.9,0.3,1.6,0.8,2.3,1.4L151,9.4z"/>
		<path class="st1" d="M167.3,11.7c1,0,1.8,0.2,2.6,0.5c0.8,0.3,1.4,0.8,2,1.4c0.5,0.6,1,1.3,1.3,2.1s0.4,1.8,0.4,2.8
			c0,1-0.1,2-0.4,2.8c-0.3,0.8-0.7,1.5-1.3,2.1c-0.5,0.6-1.2,1-2,1.4c-0.8,0.3-1.6,0.5-2.6,0.5c-1,0-1.8-0.2-2.6-0.5
			c-0.8-0.3-1.4-0.8-2-1.4c-0.5-0.6-1-1.3-1.3-2.1c-0.3-0.8-0.4-1.8-0.4-2.8c0-1,0.1-2,0.4-2.8c0.3-0.8,0.7-1.6,1.3-2.1
			c0.5-0.6,1.2-1,2-1.4C165.4,11.9,166.3,11.7,167.3,11.7z M167.3,23.5c1.3,0,2.3-0.4,2.9-1.3c0.6-0.9,1-2.1,1-3.7
			c0-1.6-0.3-2.8-1-3.7c-0.6-0.9-1.6-1.3-2.9-1.3c-0.7,0-1.2,0.1-1.7,0.3c-0.5,0.2-0.9,0.6-1.2,1c-0.3,0.4-0.6,0.9-0.7,1.6
			c-0.2,0.6-0.2,1.3-0.2,2.1c0,1.6,0.3,2.8,1,3.7C165,23,166,23.5,167.3,23.5z"/>
		<path class="st1" d="M185.7,14.3c-0.1,0.1-0.1,0.2-0.2,0.2c-0.1,0.1-0.2,0.1-0.3,0.1c-0.1,0-0.3-0.1-0.4-0.2
			c-0.2-0.1-0.3-0.2-0.6-0.4c-0.2-0.1-0.5-0.2-0.8-0.4c-0.3-0.1-0.7-0.2-1.2-0.2c-0.7,0-1.2,0.1-1.7,0.3c-0.5,0.2-0.9,0.6-1.2,1
			c-0.3,0.4-0.6,1-0.8,1.6c-0.2,0.6-0.3,1.3-0.3,2.1c0,0.8,0.1,1.5,0.3,2.1c0.2,0.6,0.4,1.1,0.8,1.6c0.3,0.4,0.7,0.7,1.2,1
			c0.5,0.2,1,0.3,1.6,0.3c0.6,0,1-0.1,1.4-0.2c0.4-0.1,0.7-0.3,0.9-0.4s0.4-0.3,0.6-0.4c0.2-0.1,0.3-0.2,0.5-0.2
			c0.2,0,0.3,0.1,0.4,0.2l0.7,0.8c-0.3,0.4-0.6,0.7-1,0.9c-0.4,0.3-0.8,0.5-1.2,0.6c-0.4,0.2-0.9,0.3-1.3,0.4
			c-0.5,0.1-0.9,0.1-1.4,0.1c-0.8,0-1.6-0.2-2.3-0.5c-0.7-0.3-1.3-0.7-1.8-1.3c-0.5-0.6-0.9-1.3-1.2-2.1c-0.3-0.8-0.4-1.8-0.4-2.9
			c0-1,0.1-1.9,0.4-2.7c0.3-0.8,0.7-1.6,1.2-2.2c0.5-0.6,1.2-1.1,1.9-1.4c0.8-0.3,1.7-0.5,2.6-0.5c0.9,0,1.7,0.1,2.5,0.4
			c0.7,0.3,1.3,0.7,1.9,1.3L185.7,14.3z"/>
		<path class="st1" d="M197.9,14.3c-0.1,0.1-0.1,0.2-0.2,0.2c-0.1,0.1-0.2,0.1-0.3,0.1c-0.1,0-0.3-0.1-0.4-0.2
			c-0.2-0.1-0.4-0.2-0.6-0.4c-0.2-0.1-0.5-0.2-0.8-0.4c-0.3-0.1-0.7-0.2-1.2-0.2c-0.7,0-1.2,0.1-1.7,0.3c-0.5,0.2-0.9,0.6-1.2,1
			c-0.3,0.4-0.6,1-0.8,1.6c-0.2,0.6-0.3,1.3-0.3,2.1c0,0.8,0.1,1.5,0.3,2.1c0.2,0.6,0.4,1.1,0.8,1.6c0.3,0.4,0.7,0.7,1.2,1
			c0.5,0.2,1,0.3,1.6,0.3c0.6,0,1-0.1,1.4-0.2c0.4-0.1,0.7-0.3,0.9-0.4s0.4-0.3,0.6-0.4c0.2-0.1,0.3-0.2,0.5-0.2
			c0.2,0,0.3,0.1,0.4,0.2l0.7,0.8c-0.3,0.4-0.6,0.7-1,0.9c-0.4,0.3-0.8,0.5-1.2,0.6c-0.4,0.2-0.9,0.3-1.3,0.4
			c-0.5,0.1-0.9,0.1-1.4,0.1c-0.8,0-1.6-0.2-2.3-0.5c-0.7-0.3-1.3-0.7-1.8-1.3s-0.9-1.3-1.2-2.1c-0.3-0.8-0.4-1.8-0.4-2.9
			c0-1,0.1-1.9,0.4-2.7c0.3-0.8,0.7-1.6,1.2-2.2c0.5-0.6,1.2-1.1,1.9-1.4c0.8-0.3,1.7-0.5,2.6-0.5c0.9,0,1.7,0.1,2.5,0.4
			c0.7,0.3,1.3,0.7,1.9,1.3L197.9,14.3z"/>
		<path class="st1" d="M211.9,11.9v13.2h-1.4c-0.3,0-0.5-0.2-0.6-0.5l-0.2-1.4c-0.6,0.6-1.2,1.1-1.9,1.5c-0.7,0.4-1.5,0.6-2.4,0.6
			c-0.7,0-1.4-0.1-1.9-0.4c-0.6-0.2-1-0.6-1.4-1c-0.4-0.4-0.7-1-0.8-1.6c-0.2-0.6-0.3-1.3-0.3-2v-8.4h2.3v8.4c0,1,0.2,1.8,0.7,2.3
			c0.5,0.5,1.2,0.8,2.1,0.8c0.7,0,1.3-0.2,1.9-0.5c0.6-0.3,1.1-0.8,1.6-1.3v-9.7H211.9z"/>
		<path class="st1" d="M217.8,14c0.6-0.7,1.2-1.2,1.9-1.7c0.7-0.4,1.6-0.6,2.5-0.6c0.8,0,1.5,0.1,2.1,0.4c0.6,0.3,1.1,0.7,1.6,1.3
			c0.4,0.6,0.8,1.3,1,2.1s0.4,1.8,0.4,2.9c0,1-0.1,1.9-0.4,2.7c-0.3,0.8-0.6,1.6-1.1,2.2c-0.5,0.6-1.1,1.1-1.8,1.4
			c-0.7,0.4-1.5,0.5-2.4,0.5c-0.8,0-1.5-0.1-2.1-0.4c-0.6-0.3-1.1-0.7-1.5-1.1v5.8h-2.3V11.9h1.4c0.3,0,0.5,0.2,0.6,0.5L217.8,14z
			 M217.9,21.9c0.4,0.6,0.9,1,1.4,1.2c0.5,0.2,1.1,0.4,1.7,0.4c1.2,0,2.2-0.4,2.8-1.3c0.7-0.9,1-2.1,1-3.7c0-0.9-0.1-1.6-0.2-2.2
			c-0.2-0.6-0.4-1.1-0.7-1.5c-0.3-0.4-0.6-0.7-1.1-0.9c-0.4-0.2-0.9-0.3-1.4-0.3c-0.8,0-1.4,0.2-2,0.5c-0.6,0.3-1.1,0.8-1.6,1.5
			V21.9z"/>
		<path class="st1" d="M229.9,13.8c0.7-0.7,1.5-1.2,2.4-1.6c0.8-0.3,1.8-0.5,2.8-0.5c0.7,0,1.4,0.1,2,0.4c0.6,0.2,1.1,0.6,1.4,1
			c0.4,0.4,0.7,1,0.9,1.6c0.2,0.6,0.3,1.3,0.3,2v8.4h-1c-0.2,0-0.4,0-0.5-0.1c-0.1-0.1-0.2-0.2-0.3-0.4l-0.3-1.2
			c-0.3,0.3-0.7,0.6-1,0.9c-0.3,0.2-0.7,0.5-1,0.6c-0.4,0.2-0.8,0.3-1.2,0.4c-0.4,0.1-0.9,0.1-1.4,0.1c-0.5,0-1-0.1-1.4-0.2
			c-0.5-0.1-0.8-0.4-1.2-0.6c-0.3-0.3-0.6-0.6-0.8-1.1c-0.2-0.4-0.3-1-0.3-1.6c0-0.5,0.1-1,0.4-1.5c0.3-0.5,0.7-0.9,1.4-1.3
			c0.6-0.4,1.5-0.7,2.5-0.9c1-0.2,2.3-0.4,3.8-0.4v-1c0-1-0.2-1.8-0.7-2.3c-0.4-0.5-1.1-0.8-1.9-0.8c-0.6,0-1.1,0.1-1.4,0.2
			c-0.4,0.1-0.7,0.3-1,0.5c-0.3,0.2-0.5,0.3-0.7,0.5c-0.2,0.1-0.4,0.2-0.6,0.2c-0.2,0-0.3,0-0.4-0.1c-0.1-0.1-0.2-0.2-0.3-0.3
			L229.9,13.8z M237.3,19.2c-1.1,0-2,0.1-2.7,0.3c-0.7,0.1-1.4,0.3-1.8,0.5c-0.5,0.2-0.8,0.5-1,0.8c-0.2,0.3-0.3,0.6-0.3,1
			c0,0.3,0.1,0.6,0.2,0.9c0.1,0.3,0.3,0.5,0.5,0.6c0.2,0.2,0.4,0.3,0.7,0.4c0.3,0.1,0.5,0.1,0.9,0.1c0.4,0,0.8,0,1.1-0.1
			c0.3-0.1,0.7-0.2,1-0.4c0.3-0.2,0.6-0.3,0.9-0.6c0.3-0.2,0.5-0.5,0.8-0.7V19.2z"/>
		<path class="st1" d="M255.2,25.1h-2.3V13.9h-6.8v7.9c0,0.6,0.1,1,0.4,1.2c0.3,0.3,0.6,0.4,1,0.4c0.2,0,0.5,0,0.6-0.1
			c0.2-0.1,0.3-0.1,0.5-0.2c0.1-0.1,0.2-0.1,0.3-0.2c0.1-0.1,0.2-0.1,0.2-0.1c0.1,0,0.2,0.1,0.3,0.2l0.7,1.1
			c-0.4,0.4-0.9,0.7-1.4,0.9c-0.6,0.2-1.1,0.3-1.7,0.3c-1,0-1.8-0.3-2.4-0.9s-0.8-1.4-0.8-2.5v-8.1h-1.6c-0.1,0-0.3,0-0.4-0.1
			c-0.1-0.1-0.1-0.2-0.1-0.4v-0.9l2.2-0.3l0.5-4.1c0-0.1,0.1-0.2,0.2-0.3c0.1-0.1,0.2-0.1,0.4-0.1h1.2v4.5h9.1V25.1z M255.8,7.7
			c0,0.2,0,0.4-0.1,0.6c-0.1,0.2-0.2,0.4-0.4,0.5c-0.2,0.1-0.3,0.3-0.5,0.4c-0.2,0.1-0.4,0.1-0.6,0.1c-0.2,0-0.4,0-0.6-0.1
			S253.1,9,253,8.8s-0.3-0.3-0.4-0.5c-0.1-0.2-0.1-0.4-0.1-0.6c0-0.2,0-0.4,0.1-0.6c0.1-0.2,0.2-0.4,0.4-0.5s0.3-0.3,0.5-0.4
			s0.4-0.1,0.6-0.1c0.2,0,0.4,0,0.6,0.1c0.2,0.1,0.4,0.2,0.5,0.4c0.2,0.2,0.3,0.3,0.4,0.5C255.7,7.2,255.8,7.5,255.8,7.7z"/>
		<path class="st1" d="M264.6,11.7c1,0,1.8,0.2,2.6,0.5c0.8,0.3,1.4,0.8,2,1.4c0.5,0.6,1,1.3,1.3,2.1c0.3,0.8,0.4,1.8,0.4,2.8
			c0,1-0.1,2-0.4,2.8c-0.3,0.8-0.7,1.5-1.3,2.1c-0.5,0.6-1.2,1-2,1.4c-0.8,0.3-1.6,0.5-2.6,0.5c-1,0-1.8-0.2-2.6-0.5
			c-0.8-0.3-1.4-0.8-2-1.4c-0.5-0.6-1-1.3-1.3-2.1c-0.3-0.8-0.4-1.8-0.4-2.8c0-1,0.1-2,0.4-2.8c0.3-0.8,0.7-1.6,1.3-2.1
			c0.5-0.6,1.2-1,2-1.4C262.7,11.9,263.6,11.7,264.6,11.7z M264.6,23.5c1.3,0,2.3-0.4,2.9-1.3c0.6-0.9,1-2.1,1-3.7
			c0-1.6-0.3-2.8-1-3.7c-0.6-0.9-1.6-1.3-2.9-1.3c-0.7,0-1.2,0.1-1.7,0.3c-0.5,0.2-0.9,0.6-1.2,1c-0.3,0.4-0.6,0.9-0.7,1.6
			c-0.2,0.6-0.2,1.3-0.2,2.1c0,1.6,0.3,2.8,1,3.7C262.2,23,263.2,23.5,264.6,23.5z"/>
		<path class="st1" d="M275.9,13.8c0.3-0.3,0.6-0.6,0.9-0.9c0.3-0.3,0.7-0.5,1-0.7c0.4-0.2,0.7-0.3,1.1-0.4c0.4-0.1,0.8-0.1,1.3-0.1
			c0.7,0,1.4,0.1,1.9,0.4c0.6,0.2,1,0.6,1.4,1c0.4,0.4,0.6,1,0.8,1.6c0.2,0.6,0.3,1.3,0.3,2v8.4h-2.3v-8.4c0-1-0.2-1.8-0.7-2.3
			c-0.5-0.6-1.1-0.8-2.1-0.8c-0.7,0-1.3,0.2-1.9,0.5c-0.6,0.3-1.1,0.8-1.6,1.3v9.7h-2.3V11.9h1.4c0.3,0,0.5,0.2,0.6,0.5L275.9,13.8z
			"/>
		<path class="st1" d="M287.9,13.8c0.7-0.7,1.5-1.2,2.4-1.6c0.8-0.3,1.8-0.5,2.8-0.5c0.7,0,1.4,0.1,2,0.4c0.6,0.2,1.1,0.6,1.4,1
			c0.4,0.4,0.7,1,0.9,1.6c0.2,0.6,0.3,1.3,0.3,2v8.4h-1c-0.2,0-0.4,0-0.5-0.1c-0.1-0.1-0.2-0.2-0.3-0.4l-0.3-1.2
			c-0.3,0.3-0.7,0.6-1,0.9c-0.3,0.2-0.7,0.5-1,0.6c-0.4,0.2-0.8,0.3-1.2,0.4c-0.4,0.1-0.9,0.1-1.4,0.1c-0.5,0-1-0.1-1.4-0.2
			c-0.5-0.1-0.8-0.4-1.2-0.6c-0.3-0.3-0.6-0.6-0.8-1.1c-0.2-0.4-0.3-1-0.3-1.6c0-0.5,0.1-1,0.4-1.5c0.3-0.5,0.7-0.9,1.4-1.3
			c0.6-0.4,1.5-0.7,2.5-0.9c1-0.2,2.3-0.4,3.8-0.4v-1c0-1-0.2-1.8-0.7-2.3c-0.4-0.5-1.1-0.8-1.9-0.8c-0.6,0-1.1,0.1-1.4,0.2
			c-0.4,0.1-0.7,0.3-1,0.5c-0.3,0.2-0.5,0.3-0.7,0.5c-0.2,0.1-0.4,0.2-0.6,0.2c-0.2,0-0.3,0-0.4-0.1s-0.2-0.2-0.3-0.3L287.9,13.8z
			 M295.4,19.2c-1.1,0-2,0.1-2.7,0.3c-0.7,0.1-1.4,0.3-1.8,0.5c-0.5,0.2-0.8,0.5-1,0.8c-0.2,0.3-0.3,0.6-0.3,1
			c0,0.3,0.1,0.6,0.2,0.9c0.1,0.3,0.3,0.5,0.5,0.6c0.2,0.2,0.4,0.3,0.7,0.4c0.3,0.1,0.5,0.1,0.9,0.1c0.4,0,0.8,0,1.1-0.1
			c0.3-0.1,0.7-0.2,1-0.4c0.3-0.2,0.6-0.3,0.9-0.6c0.3-0.2,0.5-0.5,0.8-0.7V19.2z"/>
		<path class="st1" d="M303.6,5.9v19.2h-2.3V5.9H303.6z"/>
		<path class="st1" d="M316.2,14c0.6-0.7,1.2-1.2,1.9-1.7c0.7-0.4,1.6-0.6,2.5-0.6c0.8,0,1.5,0.1,2.1,0.4c0.6,0.3,1.1,0.7,1.6,1.3
			c0.4,0.6,0.8,1.3,1,2.1c0.2,0.8,0.4,1.8,0.4,2.9c0,1-0.1,1.9-0.4,2.7c-0.3,0.8-0.6,1.6-1.1,2.2c-0.5,0.6-1.1,1.1-1.8,1.4
			c-0.7,0.4-1.5,0.5-2.4,0.5c-0.8,0-1.5-0.1-2.1-0.4c-0.6-0.3-1.1-0.7-1.5-1.1v5.8H314V11.9h1.4c0.3,0,0.5,0.2,0.6,0.5L316.2,14z
			 M316.3,21.9c0.4,0.6,0.9,1,1.4,1.2c0.5,0.2,1.1,0.4,1.7,0.4c1.2,0,2.2-0.4,2.8-1.3c0.7-0.9,1-2.1,1-3.7c0-0.9-0.1-1.6-0.2-2.2
			c-0.2-0.6-0.4-1.1-0.7-1.5s-0.6-0.7-1.1-0.9s-0.9-0.3-1.4-0.3c-0.8,0-1.4,0.2-2,0.5c-0.6,0.3-1.1,0.8-1.6,1.5V21.9z"/>
		<path class="st1" d="M328.2,13.8c0.7-0.7,1.5-1.2,2.4-1.6c0.8-0.3,1.8-0.5,2.8-0.5c0.7,0,1.4,0.1,2,0.4c0.6,0.2,1.1,0.6,1.4,1
			c0.4,0.4,0.7,1,0.9,1.6c0.2,0.6,0.3,1.3,0.3,2v8.4h-1c-0.2,0-0.4,0-0.5-0.1c-0.1-0.1-0.2-0.2-0.3-0.4l-0.3-1.2
			c-0.3,0.3-0.7,0.6-1,0.9c-0.3,0.2-0.7,0.5-1,0.6c-0.4,0.2-0.8,0.3-1.2,0.4c-0.4,0.1-0.9,0.1-1.4,0.1c-0.5,0-1-0.1-1.4-0.2
			c-0.5-0.1-0.8-0.4-1.2-0.6c-0.3-0.3-0.6-0.6-0.8-1.1c-0.2-0.4-0.3-1-0.3-1.6c0-0.5,0.1-1,0.4-1.5c0.3-0.5,0.7-0.9,1.4-1.3
			c0.6-0.4,1.5-0.7,2.5-0.9c1-0.2,2.3-0.4,3.8-0.4v-1c0-1-0.2-1.8-0.7-2.3c-0.4-0.5-1.1-0.8-1.9-0.8c-0.6,0-1.1,0.1-1.4,0.2
			c-0.4,0.1-0.7,0.3-1,0.5c-0.3,0.2-0.5,0.3-0.7,0.5c-0.2,0.1-0.4,0.2-0.6,0.2c-0.2,0-0.3,0-0.4-0.1c-0.1-0.1-0.2-0.2-0.3-0.3
			L328.2,13.8z M335.7,19.2c-1.1,0-2,0.1-2.7,0.3c-0.7,0.1-1.4,0.3-1.8,0.5c-0.5,0.2-0.8,0.5-1,0.8c-0.2,0.3-0.3,0.6-0.3,1
			c0,0.3,0.1,0.6,0.2,0.9c0.1,0.3,0.3,0.5,0.5,0.6c0.2,0.2,0.4,0.3,0.7,0.4c0.3,0.1,0.5,0.1,0.9,0.1c0.4,0,0.8,0,1.1-0.1
			c0.3-0.1,0.7-0.2,1-0.4s0.6-0.3,0.9-0.6c0.3-0.2,0.5-0.5,0.8-0.7V19.2z"/>
		<path class="st1" d="M343.7,14.6c0.4-0.9,0.9-1.6,1.5-2.1c0.6-0.5,1.3-0.8,2.2-0.8c0.3,0,0.5,0,0.8,0.1c0.3,0.1,0.5,0.2,0.7,0.3
			l-0.2,1.7c-0.1,0.2-0.2,0.3-0.4,0.3c-0.1,0-0.3,0-0.5-0.1c-0.2-0.1-0.5-0.1-0.8-0.1c-0.4,0-0.8,0.1-1.1,0.2
			c-0.3,0.1-0.6,0.3-0.9,0.5c-0.3,0.2-0.5,0.5-0.7,0.9c-0.2,0.4-0.4,0.8-0.6,1.2v8.3h-2.3V11.9h1.3c0.3,0,0.4,0,0.5,0.1
			c0.1,0.1,0.2,0.3,0.2,0.5L343.7,14.6z"/>
		<path class="st1" d="M363.2,25.1h-2.3V13.9h-6.8v7.9c0,0.6,0.1,1,0.4,1.2c0.3,0.3,0.6,0.4,1,0.4c0.2,0,0.5,0,0.6-0.1
			c0.2-0.1,0.3-0.1,0.5-0.2c0.1-0.1,0.2-0.1,0.3-0.2c0.1-0.1,0.2-0.1,0.2-0.1c0.1,0,0.2,0.1,0.3,0.2l0.7,1.1
			c-0.4,0.4-0.9,0.7-1.4,0.9c-0.6,0.2-1.1,0.3-1.7,0.3c-1,0-1.8-0.3-2.4-0.9c-0.6-0.6-0.8-1.4-0.8-2.5v-8.1h-1.6
			c-0.1,0-0.3,0-0.4-0.1c-0.1-0.1-0.1-0.2-0.1-0.4v-0.9l2.2-0.3l0.5-4.1c0-0.1,0.1-0.2,0.2-0.3c0.1-0.1,0.2-0.1,0.4-0.1h1.2v4.5h9.1
			V25.1z M363.8,7.7c0,0.2,0,0.4-0.1,0.6c-0.1,0.2-0.2,0.4-0.4,0.5c-0.2,0.1-0.3,0.3-0.5,0.4c-0.2,0.1-0.4,0.1-0.6,0.1
			c-0.2,0-0.4,0-0.6-0.1c-0.2-0.1-0.4-0.2-0.5-0.4c-0.1-0.1-0.3-0.3-0.4-0.5c-0.1-0.2-0.1-0.4-0.1-0.6c0-0.2,0-0.4,0.1-0.6
			c0.1-0.2,0.2-0.4,0.4-0.5c0.1-0.2,0.3-0.3,0.5-0.4c0.2-0.1,0.4-0.1,0.6-0.1c0.2,0,0.4,0,0.6,0.1c0.2,0.1,0.4,0.2,0.5,0.4
			c0.2,0.2,0.3,0.3,0.4,0.5C363.7,7.2,363.8,7.5,363.8,7.7z"/>
		<path class="st1" d="M376.2,14.3c-0.1,0.1-0.1,0.2-0.2,0.2c-0.1,0.1-0.2,0.1-0.3,0.1c-0.1,0-0.3-0.1-0.4-0.2
			c-0.2-0.1-0.4-0.2-0.6-0.4c-0.2-0.1-0.5-0.2-0.8-0.4c-0.3-0.1-0.7-0.2-1.2-0.2c-0.7,0-1.2,0.1-1.7,0.3c-0.5,0.2-0.9,0.6-1.2,1
			c-0.3,0.4-0.6,1-0.8,1.6c-0.2,0.6-0.3,1.3-0.3,2.1c0,0.8,0.1,1.5,0.3,2.1c0.2,0.6,0.4,1.1,0.8,1.6c0.3,0.4,0.7,0.7,1.2,1
			c0.5,0.2,1,0.3,1.6,0.3c0.6,0,1-0.1,1.4-0.2c0.4-0.1,0.7-0.3,0.9-0.4s0.4-0.3,0.6-0.4c0.2-0.1,0.3-0.2,0.5-0.2
			c0.2,0,0.3,0.1,0.4,0.2l0.7,0.8c-0.3,0.4-0.6,0.7-1,0.9c-0.4,0.3-0.8,0.5-1.2,0.6c-0.4,0.2-0.9,0.3-1.3,0.4
			c-0.5,0.1-0.9,0.1-1.4,0.1c-0.8,0-1.6-0.2-2.3-0.5s-1.3-0.7-1.8-1.3s-0.9-1.3-1.2-2.1c-0.3-0.8-0.4-1.8-0.4-2.9
			c0-1,0.1-1.9,0.4-2.7c0.3-0.8,0.7-1.6,1.2-2.2c0.5-0.6,1.2-1.1,1.9-1.4c0.8-0.3,1.7-0.5,2.6-0.5c0.9,0,1.7,0.1,2.5,0.4
			c0.7,0.3,1.3,0.7,1.9,1.3L376.2,14.3z"/>
		<path class="st1" d="M382.4,7.8c0,0.2,0,0.4-0.1,0.6c-0.1,0.2-0.2,0.4-0.4,0.5c-0.2,0.2-0.3,0.3-0.5,0.4c-0.2,0.1-0.4,0.1-0.6,0.1
			c-0.2,0-0.4,0-0.6-0.1c-0.2-0.1-0.4-0.2-0.5-0.4c-0.1-0.2-0.3-0.3-0.4-0.5c-0.1-0.2-0.1-0.4-0.1-0.6c0-0.2,0-0.4,0.1-0.6
			c0.1-0.2,0.2-0.4,0.4-0.5c0.1-0.2,0.3-0.3,0.5-0.4c0.2-0.1,0.4-0.1,0.6-0.1c0.2,0,0.4,0,0.6,0.1c0.2,0.1,0.4,0.2,0.5,0.4
			c0.2,0.2,0.3,0.3,0.4,0.5C382.3,7.3,382.4,7.6,382.4,7.8z M381.9,11.9v13.2h-2.3V11.9H381.9z"/>
		<path class="st1" d="M387.9,14c0.6-0.7,1.2-1.2,1.9-1.7c0.7-0.4,1.6-0.6,2.5-0.6c0.8,0,1.5,0.1,2.1,0.4c0.6,0.3,1.1,0.7,1.6,1.3
			c0.4,0.6,0.8,1.3,1,2.1c0.2,0.8,0.4,1.8,0.4,2.9c0,1-0.1,1.9-0.4,2.7c-0.3,0.8-0.6,1.6-1.1,2.2c-0.5,0.6-1.1,1.1-1.8,1.4
			c-0.7,0.4-1.5,0.5-2.4,0.5c-0.8,0-1.5-0.1-2.1-0.4c-0.6-0.3-1.1-0.7-1.5-1.1v5.8h-2.3V11.9h1.4c0.3,0,0.5,0.2,0.6,0.5L387.9,14z
			 M388,21.9c0.4,0.6,0.9,1,1.4,1.2c0.5,0.2,1.1,0.4,1.7,0.4c1.2,0,2.2-0.4,2.8-1.3c0.7-0.9,1-2.1,1-3.7c0-0.9-0.1-1.6-0.2-2.2
			c-0.2-0.6-0.4-1.1-0.7-1.5c-0.3-0.4-0.6-0.7-1.1-0.9s-0.9-0.3-1.4-0.3c-0.8,0-1.4,0.2-2,0.5c-0.6,0.3-1.1,0.8-1.6,1.5V21.9z"/>
		<path class="st1" d="M399.9,13.8c0.7-0.7,1.5-1.2,2.4-1.6c0.8-0.3,1.8-0.5,2.8-0.5c0.7,0,1.4,0.1,2,0.4c0.6,0.2,1.1,0.6,1.4,1
			c0.4,0.4,0.7,1,0.9,1.6c0.2,0.6,0.3,1.3,0.3,2v8.4h-1c-0.2,0-0.4,0-0.5-0.1c-0.1-0.1-0.2-0.2-0.3-0.4l-0.3-1.2
			c-0.3,0.3-0.7,0.6-1,0.9c-0.3,0.2-0.7,0.5-1,0.6c-0.4,0.2-0.8,0.3-1.2,0.4c-0.4,0.1-0.9,0.1-1.4,0.1c-0.5,0-1-0.1-1.4-0.2
			c-0.5-0.1-0.8-0.4-1.2-0.6c-0.3-0.3-0.6-0.6-0.8-1.1c-0.2-0.4-0.3-1-0.3-1.6c0-0.5,0.1-1,0.4-1.5c0.3-0.5,0.7-0.9,1.4-1.3
			c0.6-0.4,1.5-0.7,2.5-0.9c1-0.2,2.3-0.4,3.8-0.4v-1c0-1-0.2-1.8-0.7-2.3c-0.4-0.5-1.1-0.8-1.9-0.8c-0.6,0-1.1,0.1-1.4,0.2
			c-0.4,0.1-0.7,0.3-1,0.5c-0.3,0.2-0.5,0.3-0.7,0.5c-0.2,0.1-0.4,0.2-0.6,0.2c-0.2,0-0.3,0-0.4-0.1s-0.2-0.2-0.3-0.3L399.9,13.8z
			 M407.4,19.2c-1.1,0-2,0.1-2.7,0.3c-0.7,0.1-1.4,0.3-1.8,0.5c-0.5,0.2-0.8,0.5-1,0.8c-0.2,0.3-0.3,0.6-0.3,1
			c0,0.3,0.1,0.6,0.2,0.9c0.1,0.3,0.3,0.5,0.5,0.6c0.2,0.2,0.4,0.3,0.7,0.4c0.3,0.1,0.5,0.1,0.9,0.1c0.4,0,0.8,0,1.1-0.1
			c0.3-0.1,0.7-0.2,1-0.4s0.6-0.3,0.9-0.6c0.3-0.2,0.5-0.5,0.8-0.7V19.2z"/>
		<path class="st1" d="M425.3,25.1H423V13.9h-6.8v7.9c0,0.6,0.1,1,0.4,1.2c0.3,0.3,0.6,0.4,1,0.4c0.2,0,0.5,0,0.6-0.1
			c0.2-0.1,0.3-0.1,0.5-0.2c0.1-0.1,0.2-0.1,0.3-0.2c0.1-0.1,0.2-0.1,0.2-0.1c0.1,0,0.2,0.1,0.3,0.2l0.7,1.1
			c-0.4,0.4-0.9,0.7-1.4,0.9c-0.6,0.2-1.1,0.3-1.7,0.3c-1,0-1.8-0.3-2.4-0.9c-0.6-0.6-0.8-1.4-0.8-2.5v-8.1h-1.6
			c-0.1,0-0.3,0-0.4-0.1c-0.1-0.1-0.1-0.2-0.1-0.4v-0.9l2.2-0.3l0.5-4.1c0-0.1,0.1-0.2,0.2-0.3c0.1-0.1,0.2-0.1,0.4-0.1h1.2v4.5h9.1
			V25.1z M425.8,7.7c0,0.2,0,0.4-0.1,0.6c-0.1,0.2-0.2,0.4-0.4,0.5c-0.2,0.1-0.3,0.3-0.5,0.4s-0.4,0.1-0.6,0.1c-0.2,0-0.4,0-0.6-0.1
			c-0.2-0.1-0.4-0.2-0.5-0.4c-0.1-0.1-0.3-0.3-0.4-0.5c-0.1-0.2-0.1-0.4-0.1-0.6c0-0.2,0-0.4,0.1-0.6c0.1-0.2,0.2-0.4,0.4-0.5
			c0.1-0.2,0.3-0.3,0.5-0.4c0.2-0.1,0.4-0.1,0.6-0.1c0.2,0,0.4,0,0.6,0.1s0.4,0.2,0.5,0.4c0.2,0.2,0.3,0.3,0.4,0.5
			C425.8,7.2,425.8,7.5,425.8,7.7z"/>
		<path class="st1" d="M434.6,11.7c1,0,1.8,0.2,2.6,0.5c0.8,0.3,1.4,0.8,2,1.4c0.5,0.6,1,1.3,1.3,2.1c0.3,0.8,0.4,1.8,0.4,2.8
			c0,1-0.1,2-0.4,2.8c-0.3,0.8-0.7,1.5-1.3,2.1c-0.5,0.6-1.2,1-2,1.4c-0.8,0.3-1.6,0.5-2.6,0.5c-1,0-1.8-0.2-2.6-0.5
			c-0.8-0.3-1.4-0.8-2-1.4c-0.5-0.6-1-1.3-1.3-2.1c-0.3-0.8-0.4-1.8-0.4-2.8c0-1,0.1-2,0.4-2.8c0.3-0.8,0.7-1.6,1.3-2.1
			c0.5-0.6,1.2-1,2-1.4C432.8,11.9,433.7,11.7,434.6,11.7z M434.6,23.5c1.3,0,2.3-0.4,2.9-1.3c0.6-0.9,1-2.1,1-3.7
			c0-1.6-0.3-2.8-1-3.7c-0.6-0.9-1.6-1.3-2.9-1.3c-0.7,0-1.2,0.1-1.7,0.3c-0.5,0.2-0.9,0.6-1.2,1c-0.3,0.4-0.6,0.9-0.7,1.6
			c-0.2,0.6-0.2,1.3-0.2,2.1c0,1.6,0.3,2.8,1,3.7C432.3,23,433.3,23.5,434.6,23.5z"/>
		<path class="st1" d="M446,13.8c0.3-0.3,0.6-0.6,0.9-0.9c0.3-0.3,0.7-0.5,1-0.7c0.4-0.2,0.7-0.3,1.1-0.4c0.4-0.1,0.8-0.1,1.3-0.1
			c0.7,0,1.4,0.1,1.9,0.4c0.6,0.2,1,0.6,1.4,1c0.4,0.4,0.6,1,0.8,1.6c0.2,0.6,0.3,1.3,0.3,2v8.4h-2.3v-8.4c0-1-0.2-1.8-0.7-2.3
			c-0.5-0.6-1.1-0.8-2.1-0.8c-0.7,0-1.3,0.2-1.9,0.5c-0.6,0.3-1.1,0.8-1.6,1.3v9.7h-2.3V11.9h1.4c0.3,0,0.5,0.2,0.6,0.5L446,13.8z"
			/>
	</g>
	<g>
		<path class="st0" d="M74.3,68.3h-2c-0.2,0-0.4-0.1-0.5-0.2c-0.1-0.1-0.2-0.3-0.3-0.4l-1.7-4.5h-8.4l-1.7,4.5
			c-0.1,0.2-0.2,0.3-0.3,0.4c-0.1,0.1-0.3,0.2-0.5,0.2h-2l7.5-18.6h2.6L74.3,68.3z M69,61.4l-2.9-7.6c-0.1-0.2-0.2-0.5-0.3-0.8
			c-0.1-0.3-0.2-0.6-0.3-1c-0.2,0.7-0.4,1.3-0.6,1.8l-2.9,7.6H69z"/>
		<path class="st0" d="M89.4,64.4c0.1,0,0.3,0.1,0.4,0.2l1,1.1C90,66.6,89,67.2,88,67.7c-1.1,0.5-2.4,0.7-3.9,0.7
			c-1.3,0-2.6-0.2-3.6-0.7c-1.1-0.5-2-1.1-2.8-2c-0.8-0.8-1.4-1.8-1.8-3s-0.6-2.5-0.6-3.9c0-1.4,0.2-2.7,0.7-3.9
			c0.4-1.2,1.1-2.2,1.9-3c0.8-0.8,1.8-1.5,2.9-2c1.1-0.5,2.4-0.7,3.7-0.7c1.3,0,2.5,0.2,3.5,0.6c1,0.4,1.9,1,2.7,1.7l-0.8,1.2
			c-0.1,0.1-0.1,0.2-0.2,0.2s-0.2,0.1-0.3,0.1c-0.2,0-0.3-0.1-0.6-0.3c-0.2-0.2-0.5-0.4-0.9-0.6c-0.4-0.2-0.8-0.4-1.4-0.6
			c-0.5-0.2-1.2-0.3-2-0.3c-1,0-1.8,0.2-2.6,0.5c-0.8,0.3-1.5,0.8-2.1,1.5c-0.6,0.6-1,1.4-1.3,2.3c-0.3,0.9-0.5,1.9-0.5,3.1
			c0,1.2,0.2,2.2,0.5,3.1c0.3,0.9,0.8,1.7,1.4,2.3c0.6,0.6,1.3,1.1,2,1.4c0.8,0.3,1.6,0.5,2.5,0.5c0.6,0,1.1,0,1.5-0.1
			c0.4-0.1,0.9-0.2,1.2-0.3c0.4-0.1,0.7-0.3,1.1-0.5c0.3-0.2,0.6-0.5,1-0.8C89.1,64.5,89.2,64.4,89.4,64.4z"/>
		<path class="st0" d="M106.4,64.4c0.1,0,0.3,0.1,0.4,0.2l1,1.1c-0.8,0.9-1.7,1.6-2.8,2.1c-1.1,0.5-2.4,0.7-3.9,0.7
			c-1.3,0-2.6-0.2-3.6-0.7c-1.1-0.5-2-1.1-2.8-2c-0.8-0.8-1.4-1.8-1.8-3s-0.6-2.5-0.6-3.9c0-1.4,0.2-2.7,0.7-3.9
			c0.4-1.2,1.1-2.2,1.9-3c0.8-0.8,1.8-1.5,2.9-2c1.1-0.5,2.4-0.7,3.7-0.7c1.3,0,2.5,0.2,3.5,0.6c1,0.4,1.9,1,2.7,1.7l-0.8,1.2
			c-0.1,0.1-0.1,0.2-0.2,0.2s-0.2,0.1-0.3,0.1c-0.2,0-0.3-0.1-0.6-0.3c-0.2-0.2-0.5-0.4-0.9-0.6c-0.4-0.2-0.8-0.4-1.4-0.6
			c-0.5-0.2-1.2-0.3-2-0.3c-1,0-1.8,0.2-2.6,0.5c-0.8,0.3-1.5,0.8-2.1,1.5c-0.6,0.6-1,1.4-1.3,2.3c-0.3,0.9-0.5,1.9-0.5,3.1
			c0,1.2,0.2,2.2,0.5,3.1c0.3,0.9,0.8,1.7,1.4,2.3c0.6,0.6,1.3,1.1,2,1.4c0.8,0.3,1.6,0.5,2.5,0.5c0.6,0,1.1,0,1.5-0.1
			c0.4-0.1,0.9-0.2,1.2-0.3c0.4-0.1,0.7-0.3,1.1-0.5c0.3-0.2,0.6-0.5,1-0.8C106.1,64.5,106.2,64.4,106.4,64.4z"/>
		<path class="st0" d="M122.2,66.2l0,2.1h-11.5V49.6h11.5v2.1h-9v6.2h7.3v2h-7.3v6.4H122.2z"/>
		<path class="st0" d="M135.2,52.5c-0.1,0.1-0.2,0.2-0.3,0.3c-0.1,0.1-0.2,0.1-0.3,0.1c-0.1,0-0.3-0.1-0.5-0.2
			c-0.2-0.1-0.4-0.3-0.7-0.5c-0.3-0.2-0.7-0.3-1.1-0.5c-0.4-0.1-0.9-0.2-1.5-0.2c-0.6,0-1.1,0.1-1.5,0.2c-0.4,0.2-0.8,0.4-1.1,0.6
			c-0.3,0.3-0.5,0.6-0.7,0.9c-0.1,0.4-0.2,0.7-0.2,1.1c0,0.5,0.1,1,0.4,1.3c0.3,0.3,0.6,0.6,1,0.9s0.9,0.5,1.4,0.6
			c0.5,0.2,1.1,0.4,1.6,0.6c0.6,0.2,1.1,0.4,1.6,0.6c0.5,0.2,1,0.5,1.4,0.9s0.8,0.8,1,1.3c0.3,0.5,0.4,1.2,0.4,2
			c0,0.8-0.1,1.6-0.4,2.3c-0.3,0.7-0.7,1.3-1.2,1.9c-0.5,0.5-1.2,0.9-2,1.2c-0.8,0.3-1.7,0.5-2.6,0.5c-1.2,0-2.3-0.2-3.3-0.7
			c-1-0.4-1.8-1-2.5-1.8l0.7-1.2c0.1-0.1,0.2-0.2,0.3-0.2c0.1-0.1,0.2-0.1,0.3-0.1c0.1,0,0.2,0,0.4,0.1s0.3,0.2,0.5,0.3
			c0.2,0.1,0.4,0.3,0.6,0.5c0.2,0.2,0.5,0.3,0.8,0.5c0.3,0.1,0.6,0.3,1,0.3c0.4,0.1,0.8,0.1,1.3,0.1c0.6,0,1.1-0.1,1.6-0.2
			c0.5-0.2,0.9-0.4,1.2-0.7c0.3-0.3,0.6-0.7,0.7-1.1c0.2-0.4,0.3-0.9,0.3-1.4c0-0.6-0.1-1-0.4-1.4c-0.3-0.4-0.6-0.7-1-0.9
			c-0.4-0.2-0.9-0.4-1.4-0.6c-0.5-0.2-1.1-0.3-1.6-0.5c-0.6-0.2-1.1-0.4-1.6-0.6c-0.5-0.2-1-0.5-1.4-0.9c-0.4-0.4-0.8-0.8-1-1.4
			c-0.3-0.6-0.4-1.3-0.4-2.1c0-0.7,0.1-1.3,0.4-1.9c0.3-0.6,0.6-1.2,1.1-1.6c0.5-0.5,1.1-0.9,1.8-1.1c0.7-0.3,1.5-0.4,2.5-0.4
			c1,0,2,0.2,2.8,0.5c0.9,0.3,1.6,0.8,2.3,1.4L135.2,52.5z"/>
		<path class="st0" d="M149.4,52.5c-0.1,0.1-0.2,0.2-0.3,0.3c-0.1,0.1-0.2,0.1-0.3,0.1c-0.1,0-0.3-0.1-0.5-0.2
			c-0.2-0.1-0.4-0.3-0.7-0.5s-0.7-0.3-1.1-0.5c-0.4-0.1-0.9-0.2-1.5-0.2c-0.6,0-1.1,0.1-1.5,0.2c-0.4,0.2-0.8,0.4-1.1,0.6
			c-0.3,0.3-0.5,0.6-0.7,0.9c-0.1,0.4-0.2,0.7-0.2,1.1c0,0.5,0.1,1,0.4,1.3c0.3,0.3,0.6,0.6,1,0.9s0.9,0.5,1.4,0.6s1.1,0.4,1.6,0.6
			c0.6,0.2,1.1,0.4,1.6,0.6c0.5,0.2,1,0.5,1.4,0.9s0.8,0.8,1,1.3c0.3,0.5,0.4,1.2,0.4,2c0,0.8-0.1,1.6-0.4,2.3
			c-0.3,0.7-0.7,1.3-1.2,1.9c-0.5,0.5-1.2,0.9-2,1.2c-0.8,0.3-1.7,0.5-2.6,0.5c-1.2,0-2.3-0.2-3.3-0.7c-1-0.4-1.8-1-2.5-1.8l0.7-1.2
			c0.1-0.1,0.2-0.2,0.3-0.2c0.1-0.1,0.2-0.1,0.3-0.1c0.1,0,0.2,0,0.4,0.1c0.1,0.1,0.3,0.2,0.5,0.3c0.2,0.1,0.4,0.3,0.6,0.5
			c0.2,0.2,0.5,0.3,0.8,0.5c0.3,0.1,0.6,0.3,1,0.3c0.4,0.1,0.8,0.1,1.3,0.1c0.6,0,1.1-0.1,1.6-0.2c0.5-0.2,0.9-0.4,1.2-0.7
			c0.3-0.3,0.6-0.7,0.7-1.1c0.2-0.4,0.3-0.9,0.3-1.4c0-0.6-0.1-1-0.4-1.4c-0.3-0.4-0.6-0.7-1-0.9c-0.4-0.2-0.9-0.4-1.4-0.6
			c-0.5-0.2-1.1-0.3-1.6-0.5c-0.6-0.2-1.1-0.4-1.6-0.6c-0.5-0.2-1-0.5-1.4-0.9c-0.4-0.4-0.8-0.8-1-1.4c-0.3-0.6-0.4-1.3-0.4-2.1
			c0-0.7,0.1-1.3,0.4-1.9c0.3-0.6,0.6-1.2,1.1-1.6c0.5-0.5,1.1-0.9,1.8-1.1c0.7-0.3,1.5-0.4,2.5-0.4c1,0,2,0.2,2.8,0.5
			c0.9,0.3,1.6,0.8,2.3,1.4L149.4,52.5z"/>
		<path class="st0" d="M165.4,66.2l0,2.1h-11.5V49.6h11.5v2.1h-9v6.2h7.3v2h-7.3v6.4H165.4z"/>
		<path class="st0" d="M178.5,52.5c-0.1,0.1-0.2,0.2-0.3,0.3c-0.1,0.1-0.2,0.1-0.3,0.1c-0.1,0-0.3-0.1-0.5-0.2
			c-0.2-0.1-0.4-0.3-0.7-0.5c-0.3-0.2-0.7-0.3-1.1-0.5c-0.4-0.1-0.9-0.2-1.5-0.2c-0.6,0-1.1,0.1-1.5,0.2c-0.4,0.2-0.8,0.4-1.1,0.6
			c-0.3,0.3-0.5,0.6-0.7,0.9c-0.1,0.4-0.2,0.7-0.2,1.1c0,0.5,0.1,1,0.4,1.3c0.3,0.3,0.6,0.6,1,0.9s0.9,0.5,1.4,0.6
			c0.5,0.2,1.1,0.4,1.6,0.6c0.6,0.2,1.1,0.4,1.6,0.6c0.5,0.2,1,0.5,1.4,0.9s0.8,0.8,1,1.3c0.3,0.5,0.4,1.2,0.4,2
			c0,0.8-0.1,1.6-0.4,2.3c-0.3,0.7-0.7,1.3-1.2,1.9c-0.5,0.5-1.2,0.9-2,1.2c-0.8,0.3-1.7,0.5-2.6,0.5c-1.2,0-2.3-0.2-3.3-0.7
			c-1-0.4-1.8-1-2.5-1.8l0.7-1.2c0.1-0.1,0.2-0.2,0.3-0.2c0.1-0.1,0.2-0.1,0.3-0.1c0.1,0,0.2,0,0.4,0.1s0.3,0.2,0.5,0.3
			c0.2,0.1,0.4,0.3,0.6,0.5c0.2,0.2,0.5,0.3,0.8,0.5c0.3,0.1,0.6,0.3,1,0.3c0.4,0.1,0.8,0.1,1.3,0.1c0.6,0,1.1-0.1,1.6-0.2
			c0.5-0.2,0.9-0.4,1.2-0.7c0.3-0.3,0.6-0.7,0.7-1.1c0.2-0.4,0.3-0.9,0.3-1.4c0-0.6-0.1-1-0.4-1.4c-0.3-0.4-0.6-0.7-1-0.9
			c-0.4-0.2-0.9-0.4-1.4-0.6c-0.5-0.2-1.1-0.3-1.6-0.5c-0.6-0.2-1.1-0.4-1.6-0.6c-0.5-0.2-1-0.5-1.4-0.9c-0.4-0.4-0.8-0.8-1-1.4
			c-0.3-0.6-0.4-1.3-0.4-2.1c0-0.7,0.1-1.3,0.4-1.9c0.3-0.6,0.6-1.2,1.1-1.6c0.5-0.5,1.1-0.9,1.8-1.1c0.7-0.3,1.5-0.4,2.5-0.4
			c1,0,2,0.2,2.8,0.5c0.9,0.3,1.6,0.8,2.3,1.4L178.5,52.5z"/>
		<path class="st1" d="M194.8,54.9c1,0,1.8,0.2,2.6,0.5c0.8,0.3,1.4,0.8,2,1.4c0.5,0.6,1,1.3,1.3,2.1s0.4,1.8,0.4,2.8
			c0,1-0.1,2-0.4,2.8c-0.3,0.8-0.7,1.5-1.3,2.1c-0.5,0.6-1.2,1-2,1.4c-0.8,0.3-1.6,0.5-2.6,0.5c-1,0-1.8-0.2-2.6-0.5
			c-0.8-0.3-1.4-0.8-2-1.4c-0.5-0.6-1-1.3-1.3-2.1c-0.3-0.8-0.4-1.8-0.4-2.8c0-1,0.1-2,0.4-2.8c0.3-0.8,0.7-1.6,1.3-2.1
			c0.5-0.6,1.2-1,2-1.4C192.9,55,193.8,54.9,194.8,54.9z M194.8,66.6c1.3,0,2.3-0.4,2.9-1.3c0.6-0.9,1-2.1,1-3.7
			c0-1.6-0.3-2.8-1-3.7c-0.6-0.9-1.6-1.3-2.9-1.3c-0.7,0-1.2,0.1-1.7,0.3c-0.5,0.2-0.9,0.6-1.2,1c-0.3,0.4-0.6,0.9-0.7,1.6
			c-0.2,0.6-0.2,1.3-0.2,2.1c0,1.6,0.3,2.8,1,3.7C192.4,66.2,193.4,66.6,194.8,66.6z"/>
		<path class="st1" d="M213.1,57.4c-0.1,0.1-0.1,0.2-0.2,0.2c-0.1,0.1-0.2,0.1-0.3,0.1c-0.1,0-0.3-0.1-0.4-0.2
			c-0.2-0.1-0.3-0.2-0.6-0.4c-0.2-0.1-0.5-0.2-0.8-0.4s-0.7-0.2-1.2-0.2c-0.7,0-1.2,0.1-1.7,0.3c-0.5,0.2-0.9,0.6-1.2,1
			c-0.3,0.4-0.6,1-0.8,1.6c-0.2,0.6-0.3,1.3-0.3,2.1c0,0.8,0.1,1.5,0.3,2.1c0.2,0.6,0.4,1.1,0.8,1.6c0.3,0.4,0.7,0.7,1.2,1
			c0.5,0.2,1,0.3,1.6,0.3c0.6,0,1-0.1,1.4-0.2c0.4-0.1,0.7-0.3,0.9-0.4s0.4-0.3,0.6-0.4c0.2-0.1,0.3-0.2,0.5-0.2
			c0.2,0,0.3,0.1,0.4,0.2l0.7,0.8c-0.3,0.4-0.6,0.7-1,0.9c-0.4,0.3-0.8,0.5-1.2,0.6c-0.4,0.2-0.9,0.3-1.3,0.4
			c-0.5,0.1-0.9,0.1-1.4,0.1c-0.8,0-1.6-0.2-2.3-0.5c-0.7-0.3-1.3-0.7-1.8-1.3c-0.5-0.6-0.9-1.3-1.2-2.1c-0.3-0.8-0.4-1.8-0.4-2.9
			c0-1,0.1-1.9,0.4-2.7c0.3-0.8,0.7-1.6,1.2-2.2c0.5-0.6,1.2-1.1,1.9-1.4c0.8-0.3,1.7-0.5,2.6-0.5c0.9,0,1.7,0.1,2.5,0.4
			c0.7,0.3,1.3,0.7,1.9,1.3L213.1,57.4z"/>
		<path class="st1" d="M225.3,57.4c-0.1,0.1-0.1,0.2-0.2,0.2c-0.1,0.1-0.2,0.1-0.3,0.1c-0.1,0-0.3-0.1-0.4-0.2
			c-0.2-0.1-0.3-0.2-0.6-0.4c-0.2-0.1-0.5-0.2-0.8-0.4s-0.7-0.2-1.2-0.2c-0.7,0-1.2,0.1-1.7,0.3c-0.5,0.2-0.9,0.6-1.2,1
			c-0.3,0.4-0.6,1-0.8,1.6c-0.2,0.6-0.3,1.3-0.3,2.1c0,0.8,0.1,1.5,0.3,2.1c0.2,0.6,0.4,1.1,0.8,1.6c0.3,0.4,0.7,0.7,1.2,1
			c0.5,0.2,1,0.3,1.6,0.3c0.6,0,1-0.1,1.4-0.2c0.4-0.1,0.7-0.3,0.9-0.4s0.4-0.3,0.6-0.4c0.2-0.1,0.3-0.2,0.5-0.2
			c0.2,0,0.3,0.1,0.4,0.2l0.7,0.8c-0.3,0.4-0.6,0.7-1,0.9c-0.4,0.3-0.8,0.5-1.2,0.6c-0.4,0.2-0.9,0.3-1.3,0.4
			c-0.5,0.1-0.9,0.1-1.4,0.1c-0.8,0-1.6-0.2-2.3-0.5c-0.7-0.3-1.3-0.7-1.8-1.3c-0.5-0.6-0.9-1.3-1.2-2.1c-0.3-0.8-0.4-1.8-0.4-2.9
			c0-1,0.1-1.9,0.4-2.7c0.3-0.8,0.7-1.6,1.2-2.2c0.5-0.6,1.2-1.1,1.9-1.4c0.8-0.3,1.7-0.5,2.6-0.5c0.9,0,1.7,0.1,2.5,0.4
			c0.7,0.3,1.3,0.7,1.9,1.3L225.3,57.4z"/>
		<path class="st1" d="M239.4,55.1v13.2H238c-0.3,0-0.5-0.2-0.6-0.5l-0.2-1.4c-0.6,0.6-1.2,1.1-1.9,1.5c-0.7,0.4-1.5,0.6-2.4,0.6
			c-0.7,0-1.4-0.1-1.9-0.4c-0.6-0.2-1-0.6-1.4-1c-0.4-0.4-0.7-1-0.8-1.6c-0.2-0.6-0.3-1.3-0.3-2v-8.4h2.3v8.4c0,1,0.2,1.8,0.7,2.3
			c0.5,0.5,1.2,0.8,2.1,0.8c0.7,0,1.3-0.2,1.9-0.5c0.6-0.3,1.1-0.8,1.6-1.3v-9.7H239.4z"/>
		<path class="st1" d="M245.3,57.1c0.6-0.7,1.2-1.2,1.9-1.7c0.7-0.4,1.6-0.6,2.5-0.6c0.8,0,1.5,0.1,2.1,0.4c0.6,0.3,1.1,0.7,1.6,1.3
			c0.4,0.6,0.8,1.3,1,2.1c0.2,0.8,0.4,1.8,0.4,2.9c0,1-0.1,1.9-0.4,2.7c-0.3,0.8-0.6,1.6-1.1,2.2c-0.5,0.6-1.1,1.1-1.8,1.4
			c-0.7,0.4-1.5,0.5-2.4,0.5c-0.8,0-1.5-0.1-2.1-0.4c-0.6-0.3-1.1-0.7-1.5-1.1v5.8h-2.3V55.1h1.4c0.3,0,0.5,0.2,0.6,0.5L245.3,57.1z
			 M245.4,65.1c0.4,0.6,0.9,1,1.4,1.2c0.5,0.2,1.1,0.4,1.7,0.4c1.2,0,2.2-0.4,2.8-1.3c0.7-0.9,1-2.1,1-3.7c0-0.9-0.1-1.6-0.2-2.2
			c-0.2-0.6-0.4-1.1-0.7-1.5c-0.3-0.4-0.6-0.7-1.1-0.9c-0.4-0.2-0.9-0.3-1.4-0.3c-0.8,0-1.4,0.2-2,0.5c-0.6,0.3-1.1,0.8-1.6,1.5
			V65.1z"/>
		<path class="st1" d="M257.3,57c0.7-0.7,1.5-1.2,2.4-1.6c0.8-0.3,1.8-0.5,2.8-0.5c0.7,0,1.4,0.1,2,0.4c0.6,0.2,1.1,0.6,1.4,1
			c0.4,0.4,0.7,1,0.9,1.6c0.2,0.6,0.3,1.3,0.3,2v8.4h-1c-0.2,0-0.4,0-0.5-0.1c-0.1-0.1-0.2-0.2-0.3-0.4l-0.3-1.2
			c-0.3,0.3-0.7,0.6-1,0.9c-0.3,0.2-0.7,0.5-1,0.6c-0.4,0.2-0.8,0.3-1.2,0.4c-0.4,0.1-0.9,0.1-1.4,0.1c-0.5,0-1-0.1-1.4-0.2
			c-0.5-0.1-0.8-0.4-1.2-0.6c-0.3-0.3-0.6-0.6-0.8-1.1c-0.2-0.4-0.3-1-0.3-1.6c0-0.5,0.1-1,0.4-1.5c0.3-0.5,0.8-0.9,1.4-1.3
			c0.6-0.4,1.5-0.7,2.5-0.9c1-0.2,2.3-0.4,3.8-0.4v-1c0-1-0.2-1.8-0.7-2.3c-0.4-0.5-1.1-0.8-1.9-0.8c-0.6,0-1.1,0.1-1.4,0.2
			c-0.4,0.1-0.7,0.3-1,0.5c-0.3,0.2-0.5,0.3-0.7,0.5c-0.2,0.1-0.4,0.2-0.6,0.2c-0.2,0-0.3,0-0.4-0.1c-0.1-0.1-0.2-0.2-0.3-0.3
			L257.3,57z M264.8,62.3c-1.1,0-2,0.1-2.7,0.3c-0.8,0.1-1.4,0.3-1.8,0.5c-0.5,0.2-0.8,0.5-1,0.8c-0.2,0.3-0.3,0.6-0.3,1
			c0,0.3,0.1,0.6,0.2,0.9c0.1,0.3,0.3,0.5,0.5,0.6c0.2,0.2,0.4,0.3,0.7,0.4c0.3,0.1,0.5,0.1,0.9,0.1c0.4,0,0.8,0,1.1-0.1
			c0.3-0.1,0.7-0.2,1-0.4s0.6-0.3,0.9-0.6c0.3-0.2,0.5-0.5,0.8-0.7V62.3z"/>
		<path class="st1" d="M282.6,68.3h-2.3V57h-6.8v7.9c0,0.6,0.1,1,0.4,1.2c0.3,0.3,0.6,0.4,1,0.4c0.2,0,0.5,0,0.6-0.1
			c0.2-0.1,0.3-0.1,0.5-0.2c0.1-0.1,0.2-0.1,0.3-0.2c0.1-0.1,0.2-0.1,0.2-0.1c0.1,0,0.2,0.1,0.3,0.2l0.7,1.1
			c-0.4,0.4-0.9,0.7-1.4,0.9c-0.6,0.2-1.1,0.3-1.7,0.3c-1,0-1.8-0.3-2.4-0.9c-0.6-0.6-0.8-1.4-0.8-2.5V57h-1.6c-0.1,0-0.3,0-0.4-0.1
			c-0.1-0.1-0.1-0.2-0.1-0.4v-0.9l2.2-0.3l0.5-4.1c0-0.1,0.1-0.2,0.2-0.3c0.1-0.1,0.2-0.1,0.4-0.1h1.2v4.5h9.1V68.3z M283.2,50.9
			c0,0.2,0,0.4-0.1,0.6c-0.1,0.2-0.2,0.4-0.4,0.5c-0.2,0.1-0.3,0.3-0.5,0.4c-0.2,0.1-0.4,0.1-0.6,0.1c-0.2,0-0.4,0-0.6-0.1
			c-0.2-0.1-0.4-0.2-0.5-0.4c-0.1-0.1-0.3-0.3-0.4-0.5c-0.1-0.2-0.1-0.4-0.1-0.6c0-0.2,0-0.4,0.1-0.6c0.1-0.2,0.2-0.4,0.4-0.5
			c0.1-0.2,0.3-0.3,0.5-0.4c0.2-0.1,0.4-0.1,0.6-0.1c0.2,0,0.4,0,0.6,0.1c0.2,0.1,0.4,0.2,0.5,0.4s0.3,0.3,0.4,0.5
			C283.2,50.4,283.2,50.6,283.2,50.9z"/>
		<path class="st1" d="M292,54.9c1,0,1.8,0.2,2.6,0.5c0.8,0.3,1.4,0.8,2,1.4c0.5,0.6,1,1.3,1.3,2.1c0.3,0.8,0.4,1.8,0.4,2.8
			c0,1-0.1,2-0.4,2.8c-0.3,0.8-0.7,1.5-1.3,2.1c-0.5,0.6-1.2,1-2,1.4c-0.8,0.3-1.6,0.5-2.6,0.5c-1,0-1.8-0.2-2.6-0.5
			c-0.8-0.3-1.4-0.8-2-1.4c-0.5-0.6-1-1.3-1.3-2.1c-0.3-0.8-0.4-1.8-0.4-2.8c0-1,0.1-2,0.4-2.8c0.3-0.8,0.7-1.6,1.3-2.1
			c0.5-0.6,1.2-1,2-1.4C290.2,55,291,54.9,292,54.9z M292,66.6c1.3,0,2.3-0.4,2.9-1.3c0.6-0.9,1-2.1,1-3.7c0-1.6-0.3-2.8-1-3.7
			c-0.6-0.9-1.6-1.3-2.9-1.3c-0.7,0-1.2,0.1-1.7,0.3c-0.5,0.2-0.9,0.6-1.2,1c-0.3,0.4-0.6,0.9-0.7,1.6c-0.2,0.6-0.2,1.3-0.2,2.1
			c0,1.6,0.3,2.8,1,3.7C289.7,66.2,290.7,66.6,292,66.6z"/>
		<path class="st1" d="M303.4,57c0.3-0.3,0.6-0.6,0.9-0.9c0.3-0.3,0.7-0.5,1-0.7c0.4-0.2,0.7-0.3,1.1-0.4c0.4-0.1,0.8-0.1,1.3-0.1
			c0.7,0,1.4,0.1,1.9,0.4c0.6,0.2,1,0.6,1.4,1c0.4,0.4,0.6,1,0.8,1.6c0.2,0.6,0.3,1.3,0.3,2v8.4h-2.3v-8.4c0-1-0.2-1.8-0.7-2.3
			c-0.5-0.6-1.1-0.8-2.1-0.8c-0.7,0-1.3,0.2-1.9,0.5c-0.6,0.3-1.1,0.8-1.6,1.3v9.7h-2.3V55.1h1.4c0.3,0,0.5,0.2,0.6,0.5L303.4,57z"
			/>
		<path class="st1" d="M315.4,57c0.7-0.7,1.5-1.2,2.4-1.6c0.8-0.3,1.8-0.5,2.8-0.5c0.7,0,1.4,0.1,2,0.4c0.6,0.2,1.1,0.6,1.4,1
			c0.4,0.4,0.7,1,0.9,1.6c0.2,0.6,0.3,1.3,0.3,2v8.4h-1c-0.2,0-0.4,0-0.5-0.1c-0.1-0.1-0.2-0.2-0.3-0.4l-0.3-1.2
			c-0.3,0.3-0.7,0.6-1,0.9c-0.3,0.2-0.7,0.5-1,0.6c-0.4,0.2-0.8,0.3-1.2,0.4s-0.9,0.1-1.4,0.1c-0.5,0-1-0.1-1.4-0.2
			c-0.5-0.1-0.8-0.4-1.2-0.6c-0.3-0.3-0.6-0.6-0.8-1.1c-0.2-0.4-0.3-1-0.3-1.6c0-0.5,0.1-1,0.4-1.5c0.3-0.5,0.7-0.9,1.4-1.3
			c0.6-0.4,1.5-0.7,2.5-0.9c1-0.2,2.3-0.4,3.8-0.4v-1c0-1-0.2-1.8-0.7-2.3c-0.4-0.5-1.1-0.8-1.9-0.8c-0.6,0-1.1,0.1-1.4,0.2
			c-0.4,0.1-0.7,0.3-1,0.5s-0.5,0.3-0.7,0.5c-0.2,0.1-0.4,0.2-0.6,0.2c-0.2,0-0.3,0-0.4-0.1s-0.2-0.2-0.3-0.3L315.4,57z M322.9,62.3
			c-1.1,0-2,0.1-2.7,0.3c-0.7,0.1-1.4,0.3-1.8,0.5c-0.5,0.2-0.8,0.5-1,0.8c-0.2,0.3-0.3,0.6-0.3,1c0,0.3,0.1,0.6,0.2,0.9
			c0.1,0.3,0.3,0.5,0.5,0.6c0.2,0.2,0.4,0.3,0.7,0.4c0.3,0.1,0.5,0.1,0.9,0.1c0.4,0,0.8,0,1.1-0.1s0.7-0.2,1-0.4s0.6-0.3,0.9-0.6
			c0.3-0.2,0.5-0.5,0.8-0.7V62.3z"/>
		<path class="st1" d="M331,49.1v19.2h-2.3V49.1H331z"/>
		<path class="st1" d="M343.7,57.1c0.6-0.7,1.2-1.2,1.9-1.7c0.7-0.4,1.6-0.6,2.5-0.6c0.8,0,1.5,0.1,2.1,0.4c0.6,0.3,1.1,0.7,1.6,1.3
			c0.4,0.6,0.8,1.3,1,2.1c0.2,0.8,0.4,1.8,0.4,2.9c0,1-0.1,1.9-0.4,2.7c-0.3,0.8-0.6,1.6-1.1,2.2c-0.5,0.6-1.1,1.1-1.8,1.4
			c-0.7,0.4-1.5,0.5-2.4,0.5c-0.8,0-1.5-0.1-2.1-0.4c-0.6-0.3-1.1-0.7-1.5-1.1v5.8h-2.3V55.1h1.4c0.3,0,0.5,0.2,0.6,0.5L343.7,57.1z
			 M343.8,65.1c0.4,0.6,0.9,1,1.4,1.2c0.5,0.2,1.1,0.4,1.7,0.4c1.2,0,2.2-0.4,2.8-1.3c0.7-0.9,1-2.1,1-3.7c0-0.9-0.1-1.6-0.2-2.2
			c-0.2-0.6-0.4-1.1-0.7-1.5c-0.3-0.4-0.6-0.7-1.1-0.9c-0.4-0.2-0.9-0.3-1.4-0.3c-0.8,0-1.4,0.2-2,0.5c-0.6,0.3-1.1,0.8-1.6,1.5
			V65.1z"/>
		<path class="st1" d="M355.7,57c0.7-0.7,1.5-1.2,2.4-1.6c0.8-0.3,1.8-0.5,2.8-0.5c0.7,0,1.4,0.1,2,0.4c0.6,0.2,1.1,0.6,1.4,1
			c0.4,0.4,0.7,1,0.9,1.6c0.2,0.6,0.3,1.3,0.3,2v8.4h-1c-0.2,0-0.4,0-0.5-0.1c-0.1-0.1-0.2-0.2-0.3-0.4l-0.3-1.2
			c-0.3,0.3-0.7,0.6-1,0.9c-0.3,0.2-0.7,0.5-1,0.6c-0.4,0.2-0.8,0.3-1.2,0.4s-0.9,0.1-1.4,0.1c-0.5,0-1-0.1-1.4-0.2
			c-0.5-0.1-0.8-0.4-1.2-0.6c-0.3-0.3-0.6-0.6-0.8-1.1c-0.2-0.4-0.3-1-0.3-1.6c0-0.5,0.1-1,0.4-1.5c0.3-0.5,0.7-0.9,1.4-1.3
			c0.6-0.4,1.5-0.7,2.5-0.9c1-0.2,2.3-0.4,3.8-0.4v-1c0-1-0.2-1.8-0.7-2.3c-0.4-0.5-1.1-0.8-1.9-0.8c-0.6,0-1.1,0.1-1.4,0.2
			c-0.4,0.1-0.7,0.3-1,0.5s-0.5,0.3-0.7,0.5c-0.2,0.1-0.4,0.2-0.6,0.2c-0.2,0-0.3,0-0.4-0.1c-0.1-0.1-0.2-0.2-0.3-0.3L355.7,57z
			 M363.2,62.3c-1.1,0-2,0.1-2.7,0.3c-0.7,0.1-1.4,0.3-1.8,0.5c-0.5,0.2-0.8,0.5-1,0.8c-0.2,0.3-0.3,0.6-0.3,1
			c0,0.3,0.1,0.6,0.2,0.9c0.1,0.3,0.3,0.5,0.5,0.6c0.2,0.2,0.4,0.3,0.7,0.4c0.3,0.1,0.5,0.1,0.9,0.1c0.4,0,0.8,0,1.1-0.1
			s0.7-0.2,1-0.4s0.6-0.3,0.9-0.6c0.3-0.2,0.5-0.5,0.8-0.7V62.3z"/>
		<path class="st1" d="M371.2,57.7c0.4-0.9,0.9-1.6,1.5-2.1s1.3-0.8,2.2-0.8c0.3,0,0.5,0,0.8,0.1c0.3,0.1,0.5,0.2,0.7,0.3l-0.2,1.7
			c-0.1,0.2-0.2,0.3-0.4,0.3c-0.1,0-0.3,0-0.5-0.1c-0.2-0.1-0.5-0.1-0.8-0.1c-0.4,0-0.8,0.1-1.1,0.2s-0.6,0.3-0.9,0.5
			c-0.3,0.2-0.5,0.5-0.7,0.9c-0.2,0.4-0.4,0.8-0.6,1.2v8.3H369V55.1h1.3c0.3,0,0.4,0,0.5,0.1c0.1,0.1,0.2,0.3,0.2,0.5L371.2,57.7z"
			/>
		<path class="st1" d="M390.7,68.3h-2.3V57h-6.8v7.9c0,0.6,0.1,1,0.4,1.2c0.3,0.3,0.6,0.4,1,0.4c0.2,0,0.5,0,0.6-0.1
			c0.2-0.1,0.3-0.1,0.5-0.2c0.1-0.1,0.2-0.1,0.3-0.2c0.1-0.1,0.2-0.1,0.2-0.1c0.1,0,0.2,0.1,0.3,0.2l0.7,1.1
			c-0.4,0.4-0.9,0.7-1.4,0.9c-0.6,0.2-1.1,0.3-1.7,0.3c-1,0-1.8-0.3-2.4-0.9c-0.6-0.6-0.8-1.4-0.8-2.5V57h-1.6c-0.1,0-0.3,0-0.4-0.1
			c-0.1-0.1-0.1-0.2-0.1-0.4v-0.9l2.2-0.3l0.5-4.1c0-0.1,0.1-0.2,0.2-0.3c0.1-0.1,0.2-0.1,0.4-0.1h1.2v4.5h9.1V68.3z M391.2,50.9
			c0,0.2,0,0.4-0.1,0.6c-0.1,0.2-0.2,0.4-0.4,0.5c-0.2,0.1-0.3,0.3-0.5,0.4c-0.2,0.1-0.4,0.1-0.6,0.1c-0.2,0-0.4,0-0.6-0.1
			s-0.4-0.2-0.5-0.4c-0.1-0.1-0.3-0.3-0.4-0.5c-0.1-0.2-0.1-0.4-0.1-0.6c0-0.2,0-0.4,0.1-0.6c0.1-0.2,0.2-0.4,0.4-0.5
			s0.3-0.3,0.5-0.4s0.4-0.1,0.6-0.1c0.2,0,0.4,0,0.6,0.1c0.2,0.1,0.4,0.2,0.5,0.4c0.2,0.2,0.3,0.3,0.4,0.5
			C391.2,50.4,391.2,50.6,391.2,50.9z"/>
		<path class="st1" d="M403.6,57.4c-0.1,0.1-0.1,0.2-0.2,0.2c-0.1,0.1-0.2,0.1-0.3,0.1c-0.1,0-0.3-0.1-0.4-0.2
			c-0.2-0.1-0.3-0.2-0.6-0.4c-0.2-0.1-0.5-0.2-0.8-0.4c-0.3-0.1-0.7-0.2-1.2-0.2c-0.7,0-1.2,0.1-1.7,0.3c-0.5,0.2-0.9,0.6-1.2,1
			c-0.3,0.4-0.6,1-0.8,1.6c-0.2,0.6-0.3,1.3-0.3,2.1c0,0.8,0.1,1.5,0.3,2.1c0.2,0.6,0.4,1.1,0.8,1.6c0.3,0.4,0.7,0.7,1.2,1
			c0.5,0.2,1,0.3,1.6,0.3c0.6,0,1-0.1,1.4-0.2c0.4-0.1,0.7-0.3,0.9-0.4c0.2-0.2,0.4-0.3,0.6-0.4c0.2-0.1,0.3-0.2,0.5-0.2
			c0.2,0,0.3,0.1,0.4,0.2l0.7,0.8c-0.3,0.4-0.6,0.7-1,0.9c-0.4,0.3-0.8,0.5-1.2,0.6c-0.4,0.2-0.9,0.3-1.3,0.4
			c-0.5,0.1-0.9,0.1-1.4,0.1c-0.8,0-1.6-0.2-2.3-0.5c-0.7-0.3-1.3-0.7-1.8-1.3c-0.5-0.6-0.9-1.3-1.2-2.1c-0.3-0.8-0.4-1.8-0.4-2.9
			c0-1,0.1-1.9,0.4-2.7c0.3-0.8,0.7-1.6,1.2-2.2c0.5-0.6,1.2-1.1,1.9-1.4c0.8-0.3,1.7-0.5,2.6-0.5c0.9,0,1.7,0.1,2.5,0.4
			c0.7,0.3,1.3,0.7,1.9,1.3L403.6,57.4z"/>
		<path class="st1" d="M409.8,51c0,0.2,0,0.4-0.1,0.6c-0.1,0.2-0.2,0.4-0.4,0.5c-0.2,0.2-0.3,0.3-0.5,0.4s-0.4,0.1-0.6,0.1
			c-0.2,0-0.4,0-0.6-0.1s-0.4-0.2-0.5-0.4c-0.1-0.2-0.3-0.3-0.4-0.5c-0.1-0.2-0.1-0.4-0.1-0.6c0-0.2,0-0.4,0.1-0.6
			c0.1-0.2,0.2-0.4,0.4-0.5c0.1-0.2,0.3-0.3,0.5-0.4s0.4-0.1,0.6-0.1c0.2,0,0.4,0,0.6,0.1s0.4,0.2,0.5,0.4c0.2,0.2,0.3,0.3,0.4,0.5
			C409.8,50.5,409.8,50.7,409.8,51z M409.3,55.1v13.2H407V55.1H409.3z"/>
		<path class="st1" d="M415.4,57.1c0.6-0.7,1.2-1.2,1.9-1.7c0.7-0.4,1.6-0.6,2.5-0.6c0.8,0,1.5,0.1,2.1,0.4c0.6,0.3,1.1,0.7,1.6,1.3
			c0.4,0.6,0.8,1.3,1,2.1c0.2,0.8,0.4,1.8,0.4,2.9c0,1-0.1,1.9-0.4,2.7c-0.3,0.8-0.6,1.6-1.1,2.2c-0.5,0.6-1.1,1.1-1.8,1.4
			c-0.7,0.4-1.5,0.5-2.4,0.5c-0.8,0-1.5-0.1-2.1-0.4c-0.6-0.3-1.1-0.7-1.5-1.1v5.8h-2.3V55.1h1.4c0.3,0,0.5,0.2,0.6,0.5L415.4,57.1z
			 M415.5,65.1c0.4,0.6,0.9,1,1.4,1.2c0.5,0.2,1.1,0.4,1.7,0.4c1.2,0,2.2-0.4,2.8-1.3c0.7-0.9,1-2.1,1-3.7c0-0.9-0.1-1.6-0.2-2.2
			c-0.2-0.6-0.4-1.1-0.7-1.5c-0.3-0.4-0.6-0.7-1.1-0.9c-0.4-0.2-0.9-0.3-1.4-0.3c-0.8,0-1.4,0.2-2,0.5c-0.6,0.3-1.1,0.8-1.6,1.5
			V65.1z"/>
		<path class="st1" d="M427.4,57c0.7-0.7,1.5-1.2,2.4-1.6c0.8-0.3,1.8-0.5,2.8-0.5c0.7,0,1.4,0.1,2,0.4c0.6,0.2,1.1,0.6,1.4,1
			c0.4,0.4,0.7,1,0.9,1.6c0.2,0.6,0.3,1.3,0.3,2v8.4h-1c-0.2,0-0.4,0-0.5-0.1c-0.1-0.1-0.2-0.2-0.3-0.4l-0.3-1.2
			c-0.3,0.3-0.7,0.6-1,0.9c-0.3,0.2-0.7,0.5-1,0.6c-0.4,0.2-0.8,0.3-1.2,0.4s-0.9,0.1-1.4,0.1c-0.5,0-1-0.1-1.4-0.2
			c-0.5-0.1-0.8-0.4-1.2-0.6c-0.3-0.3-0.6-0.6-0.8-1.1c-0.2-0.4-0.3-1-0.3-1.6c0-0.5,0.1-1,0.4-1.5c0.3-0.5,0.7-0.9,1.4-1.3
			c0.6-0.4,1.5-0.7,2.5-0.9c1-0.2,2.3-0.4,3.8-0.4v-1c0-1-0.2-1.8-0.7-2.3c-0.4-0.5-1.1-0.8-1.9-0.8c-0.6,0-1.1,0.1-1.4,0.2
			c-0.4,0.1-0.7,0.3-1,0.5s-0.5,0.3-0.7,0.5c-0.2,0.1-0.4,0.2-0.6,0.2c-0.2,0-0.3,0-0.4-0.1c-0.1-0.1-0.2-0.2-0.3-0.3L427.4,57z
			 M434.9,62.3c-1.1,0-2,0.1-2.7,0.3c-0.7,0.1-1.4,0.3-1.8,0.5s-0.8,0.5-1,0.8c-0.2,0.3-0.3,0.6-0.3,1c0,0.3,0.1,0.6,0.2,0.9
			c0.1,0.3,0.3,0.5,0.5,0.6c0.2,0.2,0.4,0.3,0.7,0.4c0.3,0.1,0.5,0.1,0.9,0.1c0.4,0,0.8,0,1.1-0.1c0.3-0.1,0.7-0.2,1-0.4
			s0.6-0.3,0.9-0.6c0.3-0.2,0.5-0.5,0.8-0.7V62.3z"/>
		<path class="st1" d="M452.7,68.3h-2.3V57h-6.8v7.9c0,0.6,0.1,1,0.4,1.2c0.3,0.3,0.6,0.4,1,0.4c0.2,0,0.5,0,0.6-0.1
			c0.2-0.1,0.3-0.1,0.5-0.2c0.1-0.1,0.2-0.1,0.3-0.2c0.1-0.1,0.2-0.1,0.2-0.1c0.1,0,0.2,0.1,0.3,0.2l0.7,1.1
			c-0.4,0.4-0.9,0.7-1.4,0.9c-0.6,0.2-1.1,0.3-1.7,0.3c-1,0-1.8-0.3-2.4-0.9c-0.6-0.6-0.8-1.4-0.8-2.5V57h-1.6c-0.1,0-0.3,0-0.4-0.1
			c-0.1-0.1-0.1-0.2-0.1-0.4v-0.9l2.2-0.3l0.5-4.1c0-0.1,0.1-0.2,0.2-0.3c0.1-0.1,0.2-0.1,0.4-0.1h1.2v4.5h9.1V68.3z M453.3,50.9
			c0,0.2,0,0.4-0.1,0.6c-0.1,0.2-0.2,0.4-0.4,0.5c-0.2,0.1-0.3,0.3-0.5,0.4c-0.2,0.1-0.4,0.1-0.6,0.1c-0.2,0-0.4,0-0.6-0.1
			s-0.4-0.2-0.5-0.4c-0.1-0.1-0.3-0.3-0.4-0.5c-0.1-0.2-0.1-0.4-0.1-0.6c0-0.2,0-0.4,0.1-0.6c0.1-0.2,0.2-0.4,0.4-0.5
			s0.3-0.3,0.5-0.4s0.4-0.1,0.6-0.1c0.2,0,0.4,0,0.6,0.1c0.2,0.1,0.4,0.2,0.5,0.4s0.3,0.3,0.4,0.5C453.2,50.4,453.3,50.6,453.3,50.9
			z"/>
		<path class="st1" d="M462.1,54.9c1,0,1.8,0.2,2.6,0.5c0.8,0.3,1.4,0.8,2,1.4c0.5,0.6,1,1.3,1.3,2.1c0.3,0.8,0.4,1.8,0.4,2.8
			c0,1-0.1,2-0.4,2.8c-0.3,0.8-0.7,1.5-1.3,2.1c-0.5,0.6-1.2,1-2,1.4c-0.8,0.3-1.6,0.5-2.6,0.5c-1,0-1.8-0.2-2.6-0.5
			c-0.8-0.3-1.4-0.8-2-1.4c-0.5-0.6-1-1.3-1.3-2.1c-0.3-0.8-0.4-1.8-0.4-2.8c0-1,0.1-2,0.4-2.8c0.3-0.8,0.7-1.6,1.3-2.1
			c0.5-0.6,1.2-1,2-1.4C460.2,55,461.1,54.9,462.1,54.9z M462.1,66.6c1.3,0,2.3-0.4,2.9-1.3c0.6-0.9,1-2.1,1-3.7
			c0-1.6-0.3-2.8-1-3.7c-0.6-0.9-1.6-1.3-2.9-1.3c-0.7,0-1.2,0.1-1.7,0.3c-0.5,0.2-0.9,0.6-1.2,1c-0.3,0.4-0.6,0.9-0.7,1.6
			c-0.2,0.6-0.2,1.3-0.2,2.1c0,1.6,0.3,2.8,1,3.7C459.8,66.2,460.8,66.6,462.1,66.6z"/>
		<path class="st1" d="M473.5,57c0.3-0.3,0.6-0.6,0.9-0.9s0.7-0.5,1-0.7c0.4-0.2,0.7-0.3,1.1-0.4c0.4-0.1,0.8-0.1,1.3-0.1
			c0.7,0,1.4,0.1,1.9,0.4c0.6,0.2,1,0.6,1.4,1c0.4,0.4,0.6,1,0.8,1.6c0.2,0.6,0.3,1.3,0.3,2v8.4h-2.3v-8.4c0-1-0.2-1.8-0.7-2.3
			c-0.5-0.6-1.1-0.8-2.1-0.8c-0.7,0-1.3,0.2-1.9,0.5c-0.6,0.3-1.1,0.8-1.6,1.3v9.7h-2.3V55.1h1.4c0.3,0,0.5,0.2,0.6,0.5L473.5,57z"
			/>
	</g>
	<g>
		<path d="M91.2,267.3h-2.5v-18.6h2.5V267.3z"/>
		<path class="st0" d="M111,248.6v18.6h-1.3c-0.2,0-0.4,0-0.5-0.1c-0.1-0.1-0.3-0.2-0.4-0.4l-10.8-14.1c0,0.2,0,0.4,0,0.6
			c0,0.2,0,0.4,0,0.6v13.3h-2.2v-18.6h1.3c0.1,0,0.2,0,0.3,0c0.1,0,0.1,0,0.2,0.1c0.1,0,0.1,0.1,0.2,0.1c0.1,0.1,0.1,0.1,0.2,0.2
			l10.8,14c0-0.2,0-0.4,0-0.7c0-0.2,0-0.4,0-0.6v-13.2H111z"/>
		<path class="st0" d="M130.9,248.6v18.6h-2.5v-8.5h-10.1v8.5h-2.5v-18.6h2.5v8.3h10.1v-8.3H130.9z"/>
		<path class="st0" d="M138.2,267.3h-2.5v-18.6h2.5V267.3z"/>
		<path class="st0" d="M148.9,248.6c1.1,0,2.1,0.1,3,0.3c0.8,0.2,1.5,0.5,2,1c0.5,0.4,0.9,0.9,1.2,1.5c0.3,0.6,0.4,1.3,0.4,2
			c0,0.5-0.1,0.9-0.2,1.3s-0.4,0.8-0.6,1.2c-0.3,0.4-0.6,0.7-1.1,1c-0.4,0.3-1,0.5-1.5,0.7c1.4,0.3,2.4,0.7,3.1,1.5s1,1.7,1,2.8
			c0,0.8-0.1,1.5-0.4,2.2c-0.3,0.7-0.7,1.2-1.3,1.7c-0.6,0.5-1.2,0.8-2.1,1.1c-0.8,0.3-1.7,0.4-2.8,0.4H143v-18.6H148.9z
			 M145.5,250.6v6.4h3.3c0.7,0,1.3-0.1,1.9-0.2c0.5-0.2,1-0.4,1.3-0.7c0.3-0.3,0.6-0.6,0.8-1c0.2-0.4,0.2-0.8,0.2-1.3
			c0-1.1-0.3-1.9-1-2.4c-0.7-0.5-1.7-0.8-3.1-0.8H145.5z M149.5,265.3c0.7,0,1.3-0.1,1.9-0.2c0.5-0.2,0.9-0.4,1.3-0.7
			c0.3-0.3,0.6-0.7,0.7-1.1c0.2-0.4,0.2-0.9,0.2-1.4c0-1-0.3-1.7-1-2.3c-0.7-0.6-1.7-0.8-3.1-0.8h-4v6.5H149.5z"/>
		<path class="st0" d="M162.3,267.3h-2.5v-18.6h2.5V267.3z"/>
		<path class="st0" d="M179.7,250.8h-6v16.5h-2.5v-16.5h-6.1v-2.1h14.6V250.8z"/>
		<path class="st0" d="M191.9,251.5c-0.1,0.1-0.2,0.2-0.3,0.3c-0.1,0.1-0.2,0.1-0.3,0.1c-0.1,0-0.3-0.1-0.5-0.2
			c-0.2-0.1-0.4-0.3-0.7-0.5c-0.3-0.2-0.7-0.3-1.1-0.5c-0.4-0.1-0.9-0.2-1.5-0.2c-0.6,0-1.1,0.1-1.5,0.2c-0.4,0.2-0.8,0.4-1.1,0.6
			c-0.3,0.3-0.5,0.6-0.7,0.9c-0.1,0.4-0.2,0.7-0.2,1.1c0,0.5,0.1,1,0.4,1.3c0.3,0.3,0.6,0.6,1,0.9c0.4,0.2,0.9,0.5,1.4,0.6
			c0.5,0.2,1.1,0.4,1.6,0.6c0.6,0.2,1.1,0.4,1.6,0.6s1,0.5,1.4,0.9c0.4,0.4,0.8,0.8,1,1.3c0.3,0.5,0.4,1.2,0.4,2
			c0,0.8-0.1,1.6-0.4,2.3c-0.3,0.7-0.7,1.3-1.2,1.9c-0.5,0.5-1.2,0.9-2,1.2c-0.8,0.3-1.7,0.5-2.6,0.5c-1.2,0-2.3-0.2-3.3-0.7
			c-1-0.4-1.8-1-2.5-1.8l0.7-1.2c0.1-0.1,0.2-0.2,0.3-0.2c0.1-0.1,0.2-0.1,0.3-0.1c0.1,0,0.2,0,0.4,0.1c0.1,0.1,0.3,0.2,0.5,0.3
			c0.2,0.1,0.4,0.3,0.6,0.5c0.2,0.2,0.5,0.3,0.8,0.5c0.3,0.1,0.6,0.3,1,0.3c0.4,0.1,0.8,0.1,1.3,0.1c0.6,0,1.1-0.1,1.6-0.2
			c0.5-0.2,0.9-0.4,1.2-0.7c0.3-0.3,0.6-0.7,0.7-1.1c0.2-0.4,0.3-0.9,0.3-1.4c0-0.6-0.1-1-0.4-1.4c-0.3-0.4-0.6-0.7-1-0.9
			s-0.9-0.4-1.4-0.6c-0.5-0.2-1.1-0.3-1.6-0.5c-0.6-0.2-1.1-0.4-1.6-0.6c-0.5-0.2-1-0.5-1.4-0.9c-0.4-0.4-0.8-0.8-1-1.4
			c-0.3-0.6-0.4-1.3-0.4-2.1c0-0.7,0.1-1.3,0.4-1.9c0.3-0.6,0.6-1.2,1.1-1.6c0.5-0.5,1.1-0.9,1.8-1.1c0.7-0.3,1.5-0.4,2.5-0.4
			c1,0,2,0.2,2.8,0.5c0.9,0.3,1.6,0.8,2.3,1.4L191.9,251.5z"/>
		<path class="st1" d="M208.1,253.9c1,0,1.8,0.2,2.6,0.5c0.8,0.3,1.4,0.8,2,1.4c0.5,0.6,1,1.3,1.3,2.1s0.4,1.8,0.4,2.8
			c0,1-0.1,2-0.4,2.8c-0.3,0.8-0.7,1.5-1.3,2.1c-0.5,0.6-1.2,1-2,1.4c-0.8,0.3-1.6,0.5-2.6,0.5c-1,0-1.8-0.2-2.6-0.5s-1.4-0.8-2-1.4
			c-0.5-0.6-1-1.3-1.3-2.1c-0.3-0.8-0.4-1.8-0.4-2.8c0-1,0.1-2,0.4-2.8c0.3-0.8,0.7-1.6,1.3-2.1c0.5-0.6,1.2-1,2-1.4
			S207.2,253.9,208.1,253.9z M208.1,265.6c1.3,0,2.3-0.4,2.9-1.3c0.6-0.9,1-2.1,1-3.6c0-1.6-0.3-2.8-1-3.7c-0.6-0.9-1.6-1.3-2.9-1.3
			c-0.7,0-1.2,0.1-1.7,0.3c-0.5,0.2-0.9,0.6-1.2,1c-0.3,0.4-0.6,0.9-0.7,1.6c-0.2,0.6-0.2,1.3-0.2,2.1c0,1.6,0.3,2.8,1,3.6
			C205.8,265.2,206.8,265.6,208.1,265.6z"/>
		<path class="st1" d="M226.5,256.4c-0.1,0.1-0.1,0.2-0.2,0.2c-0.1,0.1-0.2,0.1-0.3,0.1c-0.1,0-0.3-0.1-0.4-0.2
			c-0.2-0.1-0.3-0.2-0.6-0.4c-0.2-0.1-0.5-0.2-0.8-0.4s-0.7-0.2-1.2-0.2c-0.7,0-1.2,0.1-1.7,0.3c-0.5,0.2-0.9,0.6-1.2,1
			c-0.3,0.4-0.6,1-0.8,1.6c-0.2,0.6-0.3,1.3-0.3,2.1c0,0.8,0.1,1.5,0.3,2.1c0.2,0.6,0.4,1.1,0.8,1.6c0.3,0.4,0.7,0.7,1.2,1
			c0.5,0.2,1,0.3,1.6,0.3c0.6,0,1-0.1,1.4-0.2c0.4-0.1,0.7-0.3,0.9-0.4c0.2-0.2,0.4-0.3,0.6-0.4c0.2-0.1,0.3-0.2,0.5-0.2
			c0.2,0,0.3,0.1,0.4,0.2l0.7,0.8c-0.3,0.4-0.6,0.7-1,0.9c-0.4,0.3-0.8,0.5-1.2,0.6c-0.4,0.2-0.9,0.3-1.3,0.4
			c-0.5,0.1-0.9,0.1-1.4,0.1c-0.8,0-1.6-0.2-2.3-0.5c-0.7-0.3-1.3-0.7-1.8-1.3c-0.5-0.6-0.9-1.3-1.2-2.1c-0.3-0.8-0.4-1.8-0.4-2.9
			c0-1,0.1-1.9,0.4-2.7c0.3-0.8,0.7-1.6,1.2-2.2c0.5-0.6,1.2-1.1,1.9-1.4c0.8-0.3,1.7-0.5,2.6-0.5c0.9,0,1.7,0.1,2.5,0.4
			c0.7,0.3,1.3,0.7,1.9,1.3L226.5,256.4z"/>
		<path class="st1" d="M238.7,256.4c-0.1,0.1-0.1,0.2-0.2,0.2c-0.1,0.1-0.2,0.1-0.3,0.1c-0.1,0-0.3-0.1-0.4-0.2
			c-0.2-0.1-0.3-0.2-0.6-0.4c-0.2-0.1-0.5-0.2-0.8-0.4s-0.7-0.2-1.2-0.2c-0.7,0-1.2,0.1-1.7,0.3c-0.5,0.2-0.9,0.6-1.2,1
			c-0.3,0.4-0.6,1-0.8,1.6c-0.2,0.6-0.3,1.3-0.3,2.1c0,0.8,0.1,1.5,0.3,2.1c0.2,0.6,0.4,1.1,0.8,1.6c0.3,0.4,0.7,0.7,1.2,1
			c0.5,0.2,1,0.3,1.6,0.3c0.6,0,1-0.1,1.4-0.2c0.4-0.1,0.7-0.3,0.9-0.4c0.2-0.2,0.4-0.3,0.6-0.4c0.2-0.1,0.3-0.2,0.5-0.2
			c0.2,0,0.3,0.1,0.4,0.2l0.7,0.8c-0.3,0.4-0.6,0.7-1,0.9c-0.4,0.3-0.8,0.5-1.2,0.6c-0.4,0.2-0.9,0.3-1.3,0.4
			c-0.5,0.1-0.9,0.1-1.4,0.1c-0.8,0-1.6-0.2-2.3-0.5c-0.7-0.3-1.3-0.7-1.8-1.3c-0.5-0.6-0.9-1.3-1.2-2.1c-0.3-0.8-0.4-1.8-0.4-2.9
			c0-1,0.1-1.9,0.4-2.7c0.3-0.8,0.7-1.6,1.2-2.2c0.5-0.6,1.2-1.1,1.9-1.4c0.8-0.3,1.7-0.5,2.6-0.5c0.9,0,1.7,0.1,2.5,0.4
			c0.7,0.3,1.3,0.7,1.9,1.3L238.7,256.4z"/>
		<path class="st1" d="M252.8,254.1v13.2h-1.4c-0.3,0-0.5-0.2-0.6-0.5l-0.2-1.4c-0.6,0.6-1.2,1.1-1.9,1.5c-0.7,0.4-1.5,0.6-2.4,0.6
			c-0.7,0-1.4-0.1-1.9-0.4c-0.6-0.2-1-0.6-1.4-1c-0.4-0.4-0.7-1-0.8-1.6c-0.2-0.6-0.3-1.3-0.3-2v-8.4h2.3v8.4c0,1,0.2,1.8,0.7,2.3
			c0.5,0.5,1.2,0.8,2.1,0.8c0.7,0,1.3-0.2,1.9-0.5c0.6-0.3,1.1-0.8,1.6-1.3v-9.7H252.8z"/>
		<path class="st1" d="M258.7,256.1c0.6-0.7,1.2-1.2,1.9-1.7c0.7-0.4,1.6-0.6,2.5-0.6c0.8,0,1.5,0.1,2.1,0.4
			c0.6,0.3,1.1,0.7,1.6,1.3c0.4,0.6,0.8,1.3,1,2.1c0.2,0.8,0.4,1.8,0.4,2.9c0,1-0.1,1.9-0.4,2.7c-0.3,0.8-0.6,1.6-1.1,2.2
			c-0.5,0.6-1.1,1.1-1.8,1.4c-0.7,0.4-1.5,0.5-2.4,0.5c-0.8,0-1.5-0.1-2.1-0.4c-0.6-0.3-1.1-0.7-1.5-1.1v5.8h-2.3v-17.6h1.4
			c0.3,0,0.5,0.2,0.6,0.5L258.7,256.1z M258.8,264.1c0.4,0.6,0.9,1,1.4,1.2c0.5,0.2,1.1,0.4,1.7,0.4c1.2,0,2.2-0.4,2.8-1.3
			c0.7-0.9,1-2.1,1-3.7c0-0.9-0.1-1.6-0.2-2.2c-0.2-0.6-0.4-1.1-0.7-1.5c-0.3-0.4-0.6-0.7-1.1-0.9c-0.4-0.2-0.9-0.3-1.4-0.3
			c-0.8,0-1.4,0.2-2,0.5c-0.6,0.3-1.1,0.8-1.6,1.5V264.1z"/>
		<path class="st1" d="M270.7,256c0.7-0.7,1.5-1.2,2.4-1.6c0.8-0.3,1.8-0.5,2.8-0.5c0.7,0,1.4,0.1,2,0.4c0.6,0.2,1.1,0.6,1.4,1
			c0.4,0.4,0.7,1,0.9,1.6c0.2,0.6,0.3,1.3,0.3,2v8.4h-1c-0.2,0-0.4,0-0.5-0.1c-0.1-0.1-0.2-0.2-0.3-0.4l-0.3-1.2
			c-0.3,0.3-0.7,0.6-1,0.9c-0.3,0.2-0.7,0.5-1,0.6c-0.4,0.2-0.8,0.3-1.2,0.4c-0.4,0.1-0.9,0.1-1.4,0.1c-0.5,0-1-0.1-1.4-0.2
			c-0.5-0.1-0.8-0.4-1.2-0.6c-0.3-0.3-0.6-0.6-0.8-1.1c-0.2-0.4-0.3-1-0.3-1.6c0-0.5,0.1-1,0.4-1.5c0.3-0.5,0.8-0.9,1.4-1.3
			c0.6-0.4,1.5-0.7,2.5-0.9c1-0.2,2.3-0.4,3.8-0.4v-1c0-1-0.2-1.8-0.7-2.3c-0.4-0.5-1.1-0.8-1.9-0.8c-0.6,0-1.1,0.1-1.4,0.2
			c-0.4,0.1-0.7,0.3-1,0.5c-0.3,0.2-0.5,0.3-0.7,0.5c-0.2,0.1-0.4,0.2-0.6,0.2c-0.2,0-0.3,0-0.4-0.1c-0.1-0.1-0.2-0.2-0.3-0.3
			L270.7,256z M278.2,261.3c-1.1,0-2,0.1-2.7,0.3c-0.8,0.1-1.4,0.3-1.8,0.5c-0.5,0.2-0.8,0.5-1,0.8c-0.2,0.3-0.3,0.6-0.3,1
			c0,0.3,0.1,0.6,0.2,0.9c0.1,0.3,0.3,0.5,0.5,0.6c0.2,0.2,0.4,0.3,0.7,0.4c0.3,0.1,0.5,0.1,0.9,0.1c0.4,0,0.8,0,1.1-0.1
			c0.3-0.1,0.7-0.2,1-0.4c0.3-0.2,0.6-0.3,0.9-0.6c0.3-0.2,0.5-0.5,0.8-0.7V261.3z"/>
		<path class="st1" d="M296,267.3h-2.3V256h-6.8v7.9c0,0.6,0.1,1,0.4,1.2c0.3,0.3,0.6,0.4,1,0.4c0.2,0,0.5,0,0.6-0.1
			c0.2-0.1,0.3-0.1,0.5-0.2c0.1-0.1,0.2-0.1,0.3-0.2c0.1-0.1,0.2-0.1,0.2-0.1c0.1,0,0.2,0.1,0.3,0.2l0.7,1.1
			c-0.4,0.4-0.9,0.7-1.4,0.9c-0.6,0.2-1.1,0.3-1.7,0.3c-1,0-1.8-0.3-2.4-0.9c-0.6-0.6-0.8-1.4-0.8-2.5V256H283c-0.1,0-0.3,0-0.4-0.1
			c-0.1-0.1-0.1-0.2-0.1-0.4v-0.9l2.2-0.3l0.5-4.1c0-0.1,0.1-0.2,0.2-0.3c0.1-0.1,0.2-0.1,0.4-0.1h1.2v4.5h9.1V267.3z M296.6,249.9
			c0,0.2,0,0.4-0.1,0.6c-0.1,0.2-0.2,0.4-0.4,0.5c-0.2,0.1-0.3,0.3-0.5,0.4c-0.2,0.1-0.4,0.1-0.6,0.1c-0.2,0-0.4,0-0.6-0.1
			c-0.2-0.1-0.4-0.2-0.5-0.4c-0.1-0.1-0.3-0.3-0.4-0.5c-0.1-0.2-0.1-0.4-0.1-0.6c0-0.2,0-0.4,0.1-0.6s0.2-0.4,0.4-0.5
			c0.1-0.2,0.3-0.3,0.5-0.4c0.2-0.1,0.4-0.1,0.6-0.1c0.2,0,0.4,0,0.6,0.1c0.2,0.1,0.4,0.2,0.5,0.4c0.2,0.2,0.3,0.3,0.4,0.5
			C296.6,249.4,296.6,249.6,296.6,249.9z"/>
		<path class="st1" d="M305.4,253.9c1,0,1.8,0.2,2.6,0.5c0.8,0.3,1.4,0.8,2,1.4c0.5,0.6,1,1.3,1.3,2.1c0.3,0.8,0.4,1.8,0.4,2.8
			c0,1-0.1,2-0.4,2.8c-0.3,0.8-0.7,1.5-1.3,2.1c-0.5,0.6-1.2,1-2,1.4c-0.8,0.3-1.6,0.5-2.6,0.5c-1,0-1.8-0.2-2.6-0.5s-1.4-0.8-2-1.4
			c-0.5-0.6-1-1.3-1.3-2.1c-0.3-0.8-0.4-1.8-0.4-2.8c0-1,0.1-2,0.4-2.8c0.3-0.8,0.7-1.6,1.3-2.1c0.5-0.6,1.2-1,2-1.4
			S304.4,253.9,305.4,253.9z M305.4,265.6c1.3,0,2.3-0.4,2.9-1.3c0.6-0.9,1-2.1,1-3.6c0-1.6-0.3-2.8-1-3.7c-0.6-0.9-1.6-1.3-2.9-1.3
			c-0.7,0-1.2,0.1-1.7,0.3c-0.5,0.2-0.9,0.6-1.2,1c-0.3,0.4-0.6,0.9-0.7,1.6c-0.2,0.6-0.2,1.3-0.2,2.1c0,1.6,0.3,2.8,1,3.6
			C303.1,265.2,304.1,265.6,305.4,265.6z"/>
		<path class="st1" d="M316.8,256c0.3-0.3,0.6-0.6,0.9-0.9c0.3-0.3,0.7-0.5,1-0.7c0.4-0.2,0.7-0.3,1.1-0.4c0.4-0.1,0.8-0.1,1.3-0.1
			c0.7,0,1.4,0.1,1.9,0.4c0.6,0.2,1,0.6,1.4,1c0.4,0.4,0.6,1,0.8,1.6c0.2,0.6,0.3,1.3,0.3,2v8.4h-2.3v-8.4c0-1-0.2-1.8-0.7-2.3
			c-0.5-0.6-1.1-0.8-2.1-0.8c-0.7,0-1.3,0.2-1.9,0.5c-0.6,0.3-1.1,0.8-1.6,1.3v9.7h-2.3v-13.2h1.4c0.3,0,0.5,0.2,0.6,0.5L316.8,256z
			"/>
		<path class="st1" d="M328.8,256c0.7-0.7,1.5-1.2,2.4-1.6c0.8-0.3,1.8-0.5,2.8-0.5c0.7,0,1.4,0.1,2,0.4c0.6,0.2,1.1,0.6,1.4,1
			c0.4,0.4,0.7,1,0.9,1.6c0.2,0.6,0.3,1.3,0.3,2v8.4h-1c-0.2,0-0.4,0-0.5-0.1c-0.1-0.1-0.2-0.2-0.3-0.4l-0.3-1.2
			c-0.3,0.3-0.7,0.6-1,0.9c-0.3,0.2-0.7,0.5-1,0.6c-0.4,0.2-0.8,0.3-1.2,0.4c-0.4,0.1-0.9,0.1-1.4,0.1c-0.5,0-1-0.1-1.4-0.2
			c-0.5-0.1-0.8-0.4-1.2-0.6c-0.3-0.3-0.6-0.6-0.8-1.1c-0.2-0.4-0.3-1-0.3-1.6c0-0.5,0.1-1,0.4-1.5c0.3-0.5,0.7-0.9,1.4-1.3
			c0.6-0.4,1.5-0.7,2.5-0.9c1-0.2,2.3-0.4,3.8-0.4v-1c0-1-0.2-1.8-0.7-2.3c-0.4-0.5-1.1-0.8-1.9-0.8c-0.6,0-1.1,0.1-1.4,0.2
			c-0.4,0.1-0.7,0.3-1,0.5c-0.3,0.2-0.5,0.3-0.7,0.5c-0.2,0.1-0.4,0.2-0.6,0.2c-0.2,0-0.3,0-0.4-0.1c-0.1-0.1-0.2-0.2-0.3-0.3
			L328.8,256z M336.3,261.3c-1.1,0-2,0.1-2.7,0.3c-0.7,0.1-1.4,0.3-1.8,0.5c-0.5,0.2-0.8,0.5-1,0.8c-0.2,0.3-0.3,0.6-0.3,1
			c0,0.3,0.1,0.6,0.2,0.9c0.1,0.3,0.3,0.5,0.5,0.6c0.2,0.2,0.4,0.3,0.7,0.4c0.3,0.1,0.5,0.1,0.9,0.1c0.4,0,0.8,0,1.1-0.1
			c0.3-0.1,0.7-0.2,1-0.4c0.3-0.2,0.6-0.3,0.9-0.6c0.3-0.2,0.5-0.5,0.8-0.7V261.3z"/>
		<path class="st1" d="M344.4,248.1v19.2h-2.3v-19.2H344.4z"/>
		<path class="st1" d="M357.1,256.1c0.6-0.7,1.2-1.2,1.9-1.7c0.7-0.4,1.6-0.6,2.5-0.6c0.8,0,1.5,0.1,2.1,0.4
			c0.6,0.3,1.1,0.7,1.6,1.3c0.4,0.6,0.8,1.3,1,2.1c0.2,0.8,0.4,1.8,0.4,2.9c0,1-0.1,1.9-0.4,2.7s-0.6,1.6-1.1,2.2
			c-0.5,0.6-1.1,1.1-1.8,1.4c-0.7,0.4-1.5,0.5-2.4,0.5c-0.8,0-1.5-0.1-2.1-0.4c-0.6-0.3-1.1-0.7-1.5-1.1v5.8h-2.3v-17.6h1.4
			c0.3,0,0.5,0.2,0.6,0.5L357.1,256.1z M357.2,264.1c0.4,0.6,0.9,1,1.4,1.2c0.5,0.2,1.1,0.4,1.7,0.4c1.2,0,2.2-0.4,2.8-1.3
			c0.7-0.9,1-2.1,1-3.7c0-0.9-0.1-1.6-0.2-2.2c-0.2-0.6-0.4-1.1-0.7-1.5c-0.3-0.4-0.6-0.7-1.1-0.9c-0.4-0.2-0.9-0.3-1.4-0.3
			c-0.8,0-1.4,0.2-2,0.5c-0.6,0.3-1.1,0.8-1.6,1.5V264.1z"/>
		<path class="st1" d="M369.1,256c0.7-0.7,1.5-1.2,2.4-1.6c0.8-0.3,1.8-0.5,2.8-0.5c0.7,0,1.4,0.1,2,0.4c0.6,0.2,1.1,0.6,1.4,1
			c0.4,0.4,0.7,1,0.9,1.6c0.2,0.6,0.3,1.3,0.3,2v8.4h-1c-0.2,0-0.4,0-0.5-0.1c-0.1-0.1-0.2-0.2-0.3-0.4l-0.3-1.2
			c-0.3,0.3-0.7,0.6-1,0.9c-0.3,0.2-0.7,0.5-1,0.6c-0.4,0.2-0.8,0.3-1.2,0.4c-0.4,0.1-0.9,0.1-1.4,0.1c-0.5,0-1-0.1-1.4-0.2
			c-0.5-0.1-0.8-0.4-1.2-0.6c-0.3-0.3-0.6-0.6-0.8-1.1c-0.2-0.4-0.3-1-0.3-1.6c0-0.5,0.1-1,0.4-1.5c0.3-0.5,0.7-0.9,1.4-1.3
			c0.6-0.4,1.5-0.7,2.5-0.9c1-0.2,2.3-0.4,3.8-0.4v-1c0-1-0.2-1.8-0.7-2.3c-0.4-0.5-1.1-0.8-1.9-0.8c-0.6,0-1.1,0.1-1.4,0.2
			c-0.4,0.1-0.7,0.3-1,0.5c-0.3,0.2-0.5,0.3-0.7,0.5c-0.2,0.1-0.4,0.2-0.6,0.2c-0.2,0-0.3,0-0.4-0.1c-0.1-0.1-0.2-0.2-0.3-0.3
			L369.1,256z M376.6,261.3c-1.1,0-2,0.1-2.7,0.3c-0.7,0.1-1.4,0.3-1.8,0.5c-0.5,0.2-0.8,0.5-1,0.8c-0.2,0.3-0.3,0.6-0.3,1
			c0,0.3,0.1,0.6,0.2,0.9c0.1,0.3,0.3,0.5,0.5,0.6c0.2,0.2,0.4,0.3,0.7,0.4c0.3,0.1,0.5,0.1,0.9,0.1c0.4,0,0.8,0,1.1-0.1
			c0.3-0.1,0.7-0.2,1-0.4c0.3-0.2,0.6-0.3,0.9-0.6c0.3-0.2,0.5-0.5,0.8-0.7V261.3z"/>
		<path class="st1" d="M384.6,256.7c0.4-0.9,0.9-1.6,1.5-2.1c0.6-0.5,1.3-0.8,2.2-0.8c0.3,0,0.5,0,0.8,0.1c0.3,0.1,0.5,0.2,0.7,0.3
			l-0.2,1.7c-0.1,0.2-0.2,0.3-0.4,0.3c-0.1,0-0.3,0-0.5-0.1c-0.2-0.1-0.5-0.1-0.8-0.1c-0.4,0-0.8,0.1-1.1,0.2
			c-0.3,0.1-0.6,0.3-0.9,0.5c-0.3,0.2-0.5,0.5-0.7,0.9c-0.2,0.4-0.4,0.8-0.6,1.2v8.3h-2.3v-13.2h1.3c0.3,0,0.4,0,0.5,0.1
			c0.1,0.1,0.2,0.3,0.2,0.5L384.6,256.7z"/>
		<path class="st1" d="M404.1,267.3h-2.3V256H395v7.9c0,0.6,0.1,1,0.4,1.2c0.3,0.3,0.6,0.4,1,0.4c0.2,0,0.5,0,0.6-0.1
			s0.3-0.1,0.5-0.2c0.1-0.1,0.2-0.1,0.3-0.2c0.1-0.1,0.2-0.1,0.2-0.1c0.1,0,0.2,0.1,0.3,0.2l0.7,1.1c-0.4,0.4-0.9,0.7-1.4,0.9
			c-0.6,0.2-1.1,0.3-1.7,0.3c-1,0-1.8-0.3-2.4-0.9c-0.6-0.6-0.8-1.4-0.8-2.5V256h-1.6c-0.1,0-0.3,0-0.4-0.1
			c-0.1-0.1-0.1-0.2-0.1-0.4v-0.9l2.2-0.3l0.5-4.1c0-0.1,0.1-0.2,0.2-0.3c0.1-0.1,0.2-0.1,0.4-0.1h1.2v4.5h9.1V267.3z M404.6,249.9
			c0,0.2,0,0.4-0.1,0.6c-0.1,0.2-0.2,0.4-0.4,0.5c-0.2,0.1-0.3,0.3-0.5,0.4c-0.2,0.1-0.4,0.1-0.6,0.1c-0.2,0-0.4,0-0.6-0.1
			c-0.2-0.1-0.4-0.2-0.5-0.4c-0.1-0.1-0.3-0.3-0.4-0.5c-0.1-0.2-0.1-0.4-0.1-0.6c0-0.2,0-0.4,0.1-0.6c0.1-0.2,0.2-0.4,0.4-0.5
			c0.1-0.2,0.3-0.3,0.5-0.4c0.2-0.1,0.4-0.1,0.6-0.1c0.2,0,0.4,0,0.6,0.1c0.2,0.1,0.4,0.2,0.5,0.4c0.2,0.2,0.3,0.3,0.4,0.5
			C404.6,249.4,404.6,249.6,404.6,249.9z"/>
		<path class="st1" d="M417,256.4c-0.1,0.1-0.1,0.2-0.2,0.2c-0.1,0.1-0.2,0.1-0.3,0.1c-0.1,0-0.3-0.1-0.4-0.2
			c-0.2-0.1-0.4-0.2-0.6-0.4c-0.2-0.1-0.5-0.2-0.8-0.4c-0.3-0.1-0.7-0.2-1.2-0.2c-0.7,0-1.2,0.1-1.7,0.3c-0.5,0.2-0.9,0.6-1.2,1
			c-0.3,0.4-0.6,1-0.8,1.6c-0.2,0.6-0.3,1.3-0.3,2.1c0,0.8,0.1,1.5,0.3,2.1c0.2,0.6,0.4,1.1,0.8,1.6c0.3,0.4,0.7,0.7,1.2,1
			c0.5,0.2,1,0.3,1.6,0.3c0.6,0,1-0.1,1.4-0.2c0.4-0.1,0.7-0.3,0.9-0.4c0.2-0.2,0.4-0.3,0.6-0.4c0.2-0.1,0.3-0.2,0.5-0.2
			c0.2,0,0.3,0.1,0.4,0.2l0.7,0.8c-0.3,0.4-0.6,0.7-1,0.9c-0.4,0.3-0.8,0.5-1.2,0.6c-0.4,0.2-0.9,0.3-1.3,0.4
			c-0.5,0.1-0.9,0.1-1.4,0.1c-0.8,0-1.6-0.2-2.3-0.5c-0.7-0.3-1.3-0.7-1.8-1.3c-0.5-0.6-0.9-1.3-1.2-2.1c-0.3-0.8-0.4-1.8-0.4-2.9
			c0-1,0.1-1.9,0.4-2.7c0.3-0.8,0.7-1.6,1.2-2.2c0.5-0.6,1.2-1.1,1.9-1.4c0.8-0.3,1.7-0.5,2.6-0.5c0.9,0,1.7,0.1,2.5,0.4
			c0.7,0.3,1.3,0.7,1.9,1.3L417,256.4z"/>
		<path class="st1" d="M423.2,250c0,0.2,0,0.4-0.1,0.6c-0.1,0.2-0.2,0.4-0.4,0.5c-0.2,0.2-0.3,0.3-0.5,0.4c-0.2,0.1-0.4,0.1-0.6,0.1
			s-0.4,0-0.6-0.1c-0.2-0.1-0.4-0.2-0.5-0.4c-0.1-0.2-0.3-0.3-0.4-0.5c-0.1-0.2-0.1-0.4-0.1-0.6s0-0.4,0.1-0.6
			c0.1-0.2,0.2-0.4,0.4-0.5c0.1-0.2,0.3-0.3,0.5-0.4c0.2-0.1,0.4-0.1,0.6-0.1s0.4,0,0.6,0.1c0.2,0.1,0.4,0.2,0.5,0.4
			c0.2,0.2,0.3,0.3,0.4,0.5C423.2,249.5,423.2,249.7,423.2,250z M422.7,254.1v13.2h-2.3v-13.2H422.7z"/>
		<path class="st1" d="M428.8,256.1c0.6-0.7,1.2-1.2,1.9-1.7c0.7-0.4,1.6-0.6,2.5-0.6c0.8,0,1.5,0.1,2.1,0.4
			c0.6,0.3,1.1,0.7,1.6,1.3c0.4,0.6,0.8,1.3,1,2.1s0.4,1.8,0.4,2.9c0,1-0.1,1.9-0.4,2.7c-0.3,0.8-0.6,1.6-1.1,2.2
			c-0.5,0.6-1.1,1.1-1.8,1.4c-0.7,0.4-1.5,0.5-2.4,0.5c-0.8,0-1.5-0.1-2.1-0.4c-0.6-0.3-1.1-0.7-1.5-1.1v5.8h-2.3v-17.6h1.4
			c0.3,0,0.5,0.2,0.6,0.5L428.8,256.1z M428.9,264.1c0.4,0.6,0.9,1,1.4,1.2c0.5,0.2,1.1,0.4,1.7,0.4c1.2,0,2.2-0.4,2.8-1.3
			c0.7-0.9,1-2.1,1-3.7c0-0.9-0.1-1.6-0.2-2.2c-0.2-0.6-0.4-1.1-0.7-1.5c-0.3-0.4-0.6-0.7-1.1-0.9c-0.4-0.2-0.9-0.3-1.4-0.3
			c-0.8,0-1.4,0.2-2,0.5c-0.6,0.3-1.1,0.8-1.6,1.5V264.1z"/>
		<path class="st1" d="M440.8,256c0.7-0.7,1.5-1.2,2.4-1.6c0.8-0.3,1.8-0.5,2.8-0.5c0.7,0,1.4,0.1,2,0.4c0.6,0.2,1.1,0.6,1.4,1
			c0.4,0.4,0.7,1,0.9,1.6c0.2,0.6,0.3,1.3,0.3,2v8.4h-1c-0.2,0-0.4,0-0.5-0.1c-0.1-0.1-0.2-0.2-0.3-0.4l-0.3-1.2
			c-0.3,0.3-0.7,0.6-1,0.9c-0.3,0.2-0.7,0.5-1,0.6c-0.4,0.2-0.8,0.3-1.2,0.4c-0.4,0.1-0.9,0.1-1.4,0.1c-0.5,0-1-0.1-1.4-0.2
			c-0.5-0.1-0.8-0.4-1.2-0.6c-0.3-0.3-0.6-0.6-0.8-1.1c-0.2-0.4-0.3-1-0.3-1.6c0-0.5,0.1-1,0.4-1.5c0.3-0.5,0.7-0.9,1.4-1.3
			c0.6-0.4,1.5-0.7,2.5-0.9c1-0.2,2.3-0.4,3.8-0.4v-1c0-1-0.2-1.8-0.7-2.3c-0.4-0.5-1.1-0.8-1.9-0.8c-0.6,0-1.1,0.1-1.4,0.2
			c-0.4,0.1-0.7,0.3-1,0.5c-0.3,0.2-0.5,0.3-0.7,0.5c-0.2,0.1-0.4,0.2-0.6,0.2c-0.2,0-0.3,0-0.4-0.1c-0.1-0.1-0.2-0.2-0.3-0.3
			L440.8,256z M448.3,261.3c-1.1,0-2,0.1-2.7,0.3c-0.7,0.1-1.4,0.3-1.8,0.5c-0.5,0.2-0.8,0.5-1,0.8c-0.2,0.3-0.3,0.6-0.3,1
			c0,0.3,0.1,0.6,0.2,0.9c0.1,0.3,0.3,0.5,0.5,0.6c0.2,0.2,0.4,0.3,0.7,0.4c0.3,0.1,0.5,0.1,0.9,0.1c0.4,0,0.8,0,1.1-0.1
			c0.3-0.1,0.7-0.2,1-0.4c0.3-0.2,0.6-0.3,0.9-0.6c0.3-0.2,0.5-0.5,0.8-0.7V261.3z"/>
		<path class="st1" d="M466.1,267.3h-2.3V256H457v7.9c0,0.6,0.1,1,0.4,1.2c0.3,0.3,0.6,0.4,1,0.4c0.2,0,0.5,0,0.6-0.1
			c0.2-0.1,0.3-0.1,0.5-0.2c0.1-0.1,0.2-0.1,0.3-0.2c0.1-0.1,0.2-0.1,0.2-0.1c0.1,0,0.2,0.1,0.3,0.2l0.7,1.1
			c-0.4,0.4-0.9,0.7-1.4,0.9c-0.6,0.2-1.1,0.3-1.7,0.3c-1,0-1.8-0.3-2.4-0.9c-0.6-0.6-0.8-1.4-0.8-2.5V256h-1.6
			c-0.1,0-0.3,0-0.4-0.1c-0.1-0.1-0.1-0.2-0.1-0.4v-0.9l2.2-0.3l0.5-4.1c0-0.1,0.1-0.2,0.2-0.3c0.1-0.1,0.2-0.1,0.4-0.1h1.2v4.5h9.1
			V267.3z M466.7,249.9c0,0.2,0,0.4-0.1,0.6c-0.1,0.2-0.2,0.4-0.4,0.5c-0.2,0.1-0.3,0.3-0.5,0.4c-0.2,0.1-0.4,0.1-0.6,0.1
			c-0.2,0-0.4,0-0.6-0.1c-0.2-0.1-0.4-0.2-0.5-0.4c-0.1-0.1-0.3-0.3-0.4-0.5c-0.1-0.2-0.1-0.4-0.1-0.6c0-0.2,0-0.4,0.1-0.6
			c0.1-0.2,0.2-0.4,0.4-0.5c0.1-0.2,0.3-0.3,0.5-0.4c0.2-0.1,0.4-0.1,0.6-0.1c0.2,0,0.4,0,0.6,0.1c0.2,0.1,0.4,0.2,0.5,0.4
			c0.2,0.2,0.3,0.3,0.4,0.5C466.6,249.4,466.7,249.6,466.7,249.9z"/>
		<path class="st1" d="M475.5,253.9c1,0,1.8,0.2,2.6,0.5c0.8,0.3,1.4,0.8,2,1.4c0.5,0.6,1,1.3,1.3,2.1c0.3,0.8,0.4,1.8,0.4,2.8
			c0,1-0.1,2-0.4,2.8c-0.3,0.8-0.7,1.5-1.3,2.1c-0.5,0.6-1.2,1-2,1.4c-0.8,0.3-1.6,0.5-2.6,0.5c-1,0-1.8-0.2-2.6-0.5s-1.4-0.8-2-1.4
			c-0.5-0.6-1-1.3-1.3-2.1c-0.3-0.8-0.4-1.8-0.4-2.8c0-1,0.1-2,0.4-2.8c0.3-0.8,0.7-1.6,1.3-2.1c0.5-0.6,1.2-1,2-1.4
			S474.5,253.9,475.5,253.9z M475.5,265.6c1.3,0,2.3-0.4,2.9-1.3c0.6-0.9,1-2.1,1-3.6c0-1.6-0.3-2.8-1-3.7c-0.6-0.9-1.6-1.3-2.9-1.3
			c-0.7,0-1.2,0.1-1.7,0.3c-0.5,0.2-0.9,0.6-1.2,1c-0.3,0.4-0.6,0.9-0.7,1.6c-0.2,0.6-0.2,1.3-0.2,2.1c0,1.6,0.3,2.8,1,3.6
			C473.2,265.2,474.2,265.6,475.5,265.6z"/>
		<path class="st1" d="M486.9,256c0.3-0.3,0.6-0.6,0.9-0.9c0.3-0.3,0.7-0.5,1-0.7c0.4-0.2,0.7-0.3,1.1-0.4c0.4-0.1,0.8-0.1,1.3-0.1
			c0.7,0,1.4,0.1,1.9,0.4c0.6,0.2,1,0.6,1.4,1c0.4,0.4,0.6,1,0.8,1.6c0.2,0.6,0.3,1.3,0.3,2v8.4h-2.3v-8.4c0-1-0.2-1.8-0.7-2.3
			c-0.5-0.6-1.1-0.8-2.1-0.8c-0.7,0-1.3,0.2-1.9,0.5c-0.6,0.3-1.1,0.8-1.6,1.3v9.7h-2.3v-13.2h1.4c0.3,0,0.5,0.2,0.6,0.5L486.9,256z
			"/>
	</g>
	<g>
		<path class="st0" d="M165.6,308.7h-2.2c-0.5,0-0.8-0.2-1-0.5l-4.8-6.7c-0.1-0.2-0.3-0.4-0.5-0.4c-0.2-0.1-0.4-0.1-0.8-0.1h-1.9
			v7.8h-2.5v-18.6h5.3c1.2,0,2.2,0.1,3.1,0.4c0.9,0.2,1.6,0.6,2.1,1c0.6,0.5,1,1,1.2,1.6s0.4,1.4,0.4,2.1c0,0.7-0.1,1.3-0.3,1.8
			c-0.2,0.6-0.5,1.1-0.9,1.5c-0.4,0.5-0.9,0.8-1.4,1.2c-0.6,0.3-1.2,0.6-1.9,0.7c0.3,0.2,0.6,0.4,0.8,0.8L165.6,308.7z M156.9,299.1
			c0.7,0,1.4-0.1,1.9-0.3c0.6-0.2,1-0.4,1.4-0.8c0.4-0.3,0.7-0.7,0.9-1.2c0.2-0.5,0.3-1,0.3-1.5c0-1.1-0.4-1.9-1.1-2.5
			c-0.7-0.6-1.8-0.8-3.3-0.8h-2.8v7H156.9z"/>
		<path class="st0" d="M179.6,306.7l0,2.1h-11.5v-18.6h11.5v2.1h-9v6.2h7.3v2h-7.3v6.4H179.6z"/>
		<path class="st0" d="M192.6,293c-0.1,0.1-0.2,0.2-0.3,0.3c-0.1,0.1-0.2,0.1-0.3,0.1c-0.1,0-0.3-0.1-0.5-0.2
			c-0.2-0.1-0.4-0.3-0.7-0.5c-0.3-0.2-0.7-0.3-1.1-0.5c-0.4-0.1-0.9-0.2-1.5-0.2c-0.6,0-1.1,0.1-1.5,0.2c-0.4,0.2-0.8,0.4-1.1,0.6
			c-0.3,0.3-0.5,0.6-0.7,0.9c-0.1,0.4-0.2,0.7-0.2,1.1c0,0.5,0.1,1,0.4,1.3c0.3,0.3,0.6,0.6,1,0.9c0.4,0.2,0.9,0.5,1.4,0.6
			c0.5,0.2,1.1,0.4,1.6,0.6c0.6,0.2,1.1,0.4,1.6,0.6s1,0.5,1.4,0.9s0.8,0.8,1,1.3c0.3,0.5,0.4,1.2,0.4,2c0,0.8-0.1,1.6-0.4,2.3
			c-0.3,0.7-0.7,1.3-1.2,1.9c-0.5,0.5-1.2,0.9-2,1.2c-0.8,0.3-1.7,0.5-2.6,0.5c-1.2,0-2.3-0.2-3.3-0.7c-1-0.4-1.8-1-2.5-1.8l0.7-1.2
			c0.1-0.1,0.2-0.2,0.3-0.2c0.1-0.1,0.2-0.1,0.3-0.1c0.1,0,0.2,0,0.4,0.1c0.1,0.1,0.3,0.2,0.5,0.3c0.2,0.1,0.4,0.3,0.6,0.5
			c0.2,0.2,0.5,0.3,0.8,0.5c0.3,0.1,0.6,0.3,1,0.3c0.4,0.1,0.8,0.1,1.3,0.1c0.6,0,1.1-0.1,1.6-0.2c0.5-0.2,0.9-0.4,1.2-0.7
			c0.3-0.3,0.6-0.7,0.7-1.1c0.2-0.4,0.3-0.9,0.3-1.4c0-0.6-0.1-1-0.4-1.4c-0.3-0.4-0.6-0.7-1-0.9c-0.4-0.2-0.9-0.4-1.4-0.6
			c-0.5-0.2-1.1-0.3-1.6-0.5c-0.6-0.2-1.1-0.4-1.6-0.6c-0.5-0.2-1-0.5-1.4-0.9c-0.4-0.4-0.8-0.8-1-1.4c-0.3-0.6-0.4-1.3-0.4-2.1
			c0-0.7,0.1-1.3,0.4-1.9c0.3-0.6,0.6-1.2,1.1-1.6c0.5-0.5,1.1-0.9,1.8-1.1c0.7-0.3,1.5-0.4,2.5-0.4c1,0,2,0.2,2.8,0.5
			c0.9,0.3,1.6,0.8,2.3,1.4L192.6,293z"/>
		<path class="st0" d="M209.8,292.2h-6v16.5h-2.5v-16.5h-6.1v-2.1h14.6V292.2z"/>
		<path class="st0" d="M226.4,308.7h-2.2c-0.5,0-0.8-0.2-1-0.5l-4.8-6.7c-0.1-0.2-0.3-0.4-0.5-0.4c-0.2-0.1-0.4-0.1-0.8-0.1h-1.9
			v7.8h-2.5v-18.6h5.3c1.2,0,2.2,0.1,3.1,0.4c0.9,0.2,1.6,0.6,2.1,1c0.6,0.5,1,1,1.2,1.6s0.4,1.4,0.4,2.1c0,0.7-0.1,1.3-0.3,1.8
			c-0.2,0.6-0.5,1.1-0.9,1.5c-0.4,0.5-0.9,0.8-1.4,1.2c-0.6,0.3-1.2,0.6-1.9,0.7c0.3,0.2,0.6,0.4,0.8,0.8L226.4,308.7z M217.7,299.1
			c0.7,0,1.4-0.1,1.9-0.3c0.6-0.2,1-0.4,1.4-0.8c0.4-0.3,0.7-0.7,0.9-1.2c0.2-0.5,0.3-1,0.3-1.5c0-1.1-0.4-1.9-1.1-2.5
			c-0.7-0.6-1.8-0.8-3.3-0.8h-2.8v7H217.7z"/>
		<path class="st0" d="M231.4,308.7h-2.5v-18.6h2.5V308.7z"/>
		<path class="st0" d="M249.3,304.9c0.1,0,0.3,0.1,0.4,0.2l1,1.1c-0.8,0.9-1.7,1.6-2.8,2.1s-2.4,0.7-3.9,0.7c-1.3,0-2.6-0.2-3.6-0.7
			c-1.1-0.5-2-1.1-2.8-2c-0.8-0.8-1.4-1.8-1.8-3c-0.4-1.2-0.6-2.5-0.6-3.9c0-1.4,0.2-2.7,0.7-3.9c0.4-1.2,1.1-2.2,1.9-3
			c0.8-0.8,1.8-1.5,2.9-2c1.1-0.5,2.4-0.7,3.7-0.7c1.3,0,2.5,0.2,3.5,0.6c1,0.4,1.9,1,2.7,1.7l-0.8,1.2c-0.1,0.1-0.1,0.2-0.2,0.2
			c-0.1,0.1-0.2,0.1-0.3,0.1c-0.2,0-0.3-0.1-0.6-0.3c-0.2-0.2-0.5-0.4-0.9-0.6c-0.4-0.2-0.8-0.4-1.4-0.6c-0.5-0.2-1.2-0.3-2-0.3
			c-1,0-1.8,0.2-2.6,0.5c-0.8,0.3-1.5,0.8-2.1,1.4c-0.6,0.6-1,1.4-1.3,2.3c-0.3,0.9-0.5,1.9-0.5,3.1c0,1.2,0.2,2.2,0.5,3.1
			c0.3,0.9,0.8,1.7,1.4,2.3c0.6,0.6,1.3,1.1,2,1.4s1.6,0.5,2.5,0.5c0.6,0,1.1,0,1.5-0.1c0.4-0.1,0.9-0.2,1.2-0.3
			c0.4-0.1,0.7-0.3,1.1-0.5c0.3-0.2,0.6-0.5,1-0.8C249,304.9,249.1,304.9,249.3,304.9z"/>
		<path class="st0" d="M266.2,292.2h-6v16.5h-2.5v-16.5h-6.1v-2.1h14.6V292.2z"/>
		<path class="st0" d="M278.4,293c-0.1,0.1-0.2,0.2-0.3,0.3s-0.2,0.1-0.3,0.1c-0.1,0-0.3-0.1-0.5-0.2c-0.2-0.1-0.4-0.3-0.7-0.5
			s-0.7-0.3-1.1-0.5c-0.4-0.1-0.9-0.2-1.5-0.2c-0.6,0-1.1,0.1-1.5,0.2c-0.4,0.2-0.8,0.4-1.1,0.6c-0.3,0.3-0.5,0.6-0.7,0.9
			s-0.2,0.7-0.2,1.1c0,0.5,0.1,1,0.4,1.3c0.3,0.3,0.6,0.6,1,0.9c0.4,0.2,0.9,0.5,1.4,0.6c0.5,0.2,1.1,0.4,1.6,0.6
			c0.6,0.2,1.1,0.4,1.6,0.6c0.5,0.2,1,0.5,1.4,0.9c0.4,0.4,0.8,0.8,1,1.3c0.3,0.5,0.4,1.2,0.4,2c0,0.8-0.1,1.6-0.4,2.3
			c-0.3,0.7-0.7,1.3-1.2,1.9c-0.5,0.5-1.2,0.9-2,1.2c-0.8,0.3-1.7,0.5-2.6,0.5c-1.2,0-2.3-0.2-3.3-0.7c-1-0.4-1.8-1-2.5-1.8l0.7-1.2
			c0.1-0.1,0.2-0.2,0.3-0.2c0.1-0.1,0.2-0.1,0.3-0.1c0.1,0,0.2,0,0.4,0.1c0.1,0.1,0.3,0.2,0.5,0.3c0.2,0.1,0.4,0.3,0.6,0.5
			c0.2,0.2,0.5,0.3,0.8,0.5c0.3,0.1,0.6,0.3,1,0.3c0.4,0.1,0.8,0.1,1.3,0.1c0.6,0,1.1-0.1,1.6-0.2c0.5-0.2,0.9-0.4,1.2-0.7
			c0.3-0.3,0.6-0.7,0.7-1.1c0.2-0.4,0.3-0.9,0.3-1.4c0-0.6-0.1-1-0.4-1.4c-0.3-0.4-0.6-0.7-1-0.9c-0.4-0.2-0.9-0.4-1.4-0.6
			c-0.5-0.2-1.1-0.3-1.6-0.5c-0.6-0.2-1.1-0.4-1.6-0.6c-0.5-0.2-1-0.5-1.4-0.9c-0.4-0.4-0.8-0.8-1-1.4c-0.3-0.6-0.4-1.3-0.4-2.1
			c0-0.7,0.1-1.3,0.4-1.9c0.3-0.6,0.6-1.2,1.1-1.6c0.5-0.5,1.1-0.9,1.8-1.1c0.7-0.3,1.5-0.4,2.5-0.4c1,0,2,0.2,2.8,0.5
			c0.9,0.3,1.6,0.8,2.3,1.4L278.4,293z"/>
		<path class="st1" d="M294.6,295.3c1,0,1.8,0.2,2.6,0.5c0.8,0.3,1.4,0.8,2,1.4c0.5,0.6,1,1.3,1.3,2.1s0.4,1.8,0.4,2.8
			c0,1-0.1,2-0.4,2.8c-0.3,0.8-0.7,1.5-1.3,2.1c-0.5,0.6-1.2,1-2,1.4c-0.8,0.3-1.6,0.5-2.6,0.5c-1,0-1.8-0.2-2.6-0.5
			c-0.8-0.3-1.4-0.8-2-1.4c-0.5-0.6-1-1.3-1.3-2.1c-0.3-0.8-0.4-1.8-0.4-2.8c0-1,0.1-2,0.4-2.8c0.3-0.8,0.7-1.6,1.3-2.1
			c0.5-0.6,1.2-1,2-1.4C292.8,295.5,293.7,295.3,294.6,295.3z M294.6,307.1c1.3,0,2.3-0.4,2.9-1.3c0.6-0.9,1-2.1,1-3.7
			c0-1.6-0.3-2.8-1-3.7c-0.6-0.9-1.6-1.3-2.9-1.3c-0.7,0-1.2,0.1-1.7,0.3c-0.5,0.2-0.9,0.6-1.2,1c-0.3,0.4-0.6,0.9-0.7,1.6
			c-0.2,0.6-0.2,1.3-0.2,2.1c0,1.6,0.3,2.8,1,3.7C292.3,306.7,293.3,307.1,294.6,307.1z"/>
		<path class="st1" d="M313,297.9c-0.1,0.1-0.1,0.2-0.2,0.2c-0.1,0.1-0.2,0.1-0.3,0.1c-0.1,0-0.3-0.1-0.4-0.2
			c-0.2-0.1-0.4-0.2-0.6-0.4c-0.2-0.1-0.5-0.2-0.8-0.4c-0.3-0.1-0.7-0.2-1.2-0.2c-0.7,0-1.2,0.1-1.7,0.3s-0.9,0.6-1.2,1
			c-0.3,0.4-0.6,1-0.8,1.6c-0.2,0.6-0.3,1.3-0.3,2.1c0,0.8,0.1,1.5,0.3,2.1c0.2,0.6,0.4,1.1,0.8,1.6c0.3,0.4,0.7,0.7,1.2,1
			c0.5,0.2,1,0.3,1.6,0.3c0.6,0,1-0.1,1.4-0.2c0.4-0.1,0.7-0.3,0.9-0.4c0.2-0.2,0.4-0.3,0.6-0.4c0.2-0.1,0.3-0.2,0.5-0.2
			c0.2,0,0.3,0.1,0.4,0.2l0.7,0.8c-0.3,0.4-0.6,0.7-1,0.9c-0.4,0.3-0.8,0.5-1.2,0.6c-0.4,0.2-0.9,0.3-1.3,0.4
			c-0.5,0.1-0.9,0.1-1.4,0.1c-0.8,0-1.6-0.2-2.3-0.5c-0.7-0.3-1.3-0.7-1.8-1.3c-0.5-0.6-0.9-1.3-1.2-2.1c-0.3-0.8-0.4-1.8-0.4-2.9
			c0-1,0.1-1.9,0.4-2.7c0.3-0.8,0.7-1.6,1.2-2.2c0.5-0.6,1.2-1.1,1.9-1.4c0.8-0.3,1.7-0.5,2.6-0.5c0.9,0,1.7,0.1,2.5,0.4
			c0.7,0.3,1.3,0.7,1.9,1.3L313,297.9z"/>
		<path class="st1" d="M325.2,297.9c-0.1,0.1-0.1,0.2-0.2,0.2c-0.1,0.1-0.2,0.1-0.3,0.1c-0.1,0-0.3-0.1-0.4-0.2
			c-0.2-0.1-0.3-0.2-0.6-0.4c-0.2-0.1-0.5-0.2-0.8-0.4c-0.3-0.1-0.7-0.2-1.2-0.2c-0.7,0-1.2,0.1-1.7,0.3c-0.5,0.2-0.9,0.6-1.2,1
			c-0.3,0.4-0.6,1-0.8,1.6c-0.2,0.6-0.3,1.3-0.3,2.1c0,0.8,0.1,1.5,0.3,2.1c0.2,0.6,0.4,1.1,0.8,1.6c0.3,0.4,0.7,0.7,1.2,1
			s1,0.3,1.6,0.3c0.6,0,1-0.1,1.4-0.2c0.4-0.1,0.7-0.3,0.9-0.4c0.2-0.2,0.4-0.3,0.6-0.4c0.2-0.1,0.3-0.2,0.5-0.2
			c0.2,0,0.3,0.1,0.4,0.2l0.7,0.8c-0.3,0.4-0.6,0.7-1,0.9c-0.4,0.3-0.8,0.5-1.2,0.6c-0.4,0.2-0.9,0.3-1.3,0.4
			c-0.5,0.1-0.9,0.1-1.4,0.1c-0.8,0-1.6-0.2-2.3-0.5c-0.7-0.3-1.3-0.7-1.8-1.3c-0.5-0.6-0.9-1.3-1.2-2.1c-0.3-0.8-0.4-1.8-0.4-2.9
			c0-1,0.1-1.9,0.4-2.7c0.3-0.8,0.7-1.6,1.2-2.2s1.2-1.1,1.9-1.4c0.8-0.3,1.7-0.5,2.6-0.5c0.9,0,1.7,0.1,2.5,0.4
			c0.7,0.3,1.3,0.7,1.9,1.3L325.2,297.9z"/>
		<path class="st1" d="M339.3,295.5v13.2h-1.4c-0.3,0-0.5-0.2-0.6-0.5l-0.2-1.4c-0.6,0.6-1.2,1.1-1.9,1.5s-1.5,0.6-2.4,0.6
			c-0.7,0-1.4-0.1-1.9-0.4c-0.6-0.2-1-0.6-1.4-1c-0.4-0.4-0.7-1-0.8-1.6c-0.2-0.6-0.3-1.3-0.3-2v-8.4h2.3v8.4c0,1,0.2,1.8,0.7,2.3
			c0.5,0.5,1.2,0.8,2.1,0.8c0.7,0,1.3-0.2,1.9-0.5c0.6-0.3,1.1-0.8,1.6-1.3v-9.7H339.3z"/>
		<path class="st1" d="M345.2,297.6c0.6-0.7,1.2-1.2,1.9-1.7c0.7-0.4,1.6-0.6,2.5-0.6c0.8,0,1.5,0.1,2.1,0.4
			c0.6,0.3,1.1,0.7,1.6,1.3c0.4,0.6,0.8,1.3,1,2.1c0.2,0.8,0.4,1.8,0.4,2.9c0,1-0.1,1.9-0.4,2.7c-0.3,0.8-0.6,1.6-1.1,2.2
			c-0.5,0.6-1.1,1.1-1.8,1.4c-0.7,0.4-1.5,0.5-2.4,0.5c-0.8,0-1.5-0.1-2.1-0.4c-0.6-0.3-1.1-0.7-1.5-1.1v5.8h-2.3v-17.6h1.4
			c0.3,0,0.5,0.2,0.6,0.5L345.2,297.6z M345.3,305.5c0.4,0.6,0.9,1,1.4,1.2c0.5,0.2,1.1,0.4,1.7,0.4c1.2,0,2.2-0.4,2.8-1.3
			c0.7-0.9,1-2.1,1-3.7c0-0.9-0.1-1.6-0.2-2.2c-0.2-0.6-0.4-1.1-0.7-1.5c-0.3-0.4-0.6-0.7-1.1-0.9s-0.9-0.3-1.4-0.3
			c-0.8,0-1.4,0.2-2,0.5c-0.6,0.3-1.1,0.8-1.6,1.5V305.5z"/>
		<path class="st1" d="M357.2,297.4c0.7-0.7,1.5-1.2,2.4-1.6s1.8-0.5,2.8-0.5c0.7,0,1.4,0.1,2,0.4c0.6,0.2,1.1,0.6,1.4,1
			c0.4,0.4,0.7,1,0.9,1.6c0.2,0.6,0.3,1.3,0.3,2v8.4h-1c-0.2,0-0.4,0-0.5-0.1c-0.1-0.1-0.2-0.2-0.3-0.4l-0.3-1.2
			c-0.3,0.3-0.7,0.6-1,0.9c-0.3,0.2-0.7,0.5-1,0.6c-0.4,0.2-0.8,0.3-1.2,0.4c-0.4,0.1-0.9,0.1-1.4,0.1c-0.5,0-1-0.1-1.4-0.2
			c-0.5-0.1-0.8-0.4-1.2-0.6c-0.3-0.3-0.6-0.6-0.8-1.1c-0.2-0.4-0.3-1-0.3-1.6c0-0.5,0.1-1,0.4-1.5c0.3-0.5,0.8-0.9,1.4-1.3
			c0.6-0.4,1.5-0.7,2.5-0.9c1-0.2,2.3-0.4,3.8-0.4v-1c0-1-0.2-1.8-0.7-2.3c-0.4-0.5-1.1-0.8-1.9-0.8c-0.6,0-1.1,0.1-1.4,0.2
			c-0.4,0.1-0.7,0.3-1,0.5s-0.5,0.3-0.7,0.5c-0.2,0.1-0.4,0.2-0.6,0.2c-0.2,0-0.3,0-0.4-0.1c-0.1-0.1-0.2-0.2-0.3-0.3L357.2,297.4z
			 M364.7,302.8c-1.1,0-2,0.1-2.7,0.3c-0.8,0.1-1.4,0.3-1.8,0.5c-0.5,0.2-0.8,0.5-1,0.8c-0.2,0.3-0.3,0.6-0.3,1
			c0,0.3,0.1,0.6,0.2,0.9c0.1,0.3,0.3,0.5,0.5,0.6c0.2,0.2,0.4,0.3,0.7,0.4c0.3,0.1,0.5,0.1,0.9,0.1c0.4,0,0.8,0,1.1-0.1
			c0.3-0.1,0.7-0.2,1-0.4c0.3-0.2,0.6-0.3,0.9-0.6c0.3-0.2,0.5-0.5,0.8-0.7V302.8z"/>
		<path class="st1" d="M382.5,308.7h-2.3v-11.2h-6.8v7.9c0,0.6,0.1,1,0.4,1.2c0.3,0.3,0.6,0.4,1,0.4c0.2,0,0.5,0,0.6-0.1
			c0.2-0.1,0.3-0.1,0.5-0.2c0.1-0.1,0.2-0.1,0.3-0.2c0.1-0.1,0.2-0.1,0.2-0.1c0.1,0,0.2,0.1,0.3,0.2l0.7,1.1
			c-0.4,0.4-0.9,0.7-1.4,0.9c-0.6,0.2-1.1,0.3-1.7,0.3c-1,0-1.8-0.3-2.4-0.9c-0.6-0.6-0.8-1.4-0.8-2.5v-8.1h-1.6
			c-0.1,0-0.3,0-0.4-0.1c-0.1-0.1-0.1-0.2-0.1-0.4V296l2.2-0.3l0.5-4.1c0-0.1,0.1-0.2,0.2-0.3c0.1-0.1,0.2-0.1,0.4-0.1h1.2v4.5h9.1
			V308.7z M383.1,291.3c0,0.2,0,0.4-0.1,0.6c-0.1,0.2-0.2,0.4-0.4,0.5c-0.2,0.1-0.3,0.3-0.5,0.4c-0.2,0.1-0.4,0.1-0.6,0.1
			c-0.2,0-0.4,0-0.6-0.1c-0.2-0.1-0.4-0.2-0.5-0.4c-0.1-0.1-0.3-0.3-0.4-0.5c-0.1-0.2-0.1-0.4-0.1-0.6c0-0.2,0-0.4,0.1-0.6
			c0.1-0.2,0.2-0.4,0.4-0.5c0.1-0.2,0.3-0.3,0.5-0.4c0.2-0.1,0.4-0.1,0.6-0.1c0.2,0,0.4,0,0.6,0.1c0.2,0.1,0.4,0.2,0.5,0.4
			c0.2,0.2,0.3,0.3,0.4,0.5C383.1,290.9,383.1,291.1,383.1,291.3z"/>
		<path class="st1" d="M391.9,295.3c1,0,1.8,0.2,2.6,0.5c0.8,0.3,1.4,0.8,2,1.4c0.5,0.6,1,1.3,1.3,2.1s0.4,1.8,0.4,2.8
			c0,1-0.1,2-0.4,2.8c-0.3,0.8-0.7,1.5-1.3,2.1c-0.5,0.6-1.2,1-2,1.4c-0.8,0.3-1.6,0.5-2.6,0.5c-1,0-1.8-0.2-2.6-0.5
			c-0.8-0.3-1.4-0.8-2-1.4c-0.5-0.6-1-1.3-1.3-2.1c-0.3-0.8-0.4-1.8-0.4-2.8c0-1,0.1-2,0.4-2.8c0.3-0.8,0.7-1.6,1.3-2.1
			c0.5-0.6,1.2-1,2-1.4C390,295.5,390.9,295.3,391.9,295.3z M391.9,307.1c1.3,0,2.3-0.4,2.9-1.3c0.6-0.9,1-2.1,1-3.7
			c0-1.6-0.3-2.8-1-3.7c-0.6-0.9-1.6-1.3-2.9-1.3c-0.7,0-1.2,0.1-1.7,0.3c-0.5,0.2-0.9,0.6-1.2,1s-0.6,0.9-0.7,1.6
			c-0.2,0.6-0.2,1.3-0.2,2.1c0,1.6,0.3,2.8,1,3.7C389.6,306.7,390.6,307.1,391.9,307.1z"/>
		<path class="st1" d="M403.3,297.4c0.3-0.3,0.6-0.6,0.9-0.9c0.3-0.3,0.7-0.5,1-0.7c0.4-0.2,0.7-0.3,1.1-0.4
			c0.4-0.1,0.8-0.1,1.3-0.1c0.7,0,1.4,0.1,1.9,0.4c0.6,0.2,1,0.6,1.4,1c0.4,0.4,0.6,1,0.8,1.6c0.2,0.6,0.3,1.3,0.3,2v8.4h-2.3v-8.4
			c0-1-0.2-1.8-0.7-2.3c-0.5-0.6-1.1-0.8-2.1-0.8c-0.7,0-1.3,0.2-1.9,0.5c-0.6,0.3-1.1,0.8-1.6,1.3v9.7h-2.3v-13.2h1.4
			c0.3,0,0.5,0.2,0.6,0.5L403.3,297.4z"/>
		<path class="st1" d="M415.3,297.4c0.7-0.7,1.5-1.2,2.4-1.6s1.8-0.5,2.8-0.5c0.7,0,1.4,0.1,2,0.4c0.6,0.2,1.1,0.6,1.4,1
			c0.4,0.4,0.7,1,0.9,1.6c0.2,0.6,0.3,1.3,0.3,2v8.4h-1c-0.2,0-0.4,0-0.5-0.1c-0.1-0.1-0.2-0.2-0.3-0.4l-0.3-1.2
			c-0.3,0.3-0.7,0.6-1,0.9c-0.3,0.2-0.7,0.5-1,0.6c-0.4,0.2-0.8,0.3-1.2,0.4c-0.4,0.1-0.9,0.1-1.4,0.1c-0.5,0-1-0.1-1.4-0.2
			c-0.5-0.1-0.8-0.4-1.2-0.6c-0.3-0.3-0.6-0.6-0.8-1.1c-0.2-0.4-0.3-1-0.3-1.6c0-0.5,0.1-1,0.4-1.5c0.3-0.5,0.8-0.9,1.4-1.3
			c0.6-0.4,1.5-0.7,2.5-0.9c1-0.2,2.3-0.4,3.8-0.4v-1c0-1-0.2-1.8-0.7-2.3c-0.4-0.5-1.1-0.8-1.9-0.8c-0.6,0-1.1,0.1-1.4,0.2
			c-0.4,0.1-0.7,0.3-1,0.5s-0.5,0.3-0.7,0.5c-0.2,0.1-0.4,0.2-0.6,0.2c-0.2,0-0.3,0-0.4-0.1c-0.1-0.1-0.2-0.2-0.3-0.3L415.3,297.4z
			 M422.7,302.8c-1.1,0-2,0.1-2.7,0.3c-0.8,0.1-1.4,0.3-1.8,0.5c-0.5,0.2-0.8,0.5-1,0.8c-0.2,0.3-0.3,0.6-0.3,1
			c0,0.3,0.1,0.6,0.2,0.9c0.1,0.3,0.3,0.5,0.5,0.6c0.2,0.2,0.4,0.3,0.7,0.4c0.3,0.1,0.5,0.1,0.9,0.1c0.4,0,0.8,0,1.1-0.1
			c0.3-0.1,0.7-0.2,1-0.4c0.3-0.2,0.6-0.3,0.9-0.6c0.3-0.2,0.5-0.5,0.8-0.7V302.8z"/>
		<path class="st1" d="M430.9,289.6v19.2h-2.3v-19.2H430.9z"/>
		<path class="st1" d="M443.5,297.6c0.6-0.7,1.2-1.2,1.9-1.7c0.7-0.4,1.6-0.6,2.5-0.6c0.8,0,1.5,0.1,2.1,0.4
			c0.6,0.3,1.1,0.7,1.6,1.3c0.4,0.6,0.8,1.3,1,2.1s0.4,1.8,0.4,2.9c0,1-0.1,1.9-0.4,2.7c-0.3,0.8-0.6,1.6-1.1,2.2
			c-0.5,0.6-1.1,1.1-1.8,1.4c-0.7,0.4-1.5,0.5-2.4,0.5c-0.8,0-1.5-0.1-2.1-0.4c-0.6-0.3-1.1-0.7-1.5-1.1v5.8h-2.3v-17.6h1.4
			c0.3,0,0.5,0.2,0.6,0.5L443.5,297.6z M443.7,305.5c0.4,0.6,0.9,1,1.4,1.2c0.5,0.2,1.1,0.4,1.7,0.4c1.2,0,2.2-0.4,2.8-1.3
			c0.7-0.9,1-2.1,1-3.7c0-0.9-0.1-1.6-0.2-2.2c-0.2-0.6-0.4-1.1-0.7-1.5c-0.3-0.4-0.6-0.7-1.1-0.9s-0.9-0.3-1.4-0.3
			c-0.8,0-1.4,0.2-2,0.5c-0.6,0.3-1.1,0.8-1.6,1.5V305.5z"/>
		<path class="st1" d="M455.6,297.4c0.7-0.7,1.5-1.2,2.4-1.6s1.8-0.5,2.8-0.5c0.7,0,1.4,0.1,2,0.4c0.6,0.2,1.1,0.6,1.4,1
			c0.4,0.4,0.7,1,0.9,1.6c0.2,0.6,0.3,1.3,0.3,2v8.4h-1c-0.2,0-0.4,0-0.5-0.1c-0.1-0.1-0.2-0.2-0.3-0.4l-0.3-1.2
			c-0.3,0.3-0.7,0.6-1,0.9c-0.3,0.2-0.7,0.5-1,0.6c-0.4,0.2-0.8,0.3-1.2,0.4c-0.4,0.1-0.9,0.1-1.4,0.1c-0.5,0-1-0.1-1.4-0.2
			c-0.5-0.1-0.8-0.4-1.2-0.6c-0.3-0.3-0.6-0.6-0.8-1.1c-0.2-0.4-0.3-1-0.3-1.6c0-0.5,0.1-1,0.4-1.5c0.3-0.5,0.8-0.9,1.4-1.3
			c0.6-0.4,1.5-0.7,2.5-0.9c1-0.2,2.3-0.4,3.8-0.4v-1c0-1-0.2-1.8-0.7-2.3c-0.4-0.5-1.1-0.8-1.9-0.8c-0.6,0-1.1,0.1-1.4,0.2
			c-0.4,0.1-0.7,0.3-1,0.5s-0.5,0.3-0.7,0.5c-0.2,0.1-0.4,0.2-0.6,0.2c-0.2,0-0.3,0-0.4-0.1c-0.1-0.1-0.2-0.2-0.3-0.3L455.6,297.4z
			 M463.1,302.8c-1.1,0-2,0.1-2.7,0.3c-0.8,0.1-1.4,0.3-1.8,0.5c-0.5,0.2-0.8,0.5-1,0.8c-0.2,0.3-0.3,0.6-0.3,1
			c0,0.3,0.1,0.6,0.2,0.9c0.1,0.3,0.3,0.5,0.5,0.6c0.2,0.2,0.4,0.3,0.7,0.4c0.3,0.1,0.5,0.1,0.9,0.1c0.4,0,0.8,0,1.1-0.1
			c0.3-0.1,0.7-0.2,1-0.4c0.3-0.2,0.6-0.3,0.9-0.6c0.3-0.2,0.5-0.5,0.8-0.7V302.8z"/>
		<path class="st1" d="M471.1,298.2c0.4-0.9,0.9-1.6,1.5-2.1c0.6-0.5,1.3-0.8,2.2-0.8c0.3,0,0.5,0,0.8,0.1s0.5,0.2,0.7,0.3l-0.2,1.7
			c-0.1,0.2-0.2,0.3-0.4,0.3c-0.1,0-0.3,0-0.5-0.1c-0.2-0.1-0.5-0.1-0.8-0.1c-0.4,0-0.8,0.1-1.1,0.2c-0.3,0.1-0.6,0.3-0.9,0.5
			s-0.5,0.5-0.7,0.9c-0.2,0.4-0.4,0.8-0.6,1.2v8.3h-2.3v-13.2h1.3c0.3,0,0.4,0,0.5,0.1c0.1,0.1,0.2,0.3,0.2,0.5L471.1,298.2z"/>
		<path class="st1" d="M490.6,308.7h-2.3v-11.2h-6.8v7.9c0,0.6,0.1,1,0.4,1.2c0.3,0.3,0.6,0.4,1,0.4c0.2,0,0.5,0,0.6-0.1
			c0.2-0.1,0.3-0.1,0.5-0.2c0.1-0.1,0.2-0.1,0.3-0.2c0.1-0.1,0.2-0.1,0.2-0.1c0.1,0,0.2,0.1,0.3,0.2l0.7,1.1
			c-0.4,0.4-0.9,0.7-1.4,0.9c-0.6,0.2-1.1,0.3-1.7,0.3c-1,0-1.8-0.3-2.4-0.9c-0.6-0.6-0.8-1.4-0.8-2.5v-8.1h-1.6
			c-0.1,0-0.3,0-0.4-0.1c-0.1-0.1-0.1-0.2-0.1-0.4V296l2.2-0.3l0.5-4.1c0-0.1,0.1-0.2,0.2-0.3c0.1-0.1,0.2-0.1,0.4-0.1h1.2v4.5h9.1
			V308.7z M491.1,291.3c0,0.2,0,0.4-0.1,0.6c-0.1,0.2-0.2,0.4-0.4,0.5c-0.2,0.1-0.3,0.3-0.5,0.4c-0.2,0.1-0.4,0.1-0.6,0.1
			c-0.2,0-0.4,0-0.6-0.1c-0.2-0.1-0.4-0.2-0.5-0.4c-0.1-0.1-0.3-0.3-0.4-0.5c-0.1-0.2-0.1-0.4-0.1-0.6c0-0.2,0-0.4,0.1-0.6
			c0.1-0.2,0.2-0.4,0.4-0.5c0.1-0.2,0.3-0.3,0.5-0.4c0.2-0.1,0.4-0.1,0.6-0.1c0.2,0,0.4,0,0.6,0.1c0.2,0.1,0.4,0.2,0.5,0.4
			c0.2,0.2,0.3,0.3,0.4,0.5C491.1,290.9,491.1,291.1,491.1,291.3z"/>
		<path class="st1" d="M503.5,297.9c-0.1,0.1-0.1,0.2-0.2,0.2c-0.1,0.1-0.2,0.1-0.3,0.1c-0.1,0-0.3-0.1-0.4-0.2
			c-0.2-0.1-0.4-0.2-0.6-0.4c-0.2-0.1-0.5-0.2-0.8-0.4c-0.3-0.1-0.7-0.2-1.2-0.2c-0.7,0-1.2,0.1-1.7,0.3s-0.9,0.6-1.2,1
			c-0.3,0.4-0.6,1-0.8,1.6c-0.2,0.6-0.3,1.3-0.3,2.1c0,0.8,0.1,1.5,0.3,2.1c0.2,0.6,0.4,1.1,0.8,1.6c0.3,0.4,0.7,0.7,1.2,1
			c0.5,0.2,1,0.3,1.6,0.3c0.6,0,1-0.1,1.4-0.2c0.4-0.1,0.7-0.3,0.9-0.4c0.2-0.2,0.4-0.3,0.6-0.4c0.2-0.1,0.3-0.2,0.5-0.2
			c0.2,0,0.3,0.1,0.4,0.2l0.7,0.8c-0.3,0.4-0.6,0.7-1,0.9c-0.4,0.3-0.8,0.5-1.2,0.6c-0.4,0.2-0.9,0.3-1.3,0.4s-0.9,0.1-1.4,0.1
			c-0.8,0-1.6-0.2-2.3-0.5c-0.7-0.3-1.3-0.7-1.8-1.3c-0.5-0.6-0.9-1.3-1.2-2.1c-0.3-0.8-0.4-1.8-0.4-2.9c0-1,0.1-1.9,0.4-2.7
			c0.3-0.8,0.7-1.6,1.2-2.2c0.5-0.6,1.2-1.1,1.9-1.4c0.8-0.3,1.7-0.5,2.6-0.5c0.9,0,1.7,0.1,2.5,0.4c0.7,0.3,1.3,0.7,1.9,1.3
			L503.5,297.9z"/>
		<path class="st1" d="M509.7,291.4c0,0.2,0,0.4-0.1,0.6c-0.1,0.2-0.2,0.4-0.4,0.5c-0.2,0.2-0.3,0.3-0.5,0.4
			c-0.2,0.1-0.4,0.1-0.6,0.1c-0.2,0-0.4,0-0.6-0.1c-0.2-0.1-0.4-0.2-0.5-0.4c-0.1-0.2-0.3-0.3-0.4-0.5c-0.1-0.2-0.1-0.4-0.1-0.6
			c0-0.2,0-0.4,0.1-0.6c0.1-0.2,0.2-0.4,0.4-0.5c0.1-0.2,0.3-0.3,0.5-0.4c0.2-0.1,0.4-0.1,0.6-0.1c0.2,0,0.4,0,0.6,0.1
			c0.2,0.1,0.4,0.2,0.5,0.4c0.2,0.2,0.3,0.3,0.4,0.5C509.7,291,509.7,291.2,509.7,291.4z M509.2,295.5v13.2h-2.3v-13.2H509.2z"/>
		<path class="st1" d="M515.2,297.6c0.6-0.7,1.2-1.2,1.9-1.7c0.7-0.4,1.6-0.6,2.5-0.6c0.8,0,1.5,0.1,2.1,0.4
			c0.6,0.3,1.1,0.7,1.6,1.3c0.4,0.6,0.8,1.3,1,2.1c0.2,0.8,0.4,1.8,0.4,2.9c0,1-0.1,1.9-0.4,2.7c-0.3,0.8-0.6,1.6-1.1,2.2
			c-0.5,0.6-1.1,1.1-1.8,1.4c-0.7,0.4-1.5,0.5-2.4,0.5c-0.8,0-1.5-0.1-2.1-0.4c-0.6-0.3-1.1-0.7-1.5-1.1v5.8H513v-17.6h1.4
			c0.3,0,0.5,0.2,0.6,0.5L515.2,297.6z M515.4,305.5c0.4,0.6,0.9,1,1.4,1.2c0.5,0.2,1.1,0.4,1.7,0.4c1.2,0,2.2-0.4,2.8-1.3
			c0.7-0.9,1-2.1,1-3.7c0-0.9-0.1-1.6-0.2-2.2c-0.2-0.6-0.4-1.1-0.7-1.5c-0.3-0.4-0.6-0.7-1.1-0.9s-0.9-0.3-1.4-0.3
			c-0.8,0-1.4,0.2-2,0.5c-0.6,0.3-1.1,0.8-1.6,1.5V305.5z"/>
		<path class="st1" d="M527.3,297.4c0.7-0.7,1.5-1.2,2.4-1.6c0.8-0.3,1.8-0.5,2.8-0.5c0.7,0,1.4,0.1,2,0.4c0.6,0.2,1.1,0.6,1.4,1
			c0.4,0.4,0.7,1,0.9,1.6c0.2,0.6,0.3,1.3,0.3,2v8.4h-1c-0.2,0-0.4,0-0.5-0.1c-0.1-0.1-0.2-0.2-0.3-0.4l-0.3-1.2
			c-0.3,0.3-0.7,0.6-1,0.9c-0.3,0.2-0.7,0.5-1,0.6c-0.4,0.2-0.8,0.3-1.2,0.4c-0.4,0.1-0.9,0.1-1.4,0.1c-0.5,0-1-0.1-1.4-0.2
			c-0.5-0.1-0.8-0.4-1.2-0.6c-0.3-0.3-0.6-0.6-0.8-1.1c-0.2-0.4-0.3-1-0.3-1.6c0-0.5,0.1-1,0.4-1.5c0.3-0.5,0.7-0.9,1.4-1.3
			c0.6-0.4,1.5-0.7,2.5-0.9c1-0.2,2.3-0.4,3.8-0.4v-1c0-1-0.2-1.8-0.7-2.3c-0.4-0.5-1.1-0.8-1.9-0.8c-0.6,0-1.1,0.1-1.4,0.2
			c-0.4,0.1-0.7,0.3-1,0.5c-0.3,0.2-0.5,0.3-0.7,0.5c-0.2,0.1-0.4,0.2-0.6,0.2c-0.2,0-0.3,0-0.4-0.1c-0.1-0.1-0.2-0.2-0.3-0.3
			L527.3,297.4z M534.8,302.8c-1.1,0-2,0.1-2.7,0.3c-0.7,0.1-1.4,0.3-1.8,0.5c-0.5,0.2-0.8,0.5-1,0.8c-0.2,0.3-0.3,0.6-0.3,1
			c0,0.3,0.1,0.6,0.2,0.9c0.1,0.3,0.3,0.5,0.5,0.6c0.2,0.2,0.4,0.3,0.7,0.4c0.3,0.1,0.5,0.1,0.9,0.1c0.4,0,0.8,0,1.1-0.1
			c0.3-0.1,0.7-0.2,1-0.4c0.3-0.2,0.6-0.3,0.9-0.6c0.3-0.2,0.5-0.5,0.8-0.7V302.8z"/>
		<path class="st1" d="M552.6,308.7h-2.3v-11.2h-6.8v7.9c0,0.6,0.1,1,0.4,1.2c0.3,0.3,0.6,0.4,1,0.4c0.2,0,0.5,0,0.6-0.1
			c0.2-0.1,0.3-0.1,0.5-0.2c0.1-0.1,0.2-0.1,0.3-0.2c0.1-0.1,0.2-0.1,0.2-0.1c0.1,0,0.2,0.1,0.3,0.2l0.7,1.1
			c-0.4,0.4-0.9,0.7-1.4,0.9c-0.6,0.2-1.1,0.3-1.7,0.3c-1,0-1.8-0.3-2.4-0.9c-0.6-0.6-0.8-1.4-0.8-2.5v-8.1h-1.6
			c-0.1,0-0.3,0-0.4-0.1c-0.1-0.1-0.1-0.2-0.1-0.4V296l2.2-0.3l0.5-4.1c0-0.1,0.1-0.2,0.2-0.3c0.1-0.1,0.2-0.1,0.4-0.1h1.2v4.5h9.1
			V308.7z M553.2,291.3c0,0.2,0,0.4-0.1,0.6c-0.1,0.2-0.2,0.4-0.4,0.5c-0.2,0.1-0.3,0.3-0.5,0.4c-0.2,0.1-0.4,0.1-0.6,0.1
			s-0.4,0-0.6-0.1c-0.2-0.1-0.4-0.2-0.5-0.4c-0.1-0.1-0.3-0.3-0.4-0.5c-0.1-0.2-0.1-0.4-0.1-0.6c0-0.2,0-0.4,0.1-0.6
			c0.1-0.2,0.2-0.4,0.4-0.5c0.1-0.2,0.3-0.3,0.5-0.4c0.2-0.1,0.4-0.1,0.6-0.1s0.4,0,0.6,0.1c0.2,0.1,0.4,0.2,0.5,0.4
			c0.2,0.2,0.3,0.3,0.4,0.5C553.1,290.9,553.2,291.1,553.2,291.3z"/>
		<path class="st1" d="M562,295.3c1,0,1.8,0.2,2.6,0.5c0.8,0.3,1.4,0.8,2,1.4c0.5,0.6,1,1.3,1.3,2.1c0.3,0.8,0.4,1.8,0.4,2.8
			c0,1-0.1,2-0.4,2.8c-0.3,0.8-0.7,1.5-1.3,2.1c-0.5,0.6-1.2,1-2,1.4c-0.8,0.3-1.6,0.5-2.6,0.5c-1,0-1.8-0.2-2.6-0.5
			c-0.8-0.3-1.4-0.8-2-1.4c-0.5-0.6-1-1.3-1.3-2.1c-0.3-0.8-0.4-1.8-0.4-2.8c0-1,0.1-2,0.4-2.8c0.3-0.8,0.7-1.6,1.3-2.1
			c0.5-0.6,1.2-1,2-1.4C560.1,295.5,561,295.3,562,295.3z M562,307.1c1.3,0,2.3-0.4,2.9-1.3c0.6-0.9,1-2.1,1-3.7
			c0-1.6-0.3-2.8-1-3.7c-0.6-0.9-1.6-1.3-2.9-1.3c-0.7,0-1.2,0.1-1.7,0.3c-0.5,0.2-0.9,0.6-1.2,1s-0.6,0.9-0.7,1.6s-0.2,1.3-0.2,2.1
			c0,1.6,0.3,2.8,1,3.7C559.7,306.7,560.6,307.1,562,307.1z"/>
		<path class="st1" d="M573.3,297.4c0.3-0.3,0.6-0.6,0.9-0.9c0.3-0.3,0.7-0.5,1-0.7c0.4-0.2,0.7-0.3,1.1-0.4
			c0.4-0.1,0.8-0.1,1.3-0.1c0.7,0,1.4,0.1,1.9,0.4c0.6,0.2,1,0.6,1.4,1c0.4,0.4,0.6,1,0.8,1.6c0.2,0.6,0.3,1.3,0.3,2v8.4h-2.3v-8.4
			c0-1-0.2-1.8-0.7-2.3c-0.5-0.6-1.1-0.8-2.1-0.8c-0.7,0-1.3,0.2-1.9,0.5c-0.6,0.3-1.1,0.8-1.6,1.3v9.7h-2.3v-13.2h1.4
			c0.3,0,0.5,0.2,0.6,0.5L573.3,297.4z"/>
	</g>
	<g>
		<rect x="216.3" y="81.8" class="st2" width="10.1" height="47.9"/>
	</g>
	<g>
		<rect x="326.2" y="161.2" class="st2" width="10.1" height="76.6"/>
	</g>
	<g>
		<polygon class="st2" points="549.5,274.5 539.4,274.5 539.4,209.4 471.4,209.4 471.4,199.2 549.5,199.2 		"/>
	</g>
	<g>
		<polygon class="st2" points="67.3,127.7 24,127.7 24,41.3 34.1,41.3 34.1,117.6 67.3,117.6 		"/>
	</g>
	<g>
		<g>
			<path class="st3" d="M134.8,124.8h6.5h8.6c3-5.6,3-13.1,0-18.8h-7h-19.9H54.3v8.6c0.1,1,0.2,2.1,0.2,3.4v85.9
				c0,1.4,0,2.6-0.2,3.7v9.1c7.4,1.5,14.7,1.5,22.1,0v-12.8v-18.7V172h34.4h3.4h13.3c1.9-6.5,2-12.8,0-18.8h-13.3h-5H76.4v-28.3
				H134.8z"/>
		</g>
		<g>
			<path class="st3" d="M279.1,208.3c-0.6-1-1.2-2.2-1.9-3.7l-2.8-5.9l-0.7-1.4h0l-32-68.4l-10.1-21.2c-6.9-1.4-13.7-1.4-20.5,0
				l-9.3,19.5l0,0L170.6,193h0l-10.4,22.1c7.2,1.5,14.6,1.4,22.1,0l4.4-9.9c0-0.1,0.1-0.2,0.1-0.3l6.3-14c5.4,1.2,16,3.1,27.8,3.1
				c11.5,0,21.2-2,26.3-3.1l6,13.8c0.1,0.1,0.1,0.3,0.2,0.4l4.4,9.9c8.6,1.5,16.8,1.4,24.6,0L279.1,208.3z M221.6,177.2
				c-9.7,0-17.2-1.1-21.4-2l20.1-45.9h0.3l20,46.1C237.7,176.1,230.9,177.2,221.6,177.2z"/>
		</g>
		<g>
			<path class="st3" d="M342,215.1c-7.7,1.7-14.9,2.2-21.4,0V107.6c7.1-1.4,14.3-1.4,21.4,0V215.1z"/>
		</g>
		<g>
			<path class="st3" d="M488.7,209.9c-0.6-0.5-1.2-1.1-1.8-1.8c-8.3-9.4-17.8-22.1-23-32.1c18.3-3.4,34.3-16.3,34.3-32.6
				c0-26.6-21.4-37.6-59.3-37.6c-11.2,0-35.2,1-48.3,1.6v8.8c0,0.3,0.1,0.7,0.1,1v87.7c0,0.5,0,1-0.1,1.4v8.9
				c8.6,2.1,15.6,1.8,21.4,0V206c0-0.4,0-0.8,0-1.2v-25.7c5.1,0.3,9.2,0.5,17.2,0.5c5.1,0,9.2,0.2,12.8-0.3
				c3.4,9.5,13.8,27.2,21.7,35.8c10.3,2,20.4,1.9,30.4,0L488.7,209.9z M437.9,162.4c-5.7,0-18-0.2-26-0.8v-37.5
				c7.8-0.5,20-0.8,26.6-0.8c25.7,0,36.9,7.7,36.9,19.4C475.4,154.9,466.6,162.4,437.9,162.4z"/>
		</g>
	</g>
</g>
</svg>
