<?xml version="1.0" encoding="utf-8"?>
<!-- Generator: Adobe Illustrator 21.0.0, SVG Export Plug-In . SVG Version: 6.00 Build 0)  -->
<!DOCTYPE svg PUBLIC "-//W3C//DTD SVG 1.1//EN" "http://www.w3.org/Graphics/SVG/1.1/DTD/svg11.dtd">
<svg version="1.1" id="Layer_1" xmlns="http://www.w3.org/2000/svg" xmlns:xlink="http://www.w3.org/1999/xlink" x="0px" y="0px"
	 viewBox="0 0 474.9 476.2" style="enable-background:new 0 0 474.9 476.2;" xml:space="preserve">
<style type="text/css">
	.st0{fill:#6D6E71;}
	.st1{fill:#939598;}
</style>
<g>
	<path class="st0" d="M458.1,392.6l-82-82c47.7-77.6,38-180.8-29.2-248c-78.6-78.6-206.4-78.6-285,0c-78.6,78.6-78.6,206.4,0,285
		c39.3,39.3,90.9,58.9,142.5,58.9c36.6,0,73.3-9.9,105.5-29.7l82,82c18.3,18.3,47.9,18.3,66.2,0l0,0
		C476.4,440.5,476.4,410.9,458.1,392.6z M303.8,105.8c54.8,54.8,54.8,143.9,0,198.7s-143.9,54.8-198.7,0s-54.8-143.9,0-198.7
		c27.4-27.4,63.4-41.1,99.3-41.1S276.4,78.4,303.8,105.8z"/>
	<g>
		<path class="st1" d="M176.7,277.5c-18.8,0-22.8,9.8-22.8,18.1c0,6.8,3,18.1,22.8,18.1h64c19.8,0,22.8-11.3,22.8-18.1
			c0-8.3-4-18.1-22.8-18.1h-13.4v-93.1c0-19.5-8.1-23.1-24.1-23.1h-26.5c-18.8,0-22.8,9.8-22.8,18.1c0,6.8,3,18.1,22.8,18.1h14.4v80
			H176.7z"/>
		<path class="st1" d="M195.6,141.3H210c11,0,17.3-6.3,17.3-17.3v-12.1c0-11-6.3-17.3-17.3-17.3h-14.4c-11,0-17.3,6.3-17.3,17.3V124
			C178.3,135,184.6,141.3,195.6,141.3z"/>
	</g>
</g>
</svg>
