<?xml version="1.0" encoding="utf-8"?>
<!-- Generator: Adobe Illustrator 21.0.0, SVG Export Plug-In . SVG Version: 6.00 Build 0)  -->
<!DOCTYPE svg PUBLIC "-//W3C//DTD SVG 1.1//EN" "http://www.w3.org/Graphics/SVG/1.1/DTD/svg11.dtd">
<svg version="1.1" id="Layer_1" xmlns="http://www.w3.org/2000/svg" xmlns:xlink="http://www.w3.org/1999/xlink" x="0px" y="0px"
	 viewBox="0 0 300 300" style="enable-background:new 0 0 300 300;" xml:space="preserve">
<style type="text/css">
	.st0{fill:#414042;}
</style>
<g>
	<path class="st0" d="M272.1,86.9h-14.1V38.1c0-3.8-0.8-7.6-2.2-11.1c-1.4-3.4-3.5-6.4-6.1-9c-2.6-2.6-5.7-4.7-9-6.1
		c-3.5-1.5-7.3-2.2-11.1-2.2H70.4c-3.8,0-7.6,0.8-11.1,2.2c-3.4,1.4-6.4,3.5-9,6.1c-2.6,2.6-4.7,5.7-6.1,9
		c-1.5,3.5-2.2,7.3-2.2,11.1v48.8H27.9C13,86.9,1,98.9,1,113.8v72.5c0,14.8,12,26.9,26.9,26.9h14.1v48.8c0,3.8,0.8,7.6,2.2,11.1
		c1.4,3.4,3.5,6.4,6.1,9c2.6,2.6,5.7,4.7,9,6.1c3.5,1.5,7.3,2.2,11.1,2.2h159.2c3.8,0,7.6-0.8,11.1-2.2c3.4-1.4,6.4-3.5,9-6.1
		c2.6-2.6,4.7-5.7,6.1-9c1.5-3.5,2.2-7.3,2.2-11.1v-48.8h14.1c14.8,0,26.9-12,26.9-26.9v-72.5C299,98.9,287,86.9,272.1,86.9z
		 M59.8,38.1c0-0.9,0.1-1.8,0.3-2.7c0.1-0.3,0.2-0.7,0.3-1c0.1-0.3,0.3-0.6,0.4-1c0.3-0.6,0.6-1.1,0.9-1.6c0.1-0.2,0.3-0.4,0.4-0.6
		c1.9-2.4,4.9-3.8,8.2-3.8h0h159.2h0c4.8,0,8.8,3.1,10.1,7.5c0.3,1,0.5,2.1,0.5,3.2v48.8H59.8V38.1z M240.2,261.9
		c0,1.1-0.2,2.2-0.5,3.2c-1.3,4.3-5.4,7.5-10.1,7.5h0H70.4h0c-3.3,0-6.2-1.5-8.2-3.8c-0.2-0.2-0.3-0.4-0.4-0.6
		c-0.4-0.5-0.7-1-0.9-1.6c-0.1-0.3-0.3-0.6-0.4-1c-0.1-0.3-0.2-0.7-0.3-1c-0.2-0.8-0.3-1.7-0.3-2.7v-101h180.5V261.9z M254.3,141
		c-9.4,0-17-7.6-17-17c0-9.4,7.6-17,17-17c9.4,0,17,7.6,17,17C271.4,133.3,263.8,141,254.3,141z"/>
	<path class="st0" d="M62.2,268.7c1.9,2.4,4.9,3.8,8.2,3.8h0C67.1,272.5,64.1,271,62.2,268.7z"/>
	<path class="st0" d="M62.2,268.7c-0.2-0.2-0.3-0.4-0.4-0.6C61.9,268.3,62,268.5,62.2,268.7z"/>
	<path class="st0" d="M61.7,31.9c0.1-0.2,0.3-0.4,0.4-0.6C62,31.5,61.9,31.7,61.7,31.9z"/>
	<path class="st0" d="M70.4,27.5L70.4,27.5c-3.3,0-6.2,1.5-8.2,3.8C64.1,29,67.1,27.5,70.4,27.5z"/>
	<rect x="79.6" y="226.9" class="st0" width="107.7" height="22.1"/>
	<rect x="79.6" y="185.3" class="st0" width="131.1" height="22.1"/>
</g>
</svg>
