<?xml version="1.0" encoding="utf-8"?>
<!-- Generator: Adobe Illustrator 21.0.0, SVG Export Plug-In . SVG Version: 6.00 Build 0)  -->
<!DOCTYPE svg PUBLIC "-//W3C//DTD SVG 1.1//EN" "http://www.w3.org/Graphics/SVG/1.1/DTD/svg11.dtd">
<svg version="1.1" id="Layer_1" xmlns="http://www.w3.org/2000/svg" xmlns:xlink="http://www.w3.org/1999/xlink" x="0px" y="0px"
	 viewBox="0 0 400 116.4" style="enable-background:new 0 0 400 116.4;" xml:space="preserve">
<style type="text/css">
	.st0{fill:#808080;}
	.st1{fill:#999999;}
	.st2{fill:#636363;}
</style>
<g>
	<path class="st0" d="M205.6,71.3c-3.2,0.5-8.3,1.1-14.9,1.1c-9,0-15.4-1.1-19.3-2l12.4-26.3l-13.1-13.4l-28.4,59
		c1.6-0.7,3.5-1.1,5.3-1.1c5.2,0,9.7,2.8,12,7.1l5.1-10.8c5,1.1,14.2,3,25.2,3c10.7,0,19.3-1.8,24-2.7c0,0,11.5,25.6,11.5,26.5
		c6.2,0.9,12.5,0.4,18.6-0.8L205.6,71.3z"/>
	<path class="st1" d="M63.3,21c8.1,0,14.3,0.3,18.6,0.9c-0.4-1.3-0.6-2.6-0.6-4c0-5,2.8-9.3,6.8-11.6c-5.5-0.9-14.3-2.6-25.4-2.6
		C43.2,3.8,28.4,8.3,19.4,16l13.3,13.6C37.2,24.4,48.7,21,63.3,21z"/>
	<path class="st1" d="M72.8,51.2c-9.8-2.1-17.5-3.6-23.9-5l25.5,26.1c0.5,0.1,1,0.2,1.5,0.3c9.5,2.3,12.3,5.8,12.3,10.4
		c0,1-0.1,2-0.4,2.9l14.6,14.9c4.3-4.5,6.8-10.2,6.8-17.5C109.1,63.1,93.9,55.7,72.8,51.2z"/>
	<path class="st2" d="M80.8,17.9c0,1.4,0.2,2.7,0.6,4c1.7,5.5,6.9,9.5,13.1,9.5c7.5,0,13.7-6,13.7-13.5S102,4.4,94.5,4.4
		c-2.5,0-4.8,0.7-6.8,1.8C83.5,8.6,80.8,12.9,80.8,17.9z"/>
	<g>
		<path class="st0" d="M280.1,9.2c-1.6,0.1-3.2,0.3-4.9,0.5v82.9c2.5-2.6,6-4.2,9.9-4.2c3.9,0,7.5,1.7,9.9,4.3V41h0.3l35.4,38.2
			c2.8,0.3,5.8,0.3,8.7,0l4.2-4.6L280.1,9.2z"/>
		<path class="st1" d="M384.4,30.3c-7.6,0.1-13.2-5.7-13.2-13.1c0-0.2,0-1.1,0-1.3c-0.1,0.1-0.5,0.9-0.5,0.9l-34.2,37.4h-0.1
			L297.3,9.7c-5.4-0.9-11.2-1-17.2-0.5l63.6,65.5L374.2,41h0.3v64.8v0v2.3c0.8,0.1,1.7,0.2,2.5,0.3l0,0c6,0.6,11.8,0.7,17.5-0.3
			V25.9C392,28.6,388.4,30.3,384.4,30.3z"/>
	</g>
	<g>
		<path class="st1" d="M205.1,19.9c-0.4-0.9-1-2.2-1.3-3.1c-1.2,6.3-6.4,11.3-13.2,11.3s-12.1-4.9-13.2-11.3c-0.3,0.9-1,2.1-1.3,2.8
			l-6.9,14.4l13.1,13.4l7.3-15.5h0.3L208,70.8c-0.7,0.2-1.5,0.3-2.6,0.5l38.5,39.5c0.8-0.2,1.6-0.3,2.4-0.5L205.1,19.9z"/>
	</g>
	<path class="st0" d="M74.4,72.2L48.9,46.1c-2.8-0.6-5.3-1.2-7.6-1.8c-7.4-2-10.6-6.2-10.6-9.9c0-1.8,0.7-3.4,2-4.9L19.4,16
		c-6.2,5.4-9.6,12.3-9.6,20.4c0,20.1,18.3,25.3,36.4,29.7C55.6,68.2,61.8,69.3,74.4,72.2z"/>
	<path class="st0" d="M87.7,85.8c-2.1,6.9-12.1,10.6-31.1,10.6c-12.3,0-23.5-1.5-30.4-3.2c0.9,1.8,1.5,3.9,1.5,6
		c0,4.1-1.9,7.8-4.8,10.2c7.1,1.4,18.5,4.4,34,4.4c19.5,0,36.4-3.9,45.4-13.1L87.7,85.8z"/>
	<path class="st2" d="M29.2,99.7c0-2.2-0.5-4.2-1.5-6c-2.3-4.4-6.9-7.4-12.2-7.4c-7.5,0-13.7,6-13.7,13.5c0,7.4,6.1,13.5,13.7,13.5
		c3.4,0,6.5-1.3,8.9-3.2C27.4,107.5,29.2,103.8,29.2,99.7z"/>
	<path class="st2" d="M148.1,87.9c-1.9,0-3.7,0.4-5.3,1.1c-4.9,2.1-8.3,6.8-8.3,12.4c0,7.4,6.1,13.5,13.7,13.5s13.7-6,13.7-13.5
		c0-2.3-0.6-4.5-1.6-6.4C157.9,90.7,153.4,87.9,148.1,87.9z"/>
	<path class="st2" d="M190.5,28.4c6.7,0,12.3-4.8,13.5-11.1c0.1-0.7,0.2-1.5,0.2-2.3c0-7.4-6.1-13.5-13.7-13.5S177,7.6,177,15
		c0,0.7,0.1,1.5,0.2,2.2C178.1,23.5,183.8,28.4,190.5,28.4z"/>
	<path class="st2" d="M384.4,3.8c-7.3,0-13.4,5.8-13.7,12.9c0,0.2,0,0.3,0,0.5c0,7.4,6.1,13.5,13.7,13.5c4,0,7.6-1.7,10.1-4.4
		c2.3-2.4,3.6-5.6,3.6-9.1C398.1,9.8,391.9,3.8,384.4,3.8z"/>
	<path class="st2" d="M275.2,92c-2.4,2.4-3.8,5.7-3.8,9.3c0,7.4,6.1,13.5,13.7,13.5s13.7-6,13.7-13.5c0-3.5-1.4-6.8-3.7-9.2
		c-2.5-2.6-6-4.3-9.9-4.3C281.3,87.9,277.7,89.5,275.2,92z"/>
</g>
</svg>
