<?xml version="1.0" encoding="utf-8"?>
<!-- Generator: Adobe Illustrator 21.0.0, SVG Export Plug-In . SVG Version: 6.00 Build 0)  -->
<!DOCTYPE svg PUBLIC "-//W3C//DTD SVG 1.1//EN" "http://www.w3.org/Graphics/SVG/1.1/DTD/svg11.dtd">
<svg version="1.1" id="Layer_1" xmlns="http://www.w3.org/2000/svg" xmlns:xlink="http://www.w3.org/1999/xlink" x="0px" y="0px"
	 viewBox="0 0 800.7 249.2" style="enable-background:new 0 0 800.7 249.2;" xml:space="preserve">
<style type="text/css">
	.st0{fill:#818181;}
	.st1{fill:#999999;}
</style>
<path class="st0" d="M767,67.2c-15.2,0.1-26.6-11.5-26.6-26.4c0-0.3-0.1-2.2-0.1-2.6c-0.1,0.1-1,1.8-1.1,1.9l-68.9,75.2H670
	l-78.3-89.7c-10.9-1.7-22.5-1.9-34.6-1l0,0c-3.2,0.3-6.5,0.6-9.8,1v166.8c5-5.2,12.1-8.4,19.9-8.4c7.9,0,15,3.3,20,8.6v-104h0.6
	l71.2,77c5.7,0.6,11.6,0.7,17.6,0l8.4-9.2l0,0l61.4-67.8h0.6v130.4v0v4.5c1.7,0.2,3.4,0.4,5,0.6l0,0c12,1.3,23.7,1.3,35.3-0.6V58.4
	C782.4,63.8,775,67.2,767,67.2z"/>
<path class="st0" d="M484.8,229c1.5-0.3,3-0.7,4.5-1L406.1,46.3c-0.8-1.7-2.1-4.5-2.6-6.2c-2.3,12.7-13,22.7-26.6,22.7
	c-13.6,0-24.3-9.9-26.5-22.7c-0.6,1.8-2,4.2-2.7,5.6L337,67.9l0,0l-57.2,118.7c3.3-1.4,7-2.2,10.7-2.2c10.5,0,19.6,5.7,24.2,14.2
	l10.3-21.7c10,2.3,28.6,6,50.8,6c21.5,0,38.9-3.6,48.3-5.5c0,0,23.2,51.6,23.2,53.3c12.3,1.7,25,0.9,37.1-1.6l0,0c0.1,0,0.1,0,0.2,0
	C484.7,229,484.7,229,484.8,229L484.8,229z M338.4,147.8l21.7-46l0,0l14.7-31.2h0.6l36.7,78.1c-1.3,0.3-3,0.7-5,1
	c-6.5,1.1-16.7,2.1-29.9,2.1C359.1,151.8,346.2,149.5,338.4,147.8z"/>
<path class="st0" d="M213,173.9c0-40.6-30.5-55.5-73-64.7c-19.8-4.2-35.3-7.3-48.1-10.1l0,0c-5.6-1.2-10.6-2.4-15.3-3.6
	c-14.9-4-21.3-12.5-21.3-19.8c0-3.6,1.4-6.9,4-9.9l0,0c9-10.4,32.1-17.1,61.5-17.1c16.3,0,28.8,0.6,37.4,1.9c-0.8-2.5-1.3-5.3-1.3-8
	c0-10,5.6-18.8,13.7-23.4c-11.1-1.7-28.8-5.2-51.1-5.2c-39.3,0.1-69.1,9.1-87,24.6l0,0c-12.5,10.8-19.2,24.8-19.2,41
	c0,40.5,36.8,50.9,73.2,59.8c18.8,4.4,31.2,6.5,56.5,12.4l0,0c1,0.2,1.9,0.4,2.9,0.7c19.2,4.6,24.7,11.6,24.7,21
	c0,2-0.3,3.9-0.8,5.8l0,0c-4.1,13.9-24.3,21.3-62.6,21.3c-24.8,0-47.3-3-61.3-6.4c1.9,3.7,3,7.8,3,12.2c0,8.3-3.7,15.6-9.7,20.5
	c14.3,2.8,37.2,8.9,68.5,8.9c39.3,0,73.3-7.8,91.4-26.5l0,0C208,199.9,213,188.4,213,173.9z"/>
<g>
	<path class="st1" d="M120.8,48.5c16.3,0,28.8,0.6,37.4,1.9c-0.8-2.5-1.3-5.3-1.3-8c0-10,5.6-18.8,13.7-23.4
		c-11.1-1.7-28.8-5.2-51.1-5.2c-39.3,0.1-69.1,9.1-87.1,24.6l26.7,27.3C68.2,55.3,91.4,48.5,120.8,48.5z"/>
	<path class="st1" d="M140,109.2c-19.8-4.2-35.3-7.3-48.1-10.1l51.2,52.5c1,0.2,1.9,0.4,2.9,0.7c19.2,4.6,24.7,11.6,24.7,21
		c0,2-0.3,4-0.8,5.8l29.3,30c8.7-9,13.7-20.6,13.7-35.1C213,133.3,182.5,118.3,140,109.2z"/>
	<g>
		<path class="st1" d="M767,67.2c-15.2,0.1-26.6-11.5-26.6-26.4c0-0.3-0.1-2.2-0.1-2.6c-0.1,0.1-1,1.8-1.1,1.9l-68.9,75.2H670
			l-78.3-89.7c-10.9-1.7-22.5-1.9-34.6-1l127.9,131.8l61.4-67.8h0.6v130.4v0v4.5c1.7,0.2,3.4,0.4,5,0.6l0,0
			c12,1.3,23.7,1.3,35.3-0.6V58.4C782.4,63.8,775,67.2,767,67.2z"/>
	</g>
	<g>
		<path class="st1" d="M406.1,46.3c-0.8-1.7-2.1-4.5-2.6-6.2c-2.3,12.7-13,22.7-26.6,22.7c-13.6,0-24.3-9.9-26.5-22.7
			c-0.6,1.8-2,4.2-2.7,5.6l-14,29l26.4,27l14.7-31.2h0.6l36.7,78.1c-1.3,0.3-3.1,0.7-5.1,1.1l77.6,79.4c1.6-0.3,3.2-0.7,4.8-1.1
			L406.1,46.3z"/>
	</g>
</g>
</svg>
