<?xml version="1.0" encoding="utf-8"?>
<!-- Generator: Adobe Illustrator 21.0.0, SVG Export Plug-In . SVG Version: 6.00 Build 0)  -->
<!DOCTYPE svg PUBLIC "-//W3C//DTD SVG 1.1//EN" "http://www.w3.org/Graphics/SVG/1.1/DTD/svg11.dtd">
<svg version="1.1" id="Layer_1" xmlns="http://www.w3.org/2000/svg" xmlns:xlink="http://www.w3.org/1999/xlink" x="0px" y="0px"
	 viewBox="0 0 539.5 344.2" style="enable-background:new 0 0 539.5 344.2;" xml:space="preserve">
<style type="text/css">
	.st0{fill:#818181;}
	.st1{fill:#808285;}
	.st2{fill:url(#SVGID_1_);}
	.st3{fill:#939598;}
	.st4{fill:url(#SVGID_2_);}
	.st5{fill:#9E87B9;}
	.st6{font-family:'Lato-Regular';}
	.st7{font-size:18px;}
	.st8{fill:url(#SVGID_3_);}
	.st9{fill:url(#SVGID_4_);}
	.st10{fill:url(#SVGID_5_);}
	.st11{fill:#BFAFCF;}
	.st12{fill:url(#SVGID_6_);}
</style>
<rect x="130" y="333.8" class="st0" width="151.4" height="7"/>
<g>
	<rect x="199.6" y="232.9" class="st1" width="7" height="104.4"/>
</g>
<linearGradient id="SVGID_1_" gradientUnits="userSpaceOnUse" x1="121.9674" y1="-305.935" x2="121.9674" y2="-395.0787" gradientTransform="matrix(1 0 0 1 84.3685 648.8553)">
	<stop  offset="0.4656" style="stop-color:#FFFFFF;stop-opacity:0.94"/>
	<stop  offset="1" style="stop-color:#FFFFFF;stop-opacity:0"/>
</linearGradient>
<rect x="127.5" y="253.8" class="st2" width="157.7" height="89.1"/>
<g>
	<polygon class="st3" points="256,116.9 225.7,72.7 225.7,7.3 232.7,7.3 232.7,70.5 261.8,113 	"/>
</g>
<rect x="124.1" y="4.8" class="st0" width="234.7" height="7"/>
<linearGradient id="SVGID_2_" gradientUnits="userSpaceOnUse" x1="-1904.7396" y1="-1873.5796" x2="-1904.7396" y2="-1962.7233" gradientTransform="matrix(-1 0 0 -1 -1663.1107 -1872.303)">
	<stop  offset="0.499" style="stop-color:#FFFFFF;stop-opacity:0.94"/>
	<stop  offset="1" style="stop-color:#FFFFFF;stop-opacity:0"/>
</linearGradient>
<polygon class="st4" points="121.5,1.3 361.8,1.3 361.8,90.4 121.5,90.4 "/>
<g>
	<text transform="matrix(1 0 0 1 130.0194 32.8485)" class="st5 st6 st7">Motivational Biasing System</text>
</g>
<g>
	<rect x="129" y="49.3" class="st3" width="7" height="57.6"/>
</g>
<rect x="4.1" y="45.8" class="st0" width="195.3" height="7"/>
<linearGradient id="SVGID_3_" gradientUnits="userSpaceOnUse" x1="-1405.9434" y1="-1866.8236" x2="-1405.9434" y2="-1923.8959" gradientTransform="matrix(-1 0 0 -1 -1303.8359 -1826.7196)">
	<stop  offset="0.4227" style="stop-color:#FFFFFF;stop-opacity:0.94"/>
	<stop  offset="1" style="stop-color:#FFFFFF;stop-opacity:0"/>
</linearGradient>
<polygon class="st8" points="1.1,40.1 203.1,40.1 203.1,97.2 1.1,97.2 "/>
<g>
	<text transform="matrix(1 0 0 1 10.7009 73.3485)" class="st5 st6 st7">Sensory Discrimination</text>
</g>
<g>
	<rect x="510.2" y="49.3" class="st3" width="7" height="57.6"/>
</g>
<rect x="258.9" y="45.8" class="st0" width="278.1" height="7"/>
<linearGradient id="SVGID_4_" gradientUnits="userSpaceOnUse" x1="-1700.5033" y1="-1866.8236" x2="-1700.5033" y2="-1920.3176" gradientTransform="matrix(-1 0 0 -1 -1303.8359 -1826.7196)">
	<stop  offset="0.427" style="stop-color:#FFFFFF;stop-opacity:0.94"/>
	<stop  offset="1" style="stop-color:#FFFFFF;stop-opacity:0"/>
</linearGradient>
<polygon class="st9" points="255,40.1 538.4,40.1 538.4,93.6 255,93.6 "/>
<g>
	<text transform="matrix(1 0 0 1 264.9619 73.3485)" class="st5 st6 st7">Motor Planning Executive System</text>
</g>
<text transform="matrix(1 0 0 1 136.763 325.7752)" class="st5 st6 st7">Affective Valence</text>
<g>
	<rect x="25.2" y="225.3" class="st1" width="7" height="72.1"/>
</g>
<rect x="4.1" y="294.8" class="st0" width="172.8" height="7"/>
<linearGradient id="SVGID_5_" gradientUnits="userSpaceOnUse" x1="90.2741" y1="305.2751" x2="90.2741" y2="248.2029">
	<stop  offset="0.3887" style="stop-color:#FFFFFF;stop-opacity:0.94"/>
	<stop  offset="1" style="stop-color:#FFFFFF;stop-opacity:0"/>
</linearGradient>
<rect x="1.1" y="248.2" class="st10" width="178.3" height="57.1"/>
<path class="st0" d="M278.6,189c-4.2,0.7-10.9,1.4-19.6,1.4c-11.8,0-20.2-1.5-25.3-2.6l16.3-34.5l-17.2-17.7l-37.3,77.6
	c2.1-0.9,4.6-1.4,7-1.4c6.8,0,12.8,3.7,15.8,9.3l6.7-14.2c6.5,1.5,18.7,3.9,33.2,3.9c14.1,0,25.4-2.3,31.6-3.6
	c0,0,15.1,33.7,15.1,34.8c8.1,1.1,16.5,0.6,24.5-1.1L278.6,189z"/>
<path class="st3" d="M91.5,122.9c10.6,0,18.8,0.4,24.5,1.2c-0.5-1.6-0.8-3.4-0.8-5.2c0-6.5,3.7-12.3,9-15.3
	c-7.2-1.1-18.8-3.4-33.4-3.4c-25.7,0-45.2,5.9-56.9,16.1l17.4,17.9C57.1,127.3,72.3,122.9,91.5,122.9z"/>
<path class="st3" d="M104,162.6c-12.9-2.8-23.1-4.8-31.4-6.6l33.5,34.3c0.6,0.1,1.3,0.3,1.9,0.4c12.6,3,16.1,7.6,16.1,13.7
	c0,1.3-0.2,2.6-0.5,3.8l19.2,19.6c5.7-5.9,9-13.5,9-23C151.7,178.3,131.8,168.5,104,162.6z"/>
<path class="st11" d="M114.5,118.9c0,1.8,0.3,3.6,0.8,5.2c2.3,7.2,9.1,12.4,17.2,12.4c9.9,0,18-7.9,18-17.7s-8.1-17.8-18-17.8
	c-3.3,0-6.3,0.9-9,2.4C118.1,106.6,114.5,112.3,114.5,118.9z"/>
<path class="st0" d="M376.6,107.3c-2.1,0.2-4.2,0.4-6.4,0.6v109c3.3-3.4,7.9-5.5,13-5.5c5.2,0,9.8,2.2,13.1,5.6v-67.9h0.4l46.6,50.3
	c3.7,0.4,7.6,0.4,11.5,0l5.5-6L376.6,107.3z"/>
<path class="st3" d="M513.7,135.1c-10,0.1-17.4-7.5-17.4-17.2c0-0.2,0-1.5,0-1.7c-0.1,0.1-0.6,1.2-0.7,1.2l-45,49.2h-0.2L399.2,108
	c-7.1-1.1-14.7-1.3-22.6-0.6l83.6,86.2l40.2-44.3h0.4v85.2v0v3c1.1,0.1,2.2,0.3,3.3,0.4l0,0c7.8,0.8,15.5,0.9,23-0.4V129.4
	C523.8,132.9,519,135.1,513.7,135.1z"/>
<path class="st3" d="M277.9,121.5c-0.5-1.1-1.3-2.9-1.7-4c-1.5,8.3-8.5,14.8-17.4,14.8c-8.9,0-15.9-6.4-17.3-14.8
	c-0.4,1.2-1.3,2.8-1.8,3.7l-9.1,19l17.2,17.6l9.6-20.4h0.4l24,51c-0.9,0.2-2,0.5-3.4,0.7l50.7,51.9c1-0.2,2.1-0.5,3.1-0.7
	L277.9,121.5z"/>
<path class="st0" d="M106.1,190.2l-33.5-34.3c-3.6-0.8-6.9-1.6-10-2.4c-9.7-2.6-13.9-8.2-13.9-13c0-2.3,0.9-4.5,2.6-6.5l-17.4-17.9
	c-8.2,7.1-12.6,16.2-12.6,26.8c0,26.5,24,33.3,47.8,39C81.4,185,89.5,186.4,106.1,190.2z"/>
<path class="st0" d="M123.6,208.1c-2.7,9.1-15.9,13.9-40.9,13.9c-16.2,0-30.9-1.9-40-4.2c1.2,2.4,2,5.1,2,7.9
	c0,5.4-2.4,10.2-6.3,13.4c9.4,1.8,24.3,5.8,44.8,5.8c25.7,0,47.9-5.1,59.7-17.3L123.6,208.1z"/>
<path class="st11" d="M46.7,226.4c0-2.8-0.7-5.5-2-7.9c-3-5.8-9.1-9.7-16.1-9.7c-9.9,0-18,7.9-18,17.7s8.1,17.7,18,17.7
	c4.5,0,8.5-1.6,11.7-4.3C44.2,236.6,46.7,231.8,46.7,226.4z"/>
<path class="st11" d="M203.1,210.8c-2.5,0-4.9,0.5-7,1.4c-6.5,2.7-11,9-11,16.3c0,9.7,8.1,17.7,18,17.7s18-7.9,18-17.7
	c0-3.1-0.8-5.9-2.1-8.4C215.9,214.6,209.9,210.8,203.1,210.8z"/>
<path class="st11" d="M258.8,132.6c8.8,0,16.2-6.3,17.7-14.6c0.2-1,0.3-2,0.3-3.1c0-9.7-8.1-17.7-18-17.7s-18,7.9-18,17.7
	c0,1,0.1,1.9,0.2,2.9C242.5,126.2,249.9,132.6,258.8,132.6z"/>
<path class="st11" d="M513.7,100.2c-9.7,0-17.6,7.6-18,17c0,0.2,0,0.4,0,0.7c0,9.7,8.1,17.7,18,17.7c5.2,0,10-2.2,13.2-5.8
	c3-3.1,4.7-7.3,4.7-11.9C531.7,108.1,523.6,100.2,513.7,100.2z"/>
<text transform="matrix(1 0 0 1 10.7009 286.8485)" class="st5 st6 st7">Sensory Modulation</text>
<rect x="221" y="294.8" class="st0" width="315.9" height="7"/>
<g>
	<rect x="379.6" y="225.3" class="st1" width="7" height="73.1"/>
</g>
<linearGradient id="SVGID_6_" gradientUnits="userSpaceOnUse" x1="379.082" y1="305.2751" x2="379.082" y2="248.2029">
	<stop  offset="0.3887" style="stop-color:#FFFFFF;stop-opacity:0.94"/>
	<stop  offset="1" style="stop-color:#FFFFFF;stop-opacity:0"/>
</linearGradient>
<rect x="219.8" y="248.2" class="st12" width="318.6" height="57.1"/>
<path class="st11" d="M370.2,216.3c-3.1,3.1-5,7.5-5,12.2c0,9.7,8.1,17.7,18,17.7s18-7.9,18-17.7c0-4.6-1.8-8.9-4.9-12.1
	c-3.3-3.4-7.9-5.6-13.1-5.6C378.1,210.8,373.5,212.9,370.2,216.3z"/>
<text transform="matrix(1 0 0 1 224.9849 286.8485)" class="st5 st6 st7">Automatic Postural &amp; Motor Functions</text>
</svg>
