<?xml version="1.0" encoding="utf-8"?>
<!-- Generator: Adobe Illustrator 21.0.0, SVG Export Plug-In . SVG Version: 6.00 Build 0)  -->
<!DOCTYPE svg PUBLIC "-//W3C//DTD SVG 1.1//EN" "http://www.w3.org/Graphics/SVG/1.1/DTD/svg11.dtd">
<svg version="1.1" id="Layer_1" xmlns="http://www.w3.org/2000/svg" xmlns:xlink="http://www.w3.org/1999/xlink" x="0px" y="0px"
	 viewBox="0 0 689.8 204.7" style="enable-background:new 0 0 689.8 204.7;" xml:space="preserve">
<style type="text/css">
	.st0{fill:none;}
	.st1{fill:#808080;}
	.st2{fill:#4D4D4D;}
	.st3{fill:#FFFFFF;}
</style>
<g>
	<path class="st0" d="M326.8,56.3l-31.3,67.4c6.7,1.5,17.7,3.5,33.3,3.5c15.1,0,25.3-1.6,29.9-2.8l-31.5-68.1H326.8z"/>
	<path class="st1" d="M125.1,90.1c-24.4-5.3-41.2-8.5-54.5-12c-12.8-3.5-18.3-10.9-18.3-17.3c0-13.8,23.7-23.6,56.3-23.6
		c14,0,24,0.4,31.4,1.5c-0.7-2.2-1.1-4.6-1.1-7c0-8.7,4.8-16.4,11.8-20.4c-9.5-1.5-24-4.4-43.1-4.4C50.3,7,16.3,29.6,16.3,64.1
		c0,35.3,31.6,44.4,62.9,52.1c16.8,4,27.6,5.8,51.1,11.4c16.5,4,21.2,10.1,21.2,18.3c0,15.4-17.3,23.6-54.5,23.6
		c-21.3,0-37.8-1.9-49.8-4.9c1.6,3.2,2.6,6.8,2.6,10.6c0,7.2-3.2,13.6-8.3,17.9c12.3,2.4,29.1,7.1,56,7.1
		c50.1,0,90.3-14.9,90.3-53.7C187.8,111.1,161.6,98.1,125.1,90.1z"/>
	<path class="st1" d="M351.8,30.7c-2,11.1-11.6,19.5-23.3,19.5c-11.7,0-21.4-8.6-23.3-19.8c-0.5,1.6-1.1,3.2-1.7,4.4l-57.5,121.6
		c2.8-1.2,6-1.9,9.2-1.9c9,0,16.8,5,20.8,12.4l8.1-17.7c8.6,2,24.6,5.2,43.6,5.2c18.5,0,33.4-3.1,41.5-4.8c0,0,19.9,45,19.9,46.5
		c12.1,1.7,24.2,0.6,36-2.4L353.7,35.3C353,33.8,352.3,32.2,351.8,30.7z M328.8,127.3c-15.5,0-26.6-2-33.3-3.5l31.3-67.4h0.5
		l31.5,68.1C354.1,125.7,343.9,127.3,328.8,127.3z"/>
	<path class="st1" d="M640,30.5c0-0.3,0-0.6,0-0.9c-0.1,0.1-0.1,0.2-0.2,0.3l-59.2,85.6h-0.2l-67.3-98.2c-11.9-1.9-24.7-1.7-38.1,0
		l0,144.5c4.3-4.5,10.4-7.3,17.1-7.3c6.8,0,12.9,2.9,17.2,7.5V72.3h0.5l61.2,87.1c4.9,0.5,10,0.6,15.1,0l60-87.1h0.5v117.7
		c11.8,1.6,23.3,1.9,34.6,0V46.4c-4.3,4.7-10.5,7.7-17.4,7.7C650.7,54.2,640,43.5,640,30.5z"/>
	<path class="st2" d="M49.7,175.3c0-3.8-0.9-7.4-2.6-10.6c-3.9-7.7-11.9-13-21.1-13c-13,0-23.6,10.6-23.6,23.6s10.6,23.6,23.6,23.6
		c5.9,0,11.2-2.2,15.4-5.7C46.5,188.9,49.7,182.5,49.7,175.3z"/>
	<path class="st2" d="M255.3,154.5c-3.3,0-6.4,0.7-9.2,1.9c-8.5,3.6-14.4,12-14.4,21.8c0,13,10.6,23.6,23.6,23.6
		s23.6-10.6,23.6-23.6c0-4.1-1-7.9-2.8-11.2C272.1,159.5,264.3,154.5,255.3,154.5z"/>
	<path class="st2" d="M475,161.8c-4.1,4.2-6.6,10-6.6,16.3c0,13,10.6,23.6,23.6,23.6s23.6-10.6,23.6-23.6c0-6.2-2.4-11.9-6.4-16.1
		c-4.3-4.6-10.4-7.5-17.2-7.5C485.4,154.5,479.3,157.3,475,161.8z"/>
	<circle class="st3" cx="328.6" cy="26.6" r="13.2"/>
	<path class="st2" d="M328.6,50.2c11.6,0,21.3-8.4,23.3-19.5c0.2-1.3,0.4-2.7,0.4-4.1c0-13-10.6-23.6-23.6-23.6
		c-13,0-23.6,10.6-23.6,23.6c0,1.3,0.1,2.6,0.3,3.9C307.1,41.6,316.9,50.2,328.6,50.2z M328.6,13.3c7.3,0,13.2,5.9,13.2,13.2
		c0,7.3-5.9,13.2-13.2,13.2c-7.3,0-13.2-5.9-13.2-13.2C315.4,19.3,321.3,13.3,328.6,13.3z"/>
	<circle class="st3" cx="663.7" cy="30.5" r="13.2"/>
	<path class="st2" d="M663.7,6.9c-12.7,0-23.1,10.1-23.6,22.7c0,0.3,0,0.6,0,0.9c0,13,10.6,23.6,23.6,23.6c6.9,0,13.1-3,17.4-7.7
		c3.9-4.2,6.2-9.8,6.2-15.9C687.3,17.5,676.7,6.9,663.7,6.9z M663.7,43.7c-7.3,0-13.2-5.9-13.2-13.2c0-7.3,5.9-13.2,13.2-13.2
		c7.3,0,13.2,5.9,13.2,13.2C676.9,37.8,671,43.7,663.7,43.7z"/>
	<circle class="st3" cx="162.5" cy="31.8" r="13.2"/>
	<path class="st2" d="M138.9,31.8c0,2.4,0.4,4.8,1.1,7c3,9.6,12,16.6,22.6,16.6c13,0,23.6-10.6,23.6-23.6S175.6,8.1,162.5,8.1
		c-4.3,0-8.3,1.2-11.8,3.2C143.6,15.4,138.9,23,138.9,31.8z M162.5,18.6c7.3,0,13.2,5.9,13.2,13.2c0,7.3-5.9,13.2-13.2,13.2
		s-13.2-5.9-13.2-13.2C149.3,24.5,155.2,18.6,162.5,18.6z"/>
</g>
</svg>
