<?xml version="1.0" encoding="utf-8"?>
<!-- Generator: Adobe Illustrator 21.0.0, SVG Export Plug-In . SVG Version: 6.00 Build 0)  -->
<!DOCTYPE svg PUBLIC "-//W3C//DTD SVG 1.1//EN" "http://www.w3.org/Graphics/SVG/1.1/DTD/svg11.dtd">
<svg version="1.1" id="Layer_1" xmlns="http://www.w3.org/2000/svg" xmlns:xlink="http://www.w3.org/1999/xlink" x="0px" y="0px"
	 viewBox="0 0 400 116.4" style="enable-background:new 0 0 400 116.4;" xml:space="preserve">
<style type="text/css">
	.st0{fill:none;}
	.st1{fill:#808080;}
	.st2{fill:#4D4D4D;}
	.st3{fill:#FFFFFF;}
</style>
<g>
	<path class="st0" d="M189.5,32l-18.1,38.4c3.9,0.9,10.2,2,19.3,2c8.7,0,14.6-0.9,17.3-1.6L189.7,32L189.5,32z"/>
	<path class="st1" d="M72.8,51.2c-14.1-3-23.8-4.8-31.5-6.8c-7.4-2-10.6-6.2-10.6-9.9c0-7.9,13.7-13.5,32.6-13.5
		c8.1,0,14.3,0.3,18.6,0.9c-0.4-1.3-0.6-2.6-0.6-4c0-5,2.8-9.3,6.8-11.6c-5.5-0.9-14.3-2.6-25.4-2.6C29.6,3.9,9.9,16.7,9.9,36.4
		c0,20.1,18.3,25.3,36.4,29.7c9.7,2.3,16,3.3,29.6,6.5c9.5,2.3,12.3,5.8,12.3,10.4c0,8.8-10,13.5-31.5,13.5
		c-12.3,0-23.5-1.5-30.4-3.2c0.9,1.8,1.5,3.9,1.5,6c0,4.1-1.9,7.8-4.8,10.2c7.1,1.4,18.5,4.4,34,4.4c29,0,52.2-8.5,52.2-30.6
		C109.1,63.2,93.9,55.8,72.8,51.2z"/>
	<path class="st1" d="M203.8,16.9c-1.2,6.3-6.4,11.3-13.2,11.3c-6.8,0-12.1-4.9-13.2-11.3c-0.3,0.9-1,2.1-1.3,2.8l-33.7,70
		c1.6-0.7,3.5-1.1,5.3-1.1c5.2,0,9.7,2.8,12,7.1l5.1-10.8c5,1.1,14.2,3,25.2,3c10.7,0,19.3-1.8,24-2.7c0,0,11.5,25.6,11.5,26.5
		c7,1,14,0.3,20.8-1.4L205.1,20C204.7,19.1,204,17.8,203.8,16.9z M190.7,72.4c-9,0-15.4-1.1-19.3-2L189.5,32h0.3L208,70.8
		C205.3,71.5,199.4,72.4,190.7,72.4z"/>
	<path class="st1" d="M371.2,17.3c0-0.2,0-1.1,0-1.3c-0.1,0.1-0.5,0.9-0.5,0.9l-34.2,48.8h-0.1l-38.9-56c-6.9-1.1-14.3-1-22,0v82.9
		c2.5-2.6,6-4.2,9.9-4.2c3.9,0,7.5,1.7,9.9,4.3V41.1h0.3l35.4,49.6c2.8,0.3,5.8,0.3,8.7,0l34.7-49.6h0.3v67.1c6.8,0.9,13.5,1.1,20,0
		V26c-2.5,2.7-6.1,4.4-10.1,4.4C376.8,30.4,371.2,24.7,371.2,17.3z"/>
	<path class="st2" d="M29.2,99.8c0-2.2-0.5-4.2-1.5-6c-2.3-4.4-6.9-7.4-12.2-7.4c-7.5,0-13.7,6-13.7,13.5c0,7.4,6.1,13.5,13.7,13.5
		c3.4,0,6.5-1.3,8.9-3.2C27.4,107.5,29.2,103.9,29.2,99.8z"/>
	<path class="st2" d="M148.1,87.9c-1.9,0-3.7,0.4-5.3,1.1c-4.9,2.1-8.3,6.8-8.3,12.4c0,7.4,6.1,13.5,13.7,13.5s13.7-6,13.7-13.5
		c0-2.3-0.6-4.5-1.6-6.4C157.9,90.8,153.4,87.9,148.1,87.9z"/>
	<path class="st2" d="M275.2,92.1c-2.4,2.4-3.8,5.7-3.8,9.3c0,7.4,6.1,13.5,13.7,13.5s13.7-6,13.7-13.5c0-3.5-1.4-6.8-3.7-9.2
		c-2.5-2.6-6-4.3-9.9-4.3C281.3,87.9,277.7,89.5,275.2,92.1z"/>
	<ellipse class="st3" cx="190.5" cy="15" rx="7.6" ry="7.5"/>
	<path class="st2" d="M190.5,28.5c6.7,0,12.3-4.8,13.5-11.1c0.1-0.7,0.2-1.5,0.2-2.3c0-7.4-6.1-13.5-13.7-13.5S177,7.6,177,15
		c0,0.7,0.1,1.5,0.2,2.2C178.1,23.6,183.8,28.5,190.5,28.5z M190.5,7.5c4.2,0,7.6,3.4,7.6,7.5s-3.4,7.5-7.6,7.5
		c-4.2,0-7.6-3.4-7.6-7.5C182.9,10.9,186.3,7.5,190.5,7.5z"/>
	<ellipse class="st3" cx="384.4" cy="17.3" rx="7.6" ry="7.5"/>
	<path class="st2" d="M384.4,3.8c-7.3,0-13.4,5.8-13.7,12.9c0,0.2,0,0.3,0,0.5c0,7.4,6.1,13.5,13.7,13.5c4,0,7.6-1.7,10.1-4.4
		c2.3-2.4,3.6-5.6,3.6-9.1C398.1,9.8,391.9,3.8,384.4,3.8z M384.4,24.8c-4.2,0-7.6-3.4-7.6-7.5s3.4-7.5,7.6-7.5
		c4.2,0,7.6,3.4,7.6,7.5S388.6,24.8,384.4,24.8z"/>
	<ellipse class="st3" cx="94.5" cy="18" rx="7.6" ry="7.5"/>
	<path class="st2" d="M80.8,18c0,1.4,0.2,2.7,0.6,4c1.7,5.5,6.9,9.5,13.1,9.5c7.5,0,13.7-6,13.7-13.5S102,4.5,94.5,4.5
		c-2.5,0-4.8,0.7-6.8,1.8C83.5,8.7,80.8,13,80.8,18z M94.5,10.5c4.2,0,7.6,3.4,7.6,7.5s-3.4,7.5-7.6,7.5c-4.2,0-7.6-3.4-7.6-7.5
		S90.2,10.5,94.5,10.5z"/>
</g>
</svg>
