<?xml version="1.0" encoding="utf-8"?>
<!-- Generator: Adobe Illustrator 21.0.0, SVG Export Plug-In . SVG Version: 6.00 Build 0)  -->
<!DOCTYPE svg PUBLIC "-//W3C//DTD SVG 1.1//EN" "http://www.w3.org/Graphics/SVG/1.1/DTD/svg11.dtd">
<svg version="1.1" id="Layer_1" xmlns="http://www.w3.org/2000/svg" xmlns:xlink="http://www.w3.org/1999/xlink" x="0px" y="0px"
	 viewBox="0 0 400 116.4" style="enable-background:new 0 0 400 116.4;" xml:space="preserve">
<style type="text/css">
	.st0{fill:none;}
	.st1{fill:#808080;}
	.st2{fill:#4D4D4D;}
	.st3{fill:#FFFFFF;}
</style>
<g>
	<path class="st0" d="M189.5,31.4l-18.2,39.2c3.9,0.9,10.3,2,19.4,2c8.8,0,14.7-0.9,17.4-1.6l-18.3-39.6
		C189.7,31.4,189.5,31.4,189.5,31.4z"/>
	<path class="st1" d="M72.1,51.1c-14.2-3.1-24-4.9-31.7-7c-7.4-2-10.6-6.3-10.6-10.1c0-8,13.8-13.7,32.7-13.7c8.1,0,14.4,0.3,18.7,1
		c-0.4-1.3-0.6-2.7-0.6-4.1c0-5.1,2.8-9.5,6.9-11.9C81.9,4.5,73.1,2.7,62,2.7C28.6,2.7,8.9,15.9,8.9,36c0,20.5,18.4,25.8,36.6,30.3
		c9.8,2.3,16.1,3.4,29.7,6.6c9.6,2.3,12.3,5.9,12.3,10.6c0,9-10.1,13.7-31.7,13.7c-12.4,0-23.6-1.5-30.6-3.3c0.9,1.9,1.5,4,1.5,6.2
		c0,4.2-1.9,7.9-4.8,10.4c7.2,1.4,18.6,4.5,34.2,4.5c29.1,0,52.5-8.7,52.5-31.2C108.6,63.3,93.4,55.7,72.1,51.1z"/>
	<path class="st1" d="M203.8,16.1c-1.2,6.5-6.5,11.5-13.3,11.5c-6.8,0-12.1-5-13.3-11.5c-0.3,0.9-1,2.2-1.3,2.9L142,90.4
		c1.6-0.7,3.5-1.1,5.4-1.1c5.2,0,9.8,2.9,12.1,7.2l5.1-11c5,1.2,14.3,3,25.4,3c10.8,0,19.4-1.8,24.1-2.8c0,0,11.6,26.2,11.6,27
		c7,1,14.1,0.3,20.9-1.4l-41.5-92.1C204.7,18.3,204.1,16.9,203.8,16.1z M190.6,72.7c-9,0-15.5-1.2-19.4-2l18.2-39.2h0.3l18.3,39.6
		C205.3,71.8,199.4,72.7,190.6,72.7z"/>
	<path class="st1" d="M372.1,16.4c0-0.2,0-1.1,0-1.3c-0.1,0.1-0.5,0.9-0.6,1l-34.4,49.8H337L297.8,8.7c-6.9-1.1-14.4-1-22.2,0v84.6
		c2.5-2.6,6-4.2,9.9-4.2c4,0,7.5,1.7,10,4.4V40.7h0.3l35.6,50.7c2.9,0.3,5.8,0.3,8.8,0l34.9-50.7h0.3v68.5c6.9,0.9,13.6,1.1,20.1,0
		V25.3c-2.5,2.7-6.2,4.5-10.2,4.5C377.8,29.8,372.1,24,372.1,16.4z"/>
	<path class="st2" d="M28.3,100.6c0-2.2-0.5-4.3-1.5-6.2c-2.3-4.5-6.9-7.6-12.3-7.6c-7.6,0-13.7,6.2-13.7,13.7s6.2,13.7,13.7,13.7
		c3.4,0,6.5-1.3,9-3.3C26.4,108.5,28.3,104.8,28.3,100.6z"/>
	<path class="st2" d="M147.9,88.5c-1.9,0-3.7,0.4-5.4,1.1c-4.9,2.1-8.4,7-8.4,12.7c0,7.6,6.2,13.7,13.7,13.7
		c7.6,0,13.7-6.2,13.7-13.7c0-2.4-0.6-4.6-1.6-6.5C157.6,91.4,153.1,88.5,147.9,88.5z"/>
	<path class="st2" d="M275.7,92.8c-2.4,2.4-3.8,5.8-3.8,9.5c0,7.6,6.2,13.7,13.7,13.7c7.6,0,13.7-6.2,13.7-13.7
		c0-3.6-1.4-6.9-3.7-9.4c-2.5-2.7-6-4.4-10-4.4C281.7,88.5,278.2,90.2,275.7,92.8z"/>
	<circle class="st3" cx="190.5" cy="14.1" r="7.7"/>
	<path class="st2" d="M190.5,27.9c6.7,0,12.4-4.9,13.6-11.3c0.1-0.8,0.2-1.6,0.2-2.4c0-7.6-6.2-13.7-13.7-13.7
		c-7.6,0-13.7,6.2-13.7,13.7c0,0.8,0.1,1.5,0.2,2.3C178,22.9,183.7,27.9,190.5,27.9z M190.5,6.4c4.2,0,7.7,3.4,7.7,7.7
		s-3.4,7.7-7.7,7.7c-4.2,0-7.7-3.4-7.7-7.7C182.8,9.9,186.3,6.4,190.5,6.4z"/>
	<circle class="st3" cx="385.4" cy="16.4" r="7.7"/>
	<path class="st2" d="M385.4,2.7c-7.4,0-13.4,5.9-13.7,13.2c0,0.2,0,0.3,0,0.5c0,7.6,6.2,13.7,13.7,13.7c4,0,7.6-1.7,10.1-4.5
		c2.3-2.4,3.6-5.7,3.6-9.2C399.1,8.9,393,2.7,385.4,2.7z M385.4,24.1c-4.2,0-7.7-3.4-7.7-7.7s3.4-7.7,7.7-7.7s7.7,3.4,7.7,7.7
		S389.7,24.1,385.4,24.1z"/>
	<circle class="st3" cx="93.9" cy="17.2" r="7.7"/>
	<path class="st2" d="M80.2,17.2c0,1.4,0.2,2.8,0.6,4.1c1.7,5.6,7,9.7,13.1,9.7c7.6,0,13.7-6.2,13.7-13.7S101.5,3.4,93.9,3.4
		c-2.5,0-4.8,0.7-6.9,1.9C82.9,7.6,80.2,12.1,80.2,17.2z M93.9,9.5c4.2,0,7.7,3.4,7.7,7.7s-3.4,7.7-7.7,7.7c-4.2,0-7.7-3.4-7.7-7.7
		S89.6,9.5,93.9,9.5z"/>
</g>
</svg>
